<svg viewBox="0 0 96 96" xmlns="http://www.w3.org/2000/svg" xmlns:xlink="http://www.w3.org/1999/xlink" id="Icons_CircusTent" overflow="hidden"><g id="Icons"><path d="M48.831 21.794 76.758 45.43 76.758 49.181C76.7922 51.2403 75.2688 52.9944 73.225 53.249 71.0709 53.4594 69.154 51.8837 68.9436 49.7296 68.9312 49.6031 68.925 49.4761 68.925 49.349L68.925 45.43 48.71 21.916C48.6778 21.8811 48.68 21.8267 48.7149 21.7945 48.7477 21.7643 48.798 21.7641 48.831 21.794ZM48.268 21.625 60.2 45.43 60.2 49.181C60.2342 51.2403 58.7108 52.9944 56.667 53.249 54.5128 53.4594 52.596 51.8837 52.3856 49.7296 52.3732 49.6031 52.367 49.4761 52.367 49.349L52.367 45.43 48.105 21.679C48.0975 21.6315 48.1298 21.587 48.1773 21.5794 48.2142 21.5736 48.2507 21.5919 48.268 21.625ZM47.895 21.679 43.637 45.43 43.637 49.181C43.671 51.2417 42.1454 52.9963 40.1 53.249 37.9459 53.4594 36.029 51.8837 35.8186 49.7296 35.8062 49.6031 35.8 49.4761 35.8 49.349L35.8 45.43 47.73 21.63C47.7435 21.5831 47.7926 21.556 47.8395 21.5695 47.8864 21.583 47.9135 21.6321 47.9 21.679ZM47.29 21.916 27.077 45.43 27.077 49.181C27.1112 51.2403 25.5878 52.9944 23.544 53.249 21.3898 53.4594 19.473 51.8837 19.2626 49.7296 19.2502 49.6031 19.244 49.4761 19.244 49.349L19.244 45.43 47.169 21.794C47.2042 21.7621 47.2586 21.7647 47.2905 21.7999 47.3204 21.8329 47.3202 21.8833 47.29 21.916ZM84.273 45.273C66.136 33.182 48 17.067 48 17.067 48 17.067 29.864 33.182 11.727 45.273L11.727 49.358C11.727 51.5027 13.4653 53.2415 15.61 53.242 15.0604 64.0192 13.176 74.6867 10 85L25.711 85C33.4218 85.0002 40.2916 80.1301 42.844 72.854L48 58.159 53.156 72.859C55.7101 80.1331 62.5795 85.001 70.289 85L86 85C82.824 74.6867 80.9396 64.0192 80.39 53.242 82.5347 53.2414 84.273 51.5027 84.273 49.358L84.273 49.358Z" fill="#F2F2F2"/><path d="M63.545 16.773 48 16.773 48 9 63.545 9 58.688 12.886 63.545 16.773Z" fill="#F2F2F2"/></g></svg>