<svg viewBox="0 0 512 512" xmlns="http://www.w3.org/2000/svg" xmlns:xlink="http://www.w3.org/1999/xlink" id="_x32_" overflow="hidden"><g><path d="M265.057 106.385 265.057 58.592C265.805 58.603 266.586 58.612 267.407 58.612 271.951 58.612 277.603 58.244 284.551 57.168 290.287 56.282 296.033 54.627 301.579 52.645 309.865 49.693 317.637 46.056 323.404 43.113 329.193 40.193 332.936 37.978 333.062 37.905L357.934 23.291 329.161 21.077C329.161 21.077 329.161 21.077 309.528 19.548 305.458 19.252 300.092 18.23 294.524 16.807 286.163 14.699 277.296 11.745 270.6 9.342 267.258 8.139 264.432 7.075 262.46 6.305 261.49 5.926 260.71 5.63 260.194 5.42 259.94 5.314 259.73 5.23 259.603 5.188L259.466 5.124 259.424 5.124 246.943 0 246.943 48.227 246.943 106.385C168.425 189.449 116.57 207.078 74.934 233.246L437.066 233.246C395.428 207.078 343.575 189.449 265.057 106.385Z" fill="#F2F2F2"/><path d="M447.124 255.547 64.875 255.547C57.347 307.812 24.44 435.854 2.33 512 66.445 512 111.056 512 111.056 512 111.056 512 143.098 492.199 155.655 374.3 155.655 374.3 215.859 376.798 255.999 304.058 296.139 376.799 356.342 374.3 356.342 374.3 368.889 492.199 400.942 512 400.942 512 400.942 512 445.552 512 509.668 512 487.559 435.854 454.653 307.812 447.124 255.547Z" fill="#F2F2F2"/></g></svg>