<?xml version="1.0" standalone="no"?>
<!DOCTYPE svg PUBLIC "-//W3C//DTD SVG 1.1//EN" "http://www.w3.org/Graphics/SVG/1.1/DTD/svg11.dtd" >
<svg xmlns="http://www.w3.org/2000/svg" xmlns:xlink="http://www.w3.org/1999/xlink" version="1.1">
<metadata>
Created by FontForge 20190801 at Fri Feb 12 22:41:35 2010
 By Jimmy Wärting
Disco Diva (c) Scott Nuss. 2007. All Rights Reserved
</metadata>
<defs>
<font id="DiscoDiva" horiz-adv-x="1139" >
  <font-face 
    font-family="Disco Diva"
    font-weight="400"
    font-stretch="normal"
    units-per-em="2048"
    panose-1="2 11 0 0 0 0 0 8 0 0"
    ascent="1638"
    descent="-410"
    x-height="2000"
    cap-height="2000"
    bbox="-646 -599 2800 2050"
    underline-thickness="150"
    underline-position="-292"
    unicode-range="U+0020-F005"
  />
<missing-glyph horiz-adv-x="1536" 
d="M256 0v1280h1024v-1280h-1024zM288 32h960v1216h-960v-1216z" />
    <glyph glyph-name=".notdef" horiz-adv-x="1536" 
d="M256 0v1280h1024v-1280h-1024zM288 32h960v1216h-960v-1216z" />
    <glyph glyph-name=".null" horiz-adv-x="0" 
 />
    <glyph glyph-name="nonmarkingreturn" horiz-adv-x="569" 
 />
    <glyph glyph-name="space" unicode=" " horiz-adv-x="569" 
 />
    <glyph glyph-name="space" unicode="&#xa0;" horiz-adv-x="569" 
 />
    <glyph glyph-name="exclam" unicode="!" horiz-adv-x="700" 
d="M200 2000v-1500h-50v1500h50zM550 500h-25v1500l25 -1v-1499zM375 500h-25v1499h25v-1499zM200 400v-400h-50v400h50zM550 0h-25v400h25v-400zM375 0h-25v400h25v-400z" />
    <glyph glyph-name="quotedbl" unicode="&#x22;" horiz-adv-x="727" 
 />
    <glyph glyph-name="numbersign" unicode="#" horiz-adv-x="727" 
 />
    <glyph glyph-name="dollar" unicode="$" horiz-adv-x="727" 
 />
    <glyph glyph-name="percent" unicode="%" horiz-adv-x="1821" 
 />
    <glyph glyph-name="ampersand" unicode="&#x26;" horiz-adv-x="1366" 
 />
    <glyph glyph-name="quotesingle" unicode="'" horiz-adv-x="391" 
 />
    <glyph glyph-name="parenleft" unicode="(" horiz-adv-x="775" 
d="M305 2000q-205 -500 -205 -1000t205 -1000h-55q-200 500 -200 1000t200 1000h55zM725 0h-30q-270 500 -270 1000t270 1000h30q-275 -500 -275 -1000t275 -1000zM520 0h-30q-240 500 -240 1000t240 1000h30q-245 -500 -245 -1000t245 -1000z" />
    <glyph glyph-name="parenright" unicode=")" horiz-adv-x="775" 
d="M525 2000q200 -500 200 -1000t-200 -1000h-55q205 500 205 1000t-205 1000h55zM325 1000q0 500 -275 1000h30q270 -500 270 -1000t-270 -1000h-30q275 500 275 1000zM500 1000q0 500 -245 1000h30q240 -500 240 -1000t-240 -1000h-30q245 500 245 1000z" />
    <glyph glyph-name="asterisk" unicode="*" horiz-adv-x="797" 
 />
    <glyph glyph-name="plus" unicode="+" horiz-adv-x="1800" 
d="M650 300h-50v500h-500v25h550v-525zM975 825h525v-25h-500v-500h-25v525zM650 1150h-550v50h500v500h50v-550zM975 1700h25v-500h500v-50h-525v550zM800 975h-700v25h700v699h25v-699h675v-25h-675v-675h-25v675z" />
    <glyph glyph-name="comma" unicode="," horiz-adv-x="600" 
d="M275 500h25v-400h-25v400zM100 500h25v-400h-25v400zM499 500l1 -400h-50v400h49zM260 -360q63 62 106 142q84 156 84 318h50q0 -175 -90 -343q-47 -86 -114 -153zM12 -112q29 29 49 66q39 70 39 146h25q0 -82 -42 -158q-22 -40 -53 -71zM136 -236q46 46 78 104
q61 114 61 232h25q0 -124 -65 -244q-33 -61 -81 -109z" />
    <glyph glyph-name="hyphen" unicode="-" horiz-adv-x="1400" 
d="M1300 1150h-1200v50h1200v-50zM100 800v25h1200v-25h-1200zM100 975v25h1200v-25h-1200z" />
    <glyph glyph-name="hyphen" unicode="&#xad;" horiz-adv-x="1400" 
d="M1300 1150h-1200v50h1200v-50zM100 800v25h1200v-25h-1200zM100 975v25h1200v-25h-1200z" />
    <glyph glyph-name="period" unicode="." horiz-adv-x="600" 
d="M500 400v-400h-50v400h50zM100 400h25v-400h-25v400zM275 400h25v-400h-25v400z" />
    <glyph glyph-name="slash" unicode="/" horiz-adv-x="1500" 
d="M-1 0l1000 2000h56l-1000 -2000h-56zM1250 2000l-1000 -2000h-27l1000 2000h27zM1446 2000l-1000 -2000h-28l1000 2000h28z" />
    <glyph glyph-name="zero" unicode="0" horiz-adv-x="2200" 
d="M1099 2000q252 0 491 -129t374.5 -369.5t135.5 -502.5q0 -260 -132 -497.5t-370 -369.5t-499 -132q-259 0 -497 132t-370 369.5t-132 497.5q0 262 134 502.5t373 369.5t492 129zM632 1827.5q-227 -122.5 -354.5 -351t-127.5 -477.5q0 -247 125.5 -472.5t351.5 -351
t472 -125.5q248 0 474 125.5t351.5 351t125.5 472.5q0 249 -128.5 477.5t-355.5 351t-467 122.5t-467 -122.5zM1100 1800q201 0 392 -103.5t299.5 -295.5t108.5 -402q0 -208 -105.5 -398t-296 -295.5t-398.5 -105.5t-398.5 105.5t-296 295.5t-105.5 398q0 210 107.5 402
t298.5 295.5t394 103.5zM718 1675q-185 -100 -289 -286.5t-104 -389.5q0 -201 102 -385.5t287 -286.5t386 -102t386 102t287 286.5t102 385.5q0 203 -105 389.5t-290 286.5t-380 100q-197 0 -382 -100zM1100 1625q157 0 306.5 -80.5t234 -231t84.5 -313.5t-82.5 -311.5
t-231.5 -231t-311 -82.5t-311 82.5t-231.5 231t-82.5 311.5t84 313.5t233 231t308 80.5zM804.5 1522.5q-143.5 -77.5 -224 -221.5t-80.5 -301t79 -299.5t222 -221.5t299 -79t299 79t222 221.5t79 299.5t-81 301t-224.5 221.5t-294.5 77.5q-152 0 -295.5 -77.5z" />
    <glyph glyph-name="one" unicode="1" horiz-adv-x="899" 
d="M0 1249l800 801v-2050h-50v1929l-715 -715zM265 984l160 160v-1144h-25v1084l-117 -117zM142 1108l458 458v-1566h-25v1506l-416 -416z" />
    <glyph glyph-name="two" unicode="2" horiz-adv-x="1700" 
d="M475 1300q0 38 9 76q20 82 79 147.5t144.5 89t167.5 3.5v1q82 -19 147.5 -79t89.5 -145t4 -168q-18 -72 -67 -133l-897 -1067h1448v-25h-1502l848 1010l83 98q46 56 63 123q18 76 -4 155t-83 134q-60 55 -135 73v-1q-76 18 -154.5 -4t-133.5 -82t-73 -135q-9 -35 -9 -71
h-25zM100 1300q0 83 19 164q42 177 170.5 317.5t312.5 191t360 8.5v1q177 -42 317.5 -171t192 -312t9.5 -361q-38 -157 -145 -287l-379 -451h643v-50h-750l448 534h1q98 119 133 266q40 165 -7.5 335t-178.5 289.5t-295 158.5l-1 -1q-163 39 -334 -8t-290 -177.5
t-158 -294.5q-18 -75 -18 -152h-50zM300 1300q0 59 14 117q30 127 122 226.5t223 136t257 6.5v1q126 -30 226.5 -122t137 -223t6.5 -257q-30 -128 -123 -229l-635 -756h1072v-25h-1125l689 821q72 88 98 195q29 120 -6 244t-130.5 211.5t-215.5 116.5v-1
q-120 29 -244.5 -5.5t-211.5 -130t-116 -215.5q-13 -55 -13 -111h-25z" />
    <glyph glyph-name="three" unicode="3" horiz-adv-x="1500" 
d="M1415 1950h-1315v50h1396l-371 -741q110 -82 180 -207q94 -169 94 -352q0 -182 -92 -348.5t-259 -258.5t-348 -92v-1q-182 0 -348.5 92.5t-259 258.5t-92.5 349h50q0 -170 85.5 -324t240.5 -240t324 -86v1q168 0 323 85.5t240.5 240t85.5 323.5q0 170 -87 327
q-62 111 -159 186l-42 29zM1134 1775h-1034v25h1073l-313 -626q43 -15 86 -38q119 -65 186 -185t67 -251q0 -130 -66 -248.5t-185 -184.5t-248 -66v-1q-130 0 -249 66t-185 185t-66 249h25q0 -124 62.5 -236.5t176 -175.5t236.5 -63v1q123 0 236 62.5t175.5 175.5t62.5 236
q0 125 -63.5 239t-176.5 176q-42 22 -85 37l-24 7zM850 1600h-750v25h790l-313 -624q61 24 123 24q82 1 159.5 -41t121 -120.5t43.5 -163.5q0 -84 -42.5 -161.5t-120 -120t-161.5 -42.5v-1q-84 0 -161.5 43t-120.5 120t-43 162h25q0 -78 39.5 -149.5t111.5 -111.5
q71 -39 148 -39v1q78 0 149.5 39.5t111 110.5t39.5 149q0 79 -40 151t-112 111q-72 38 -147 38q-72 0 -140 -34l-39 -24z" />
    <glyph glyph-name="four" unicode="4" horiz-adv-x="1500" 
d="M1400 2050v-2050h-50v1912l-1226 -1462h826v-50h-935zM1200 1501v-1501h-25v1431l-676 -806h451v-25h-505zM1025 1020v-1020h-25v951l-127 -151h77v-25h-131z" />
    <glyph glyph-name="five" unicode="5" horiz-adv-x="1600" 
d="M799 1050q89 0 173 -45t130.5 -129.5t46.5 -176.5q0 -90 -45.5 -173.5t-129.5 -129t-174 -45.5v-1q-91 0 -174.5 46t-130 129t-46.5 174l49 1q0 -78 39.5 -149.5t111.5 -110.5q71 -40 149 -40v1q78 0 149.5 39.5t111 110.5t39.5 149t-40 150t-112 111t-147 39h-633
l500 1000h734v-50h-703l-449 -900h551zM490 1200l301 600h609v-25h-594l-275 -550h268q133 0 258.5 -68.5t196 -194t70.5 -263.5q0 -136 -69.5 -260.5t-194.5 -193.5t-261 -69v-1q-137 0 -262 69t-194 194t-69 261h25q0 -130 65.5 -248.5t185.5 -184.5t249 -66v1
q130 0 249 65.5t185 184.5t66 248q0 132 -67 251.5t-186.5 184.5t-246.5 65h-309zM802 1375h-28l125 250h501v-25h-485l-100 -200q168 -4 328 -90q167 -91 261 -259.5t94 -351.5q0 -182 -92 -348.5t-259 -258.5t-348 -92q-183 0 -349.5 92t-259 258t-92.5 349h26
q0 -176 88.5 -336t249.5 -249t337 -89v1q175 0 336 88.5t250 249t89 335.5q0 176 -90.5 338.5t-251.5 250.5q-160 87 -330 87z" />
    <glyph glyph-name="six" unicode="6" horiz-adv-x="1600" 
d="M899 1344l24 46q113 -20 222 -79q167 -91 261 -259.5t94 -351.5q0 -182 -92 -348.5t-259 -258.5t-348 -92v-1q-183 0 -349.5 92.5t-259 258.5t-92.5 349q0 162 74 313l493 987h56l-504 -1010h-1q-68 -139 -68 -290q0 -170 85.5 -324t240.5 -240t325 -86v1q168 0 323 85.5
t240.5 240t85.5 323.5q0 170 -87 326.5t-243 240.5q-108 59 -221 77zM828 1201q112 -7 218 -65q120 -65 187 -185t67 -251q0 -130 -66 -248.5t-185 -184.5t-248 -66v-1q-131 0 -250 66t-185 185t-66 249q0 131 67 251l525 1049h28l-545 -1088q-50 -102 -50 -212
q0 -124 62.5 -236.5t176 -175.5t237.5 -63v1q123 0 236 62.5t175.5 175.5t62.5 236q0 125 -63.5 239t-177.5 176q-106 57 -218 61zM737 1019q31 6 64 6v1q82 0 159.5 -42t121 -120.5t43.5 -163.5q0 -84 -42.5 -161.5t-120 -120t-161.5 -42.5v-1q-85 0 -162.5 43t-120.5 120
t-43 162q0 75 34 145l579 1155h28l-526 -1051l-58 -115q-32 -65 -32 -134q0 -78 39.5 -149.5t111.5 -111.5q71 -39 148 -39v1q79 0 150.5 39.5t111 110.5t39.5 149q0 79 -40 151t-112 111q-72 38 -147 39v-1q-40 0 -79 -10z" />
    <glyph glyph-name="seven" unicode="7" horiz-adv-x="1450" 
d="M800 1600h-700v25h740l-813 -1625h-27zM1083 1775h-983v25h1023l-900 -1800h-28zM1365 1950h-1265v50h1346l-1000 -2000h-56z" />
    <glyph glyph-name="eight" unicode="8" horiz-adv-x="1600" 
d="M652.5 961.5q-71.5 -38.5 -112 -111t-40.5 -150.5t39.5 -149.5t111.5 -111.5q71 -39 148 -39q78 0 149.5 39.5t111.5 111t40 149.5q0 79 -40.5 151t-112.5 111q-72 38 -147 38q-76 0 -147.5 -38.5zM800 375q-84 0 -161.5 43t-120.5 120t-43 162t43.5 163t121.5 120
t160 42t159.5 -41.5t121.5 -120t44 -163.5q0 -84 -43 -162t-120.5 -120.5t-161.5 -42.5zM800 1600q-32 0 -61.5 -16t-46.5 -46.5t-17 -62.5q0 -33 16.5 -62.5t46.5 -46.5q29 -16 62 -16q32 0 62 16.5t46.5 46t16.5 62.5t-16.5 63t-46.5 46t-62 16zM800 1325q-39 0 -74.5 20
t-55.5 55.5t-20 74.5t20 75t56 55.5t74 19.5t74 -19.5t56 -55.5t20 -75t-19.5 -74.5t-55.5 -55.5t-75 -20zM1264 1228q84 -74 141 -176q95 -169 95 -352q0 -182 -92.5 -348.5t-259.5 -259t-348 -92.5q-182 0 -348.5 92.5t-259 258.5t-92.5 349t94 351q58 103 143 177
q-62 117 -62 247q0 137 70.5 263t196 194t258.5 68t258.5 -68t196 -194t70.5 -263q0 -129 -61 -247zM1238 1184l-39 32l25 44q51 103 51 215q0 124 -63.5 238t-177.5 175.5t-234 61.5t-234 -61.5t-177.5 -175.5t-63.5 -238q0 -113 51 -216l25 -43l-39 -32q-74 -67 -125 -158
q-87 -156 -87 -326t85.5 -324t240.5 -240t324 -86q168 0 323 86t241 240.5t86 323.5q0 170 -88 327q-50 90 -124 157zM663 1181q-12 5 -24 12q-78 43 -121 120t-43 162t43.5 163t121.5 120t160 42t160 -42t121.5 -120t43.5 -163t-43 -162t-120 -119q-13 -7 -25 -13
q55 -16 109 -45q119 -65 186.5 -185t67.5 -251q0 -130 -66.5 -248.5t-185.5 -185t-248 -66.5q-130 0 -249 66t-185 185t-66 249q0 131 67 251t187 185q53 29 109 45zM705 1191h190q28 9 55 24q71 39 110.5 110.5t39.5 149.5q0 79 -40 150.5t-112 110.5t-148 39t-148 -39
t-112 -111t-40 -150q0 -79 39.5 -150t111.5 -110q27 -15 54 -24zM896 1165h-193q-70 -15 -137 -51q-114 -61 -177.5 -175.5t-63.5 -238.5t62.5 -236.5t176 -175.5t236.5 -63t236 63t175.5 176t62.5 236q0 125 -63.5 239t-176.5 176q-68 36 -138 50z" />
    <glyph glyph-name="nine" unicode="9" horiz-adv-x="1600" 
d="M701 657l-24 -47q-113 21 -222 80q-167 90 -261 258.5t-94 351.5q0 182 92 348.5t259 258.5t348 92v1q183 0 349.5 -92.5t259 -258.5t92.5 -349q0 -162 -74 -313l-493 -987h-56l504 1010h1q68 139 68 290q0 170 -85.5 324t-240.5 240t-325 86v-1q-168 0 -323 -85.5
t-240.5 -240t-85.5 -323.5q0 -170 87 -326.5t243 -240.5q108 -58 221 -76zM772 800q-112 6 -218 64q-120 65 -187 185t-67 251q0 130 66 248.5t185 184.5t248 66v1q131 0 250 -66t185 -185t66 -249q0 -131 -67 -251l-525 -1049h-28l545 1088q50 102 50 212
q0 124 -62.5 236.5t-176 175.5t-237.5 63v-1q-123 0 -236 -62.5t-175.5 -175.5t-62.5 -236q0 -125 63.5 -239t177.5 -175q106 -58 218 -61zM863 982q-31 -7 -64 -7v-1q-82 0 -159.5 42t-121 120.5t-43.5 163.5q0 84 42.5 161.5t120 120t161.5 42.5v1q85 0 162.5 -43
t120.5 -120t43 -162q0 -75 -34 -145l-579 -1155h-28l526 1051l58 115q32 65 32 134q0 78 -39.5 149.5t-111.5 111.5q-71 39 -148 39v-1q-79 0 -150.5 -39.5t-111 -110.5t-39.5 -149q0 -79 40 -151t112 -111q72 -38 147 -39v1q40 0 79 11z" />
    <glyph glyph-name="colon" unicode=":" horiz-adv-x="600" 
d="M500 1250v-500h-50v500h50zM100 1250h25v-500h-25v500zM275 1250h25v-500h-25v500zM500 400v-400h-50v400h50zM100 400h25v-400h-25v400zM275 400h25v-400h-25v400z" />
    <glyph glyph-name="semicolon" unicode=";" horiz-adv-x="600" 
d="M275 500h25v-400h-25v400zM100 500h25v-400h-25v400zM499 500l1 -400h-50v400h49zM260 -360q63 62 106 142q84 156 84 318h50q0 -175 -90 -343q-47 -86 -114 -153zM12 -112q29 29 49 66q39 70 39 146h25q0 -82 -42 -158q-22 -40 -53 -71zM136 -236q46 46 78 104
q61 114 61 232h25q0 -124 -65 -244q-33 -61 -81 -109zM500 1250v-500h-50v500h50zM100 1250h25v-500h-25v500zM275 1250h25v-500h-25v500z" />
    <glyph glyph-name="semicolon" unicode="&#x37e;" horiz-adv-x="600" 
d="M275 500h25v-400h-25v400zM100 500h25v-400h-25v400zM499 500l1 -400h-50v400h49zM260 -360q63 62 106 142q84 156 84 318h50q0 -175 -90 -343q-47 -86 -114 -153zM12 -112q29 29 49 66q39 70 39 146h25q0 -82 -42 -158q-22 -40 -53 -71zM136 -236q46 46 78 104
q61 114 61 232h25q0 -124 -65 -244q-33 -61 -81 -109zM500 1250v-500h-50v500h50zM100 1250h25v-500h-25v500zM275 1250h25v-500h-25v500z" />
    <glyph glyph-name="less" unicode="&#x3c;" horiz-adv-x="1196" 
 />
    <glyph glyph-name="equal" unicode="=" horiz-adv-x="1196" 
 />
    <glyph glyph-name="greater" unicode="&#x3e;" horiz-adv-x="1196" 
 />
    <glyph glyph-name="question" unicode="?" 
 />
    <glyph glyph-name="at" unicode="@" horiz-adv-x="2200" 
d="M1062 2000l1 -1v0l6 1l5 -2l5 2h1l1 -2l-28 -9l-1 1v1l9 4v1h-1l-28 -7v1l2 4h-1l-17 -4v1v-1h-3v2h2v1h-1l-18 -3l-5 1h-1l-5 -1l-1 1h-1l-2 -2l-3 2l-2 -2l-4 1q-15 -1 -15 -2l-2 1q0 1 26 5v-1h1q17 4 80 7zM1120 2000h1l6 -2l5 2q71 -3 86 -7l1 1v0q26 -4 26 -5h-1
v-1l-17 2l-1 -1h-1l-2 2l-3 -2l-3 2l-1 -1l-6 1l-6 -1l-18 3h-1v-1h2v-2h-2l-1 1v0v-1q-8 3 -18 4h-1v-1q4 -1 4 -3v-1l-29 7h-1v-1q4 0 10 -5l-1 -1h-1q-19 6 -27 10v1zM1090 1999v-1q-8 -9 -14 -9l-2 1v1q0 4 16 8zM1110 1999q9 0 16 -8l-2 -2q-7 1 -14 9v1zM1099 1998h3
q3 -1 3 -4q0 -4 -4 -4v-1q-5 2 -5 4v2zM933 1975v-1q-21 -12 -60 -23l-5 -1q8 10 65 25zM961 1975l1 -1v-1q-37 -22 -56 -23v1q22 18 54 23zM1239 1975q43 -11 55 -24v-1q-15 0 -56 23v1zM1267 1975q56 -14 65 -25h-1q-11 0 -64 23v2zM1291 1975q57 -14 73 -25v-1
q-14 3 -74 24l1 1v1zM909 1974h1v-1q-49 -18 -73 -23q11 10 72 24zM994 1974v-2q-28 -22 -43 -22l-2 1v2q0 6 37 20zM1026 1974h2l1 -2v-1q-15 -21 -31 -21q-4 1 -4 2v3q17 19 32 19zM1063 1974q5 -1 5 -6q-6 -18 -19 -18h-1q-4 0 -6 5q0 10 17 18zM1100 1974q9 0 12 -14
q-4 -10 -11 -10q-12 2 -12 11q2 13 11 13zM1138 1974q12 0 20 -17v-1q0 -6 -7 -6q-13 0 -19 18q0 5 6 6zM1174 1974q14 0 32 -19v-1v0q-1 -4 -4 -4q-14 0 -31 20v2q0 2 3 2zM1206 1974h1q15 0 41 -17l4 -5v-1l-3 -1q-28 7 -43 23v1zM887 1973h1v-1l-76 -22q2 3 33 13v1h-2
l-45 -13v0q0 3 32 13q22 6 40 8l-2 -2h2zM1312 1973h2l18 -3l-1 1v1h2q47 -9 69 -20v-1l-46 13h-1v-1l33 -12v-1h-2l-74 22v1zM857 1968v-1h2l9 2v1h-2zM1336 1969v-1h4v0v0l-4 1v0zM1341 1968v-1l7 -2h1v1l-7 2h-1zM851 1966v-1h3l2 1v1h-2zM1349 1965v-1h4h1v0l-4 1h-1z
M721 1921q-74 -40 -80 -40v1q23 17 78 39h2zM741 1921l1 -1v-1q-65 -38 -76 -38v1q16 16 67 36zM773 1921l1 -1v-1q-44 -31 -68 -38l-2 2q14 16 49 31q15 7 20 7zM812 1921l3 -1v-1q-17 -19 -46 -33q-11 -4 -17 -4l-1 1q3 9 25 22q29 16 36 16zM860 1921q3 -1 4 -4
q-10 -14 -28 -26q-16 -9 -25 -9q-3 0 -3 3h-1q6 18 46 34q7 1 7 2zM914 1921q6 -2 6 -5q0 -11 -30 -30q-8 -4 -13 -4v0q-7 0 -7 5q0 14 36 31zM973 1921q7 0 8 -9q0 -15 -27 -29l-8 -1q-6 0 -8 9q0 12 26 27zM1036 1921q10 0 12 -15q-7 -24 -24 -24h-1q-13 2 -13 12
q3 21 26 27zM1164 1921q12 0 25 -18l2 -8q-3 -13 -14 -13q-19 0 -25 26q0 8 12 13zM1227 1921q15 0 34 -25l1 -6q0 -7 -10 -8q-15 0 -30 22q-3 4 -3 8q1 9 8 9zM1286 1921q16 0 42 -27l3 -7q-2 -5 -8 -5q-17 0 -40 28l-2 6v1q0 3 5 3v1zM1340 1921q34 -10 52 -32l1 -4v-1
q-1 -2 -5 -2q-17 0 -50 32q0 3 -2 3q0 3 4 3v1zM1388 1921q31 -9 59 -32l2 -4v-2l-1 -1h-2q-22 3 -59 35h-1v3zM1428 1921q21 -4 63 -31l5 -7v0l-1 -2q-32 10 -68 38zM1459 1921q10 0 66 -31q10 -7 10 -9h-1q-32 11 -76 38v1zM1102 1920q12 0 17 -20q-4 -18 -19 -18
q-16 0 -18 19q4 19 19 19h1zM1482 1920h1q37 -13 76 -37v-1h-2q-12 4 -75 37v1zM692 1913q-7 -5 -57 -28q15 11 57 28zM1508 1913h1q48 -21 56 -28v0zM556 1840v-1q-27 -21 -74 -54v1q34 29 74 54zM572 1840l1 -1v-1q-49 -41 -70 -51h-3v1q37 36 70 51l1 1h1zM603 1840l1 -1
v-2q-41 -41 -67 -50h-2l-1 2q0 4 29 29q31 20 40 22zM1598 1840q18 -4 61 -41l7 -10v0l-1 -2q-18 3 -65 46l-4 5v1h2v1zM1627 1840h1q27 -11 69 -49l3 -3v-2q-18 7 -71 50l-2 3v1zM1644 1840q37 -22 74 -54v-1q-56 40 -74 54v1zM648 1839v-2v0q-11 -20 -42 -40
q-13 -9 -21 -10q-2 0 -2 3h-1q10 22 53 46q6 3 13 3zM702 1839l3 -3v-1q0 -12 -38 -41l-19 -7q-3 0 -5 5q0 13 37 39q13 8 22 8zM768 1839q3 0 5 -4q0 -24 -43 -46l-8 -1q-4 0 -7 5q0 18 38 42q10 4 15 4zM842 1839q10 -2 10 -10q0 -16 -25 -35q-10 -6 -19 -6q-11 2 -11 9
q0 15 26 35q10 6 19 7zM925 1839q11 0 13 -15q0 -16 -21 -31q-9 -5 -16 -5q-15 1 -15 14q0 19 30 35zM1011 1839q16 0 18 -20q0 -24 -27 -31h-3q-19 2 -19 19q9 32 31 32zM1100 1839q24 -4 24 -27q-3 -24 -24 -24q-24 4 -24 22v0v1q4 28 24 28zM1190 1839q30 -8 30 -33
q-3 -18 -18 -18v0q-22 0 -31 25v6q3 20 19 20zM1276 1839q20 0 36 -28l2 -9q0 -13 -16 -14q-20 0 -34 28l-2 9q3 14 14 14zM1359 1839q17 0 38 -26q6 -9 6 -16q0 -8 -11 -9q-22 0 -42 32l-1 9q0 10 10 10zM1435 1839q17 0 46 -33q4 -9 4 -13q-2 -5 -7 -5q-23 0 -49 36l-2 10
q0 4 8 5zM1500 1839q28 -6 55 -39l2 -9q0 -2 -5 -4q-28 7 -52 38l-5 10q0 4 5 4zM1555 1839q24 -5 59 -40l4 -9v-1q0 -1 -3 -2q-24 6 -58 41q-5 6 -5 9q0 2 3 2zM421 1734h2q-31 -33 -66 -66v1q0 6 64 65zM1778 1734h1q55 -49 64 -65v-1q-65 62 -65 66zM440 1733h1v-2
q-3 -11 -51 -56q-8 -5 -11 -5v0v0q7 22 56 61zM1759 1733h1q36 -23 61 -60v-3v0q-15 3 -57 54l-5 7v2zM479 1733v0l1 -3q-11 -29 -53 -59l-6 -1l-3 2v0q6 22 45 53q10 8 16 8zM533 1733q3 -1 3 -5q-5 -24 -41 -53q-11 -5 -16 -5q-5 2 -5 5q8 26 43 52q11 6 16 6zM601 1733
q7 0 8 -8q0 -21 -38 -50q-10 -5 -16 -5t-7 9q4 24 35 46q12 8 18 8zM683 1733q12 -2 12 -11v-1q0 -15 -17 -33q-18 -18 -32 -18q-11 0 -11 13q0 20 33 44q10 6 15 6zM778 1733q13 0 15 -17q0 -23 -30 -42q-4 -3 -14 -4q-16 2 -16 16v1q0 13 14 29q18 17 31 17zM881 1733
q16 0 19 -22q0 -20 -23 -37q-9 -4 -17 -4q-17 0 -20 21q0 23 31 40zM990 1733q19 0 24 -28q-8 -35 -36 -35q-24 4 -24 24v1q0 24 27 36zM1101 1733q18 0 27 -24q2 -3 2 -9q-5 -30 -30 -30q-19 0 -28 21q-1 4 -1 9v2q0 21 23 30zM1212 1733q22 0 33 -29l2 -9q0 -21 -26 -25
q-21 0 -33 28l-1 8q4 27 25 27zM1321 1733q18 0 35 -26q2 -4 5 -16q0 -19 -22 -21q-20 0 -37 29l-1 13q2 21 20 21zM1423 1733q18 0 38 -28q7 -12 7 -19q0 -14 -17 -16q-18 0 -37 27q-6 10 -6 19q0 17 15 17zM1517 1733q20 0 44 -35l5 -16q-2 -12 -12 -12q-20 0 -42 32
q-7 12 -7 19q2 12 12 12zM1600 1733q16 0 43 -32q9 -13 9 -23q-1 -8 -8 -8q-18 0 -45 36q-6 10 -8 18q0 9 9 9zM1669 1733q12 0 41 -30q16 -19 16 -29q-2 -4 -6 -4q-20 3 -46 38q-10 14 -10 21q1 4 5 4zM1721 1733v0q17 0 55 -46q6 -11 6 -16l-3 -1q-27 10 -58 55q0 4 -1 4z
M304 1605h2v-1q-30 -48 -52 -73v2q14 29 50 72zM328 1605l2 -2q-7 -26 -43 -66q-5 -5 -9 -5l-1 4q9 26 37 58q11 11 14 11zM372 1605q4 -2 4 -5q-8 -32 -33 -56q-9 -10 -17 -12q-4 1 -4 3v2q0 24 39 62q8 6 11 6zM435 1605q8 -3 8 -9q0 -21 -31 -54q-13 -10 -19 -10t-7 10
q0 26 37 58q9 5 12 5zM518 1605q8 -3 8 -9l1 -6v-1q0 -24 -31 -51q-10 -6 -17 -6q-11 3 -11 14q0 24 30 51q12 8 20 8zM614 1605q15 -3 15 -20q0 -27 -33 -50l-14 -3q-12 0 -16 18v2q0 24 31 47q11 6 17 6zM723 1605q18 0 20 -23v-2q0 -24 -26 -43q0 -2 -19 -5q-19 5 -19 18
l-1 5q0 28 35 47zM844 1605q20 0 24 -28v-1q0 -28 -32 -43l-10 -1q-21 0 -25 28v1q0 17 20 35q11 8 23 9zM971 1605q18 0 27 -23l2 -11q0 -25 -28 -37l-11 -2q-19 0 -28 22q-1 3 -1 9q0 27 27 39zM1101 1605q21 0 32 -28l2 -9q0 -25 -27 -35l-8 -1q-21 0 -32 25l-2 10
q0 29 31 38h4zM1232 1605q15 0 30 -19q7 -11 7 -22v-1q-5 -31 -31 -31q-20 0 -34 24q-3 9 -3 17q4 32 31 32zM1358 1605q19 0 37 -27q4 -12 4 -17v-3q-4 -26 -26 -26t-38 30l-3 12v3q4 28 26 28zM1478 1605q16 0 35 -23q9 -17 9 -27q-3 -23 -22 -23q-16 0 -34 22
q-9 16 -9 28q4 23 21 23zM1587 1605q22 0 43 -38q4 -10 4 -15v-2q-2 -18 -17 -18q-20 0 -40 33q-3 7 -6 19q2 21 16 21zM1684 1605q19 0 42 -36q4 -7 7 -23q-2 -14 -13 -14q-18 0 -40 35q-7 15 -7 24q0 12 11 14zM1765 1605q17 0 42 -39q8 -15 8 -25q-2 -9 -8 -9
q-16 0 -41 38q-8 18 -8 26q1 9 7 9zM1829 1605q28 -13 48 -58l2 -10q0 -3 -5 -5q-25 8 -49 61v7q0 5 4 5zM1871 1605h2q23 -18 36 -41q14 -22 14 -31l-3 -1q-16 11 -33 37q-16 26 -16 36zM1895 1605h1q39 -46 50 -73v0q-26 29 -51 71v2zM214 1461v-1q0 -13 -38 -83v-1h-1v1
q12 41 36 82zM1986 1460h1q21 -30 37 -75l1 -8q-8 6 -35 71zM240 1459l1 -6q-12 -51 -36 -74l-3 -1q-2 3 -2 6q13 53 36 74zM1912 1459q15 0 36 -47q5 -17 5 -24q0 -8 -7 -9q-8 0 -23 22q-15 24 -16 45v3q0 8 5 10zM1962 1459q12 -6 29 -45q9 -21 9 -30q0 -3 -2 -6
q-6 0 -21 26q-18 38 -18 51q0 4 3 4zM287 1458h2q3 0 5 -10q-3 -29 -25 -60q-10 -9 -15 -9h-1q-5 2 -5 9v3q0 27 31 64zM359 1458q10 0 10 -15v-1q0 -30 -29 -58q-6 -5 -13 -5q-9 0 -10 16v1q0 31 32 59q4 3 10 3zM449 1458q14 0 16 -21q0 -16 -12 -36q-16 -22 -31 -22
q-14 0 -16 20v2q0 28 29 52q7 5 14 5zM557 1458q14 0 20 -16l1 -8v-3q0 -29 -30 -49q-8 -3 -13 -3q-18 0 -22 24q0 33 33 53q4 2 11 2zM678 1458h2q21 0 25 -27v-3q0 -33 -35 -48l-8 -1q-22 0 -26 29q0 32 35 49zM812 1458h3q24 0 29 -32q0 -32 -32 -46q-4 -1 -11 -1
q-26 0 -30 33q0 29 32 44zM956 1458q23 0 32 -27l2 -13q0 -15 -18 -32q-12 -7 -24 -7q-23 0 -32 26l-2 8q0 33 35 45h7zM1098 1458h3q25 0 36 -29q1 -4 1 -11q-6 -39 -39 -39q-27 0 -36 34l-1 5q0 16 15 32q11 8 21 8zM1244 1458h3q25 0 37 -32l2 -9v-3q0 -24 -26 -34
l-10 -1q-25 0 -37 31q-2 4 -2 13q0 24 26 34zM1386 1458h2q25 0 39 -32q3 -8 3 -13q-4 -34 -31 -34q-26 0 -40 31l-2 13v3q4 32 29 32zM1520 1458h2q27 0 42 -41l1 -8q-4 -30 -27 -30q-27 0 -42 38l-1 12q4 29 25 29zM1643 1458q24 0 40 -36l4 -18q-3 -25 -22 -25
q-24 0 -40 39l-3 15q3 25 21 25zM1751 1458q22 0 39 -37q3 -7 5 -22q-4 -20 -17 -20q-23 0 -39 42q-3 8 -3 14v4q0 17 14 19h1zM1842 1458q18 0 38 -43l4 -19q0 -17 -12 -17q-16 0 -35 39q-6 18 -6 24q0 16 11 16zM148 1299l1 -2q-14 -69 -25 -84v2q0 21 21 84h1h2z
M2052 1299h1q11 -17 23 -79v-7v0h-1q-9 14 -23 79v7zM174 1299h2q2 0 4 -10q0 -35 -22 -73l-3 -2h-3q-2 0 -3 12q0 35 22 71zM229 1299q6 0 8 -19q0 -34 -22 -62l-7 -5q-9 0 -11 22q0 24 18 54q7 10 14 10zM304 1299h1q12 0 14 -25v-2q0 -34 -26 -55l-9 -4q-14 5 -14 28
q0 31 25 55zM400 1299h2q20 -5 20 -30q0 -36 -30 -54l-8 -2q-20 6 -20 29v4q0 29 26 49q6 4 10 4zM515 1299h4q17 0 23 -26l1 -7q0 -35 -30 -50l-10 -3q-26 6 -26 35q0 23 20 42q9 8 18 9zM646 1299h6q17 0 26 -26q1 -3 1 -11q0 -33 -33 -47l-9 -2q-18 0 -28 26l-2 10
q0 14 10 32q17 18 29 18zM789 1299h5q27 0 33 -37v-4q0 -25 -27 -41q-9 -4 -15 -4q-23 0 -33 29l-2 10q0 29 30 44zM948 1299q20 0 33 -28l1 -15q0 -25 -29 -40l-13 -3q-24 0 -36 29l-1 12q0 33 35 45h10zM1096 1299h6q25 0 37 -32q2 -4 2 -11q0 -29 -30 -40q-7 -3 -12 -3
q-23 0 -37 30l-2 10v6q0 27 32 39zM1253 1299h5q25 0 38 -32q2 -7 2 -12v-2q0 -27 -29 -38l-10 -2q-24 0 -39 31l-2 14q0 24 25 38zM1412 1299q19 0 34 -28q4 -10 4 -17v-2q-4 -39 -36 -39q-21 0 -36 28q-3 7 -5 17q0 32 30 41h9zM1549 1299h6q18 0 34 -29q4 -13 4 -18v-4
q0 -23 -23 -33l-8 -2q-21 0 -36 29q-4 8 -5 18q0 26 21 37zM1682 1299h4q19 0 34 -34q3 -10 3 -20q-5 -32 -26 -32q-23 0 -38 39l-2 12q0 30 25 35zM1799 1299h1q19 0 33 -35q2 -6 4 -19q-4 -32 -21 -32q-19 0 -34 34l-3 18v7q3 27 20 27zM1896 1299h2q15 0 29 -37l3 -18v-5
q-2 -26 -14 -26q-13 0 -27 27q-8 21 -8 33q3 26 15 26zM1971 1299h1q17 0 30 -53l1 -12q-2 -21 -9 -21q-14 0 -26 39q-4 15 -4 25v5q0 12 7 17zM2023 1299h1q14 0 26 -62l1 -13q0 -10 -3 -10h-2q-17 13 -26 73zM2089 1132q7 -4 11 -75l-2 -15h-1q-9 37 -9 78zM109 1131h1
q2 0 2 -11v-1q0 -43 -9 -77h-1l-2 18q1 32 9 71zM374 1131q17 0 25 -29l1 -11q0 -39 -30 -48h-2q-21 0 -26 40q0 25 20 44zM495 1131q10 0 21 -12q8 -10 10 -26q0 -37 -30 -50h-6q-25 0 -31 37v6q0 25 24 42zM632 1131q34 -8 34 -45q0 -23 -23 -39q-7 -4 -16 -4
q-22 0 -33 29l-2 13q0 25 24 41q10 5 16 5zM780 1131q26 0 37 -33l2 -11q0 -27 -29 -42l-13 -2q-25 0 -36 31l-2 8q0 36 35 48zM938 1131q41 -8 41 -46q0 -20 -22 -37q-12 -5 -20 -5q-27 0 -39 32l-1 9v6q0 25 30 38zM1100 1131q26 0 40 -31l2 -13q0 -28 -29 -42l-12 -2
q-30 0 -42 34v10q0 31 35 43zM1262 1131q26 0 39 -30l4 -15q0 -26 -28 -41l-14 -2q-29 0 -40 35l-1 9q0 31 33 43zM1420 1131q25 0 39 -33l2 -16q0 -25 -29 -38l-9 -1q-28 0 -40 35l-1 10q0 30 32 42zM1570 1131q21 0 35 -30l3 -14v-4q0 -31 -32 -40h-4q-21 0 -34 28
q-3 5 -4 18q0 28 29 41zM1706 1131q20 0 33 -32l3 -18q-7 -38 -32 -38q-22 0 -33 34l-2 9q0 39 31 45zM1826 1131q16 0 28 -27q4 -10 4 -25q-5 -36 -27 -36q-16 0 -27 27q-3 8 -4 21q5 39 26 39v1zM140 1130q7 -5 7 -26q0 -47 -15 -61v0q-8 5 -8 29q0 38 13 58h3zM192 1130
h4q12 -9 12 -33v-3q0 -35 -18 -51h-2q-13 0 -15 31v6q0 36 19 50zM274 1130q16 0 19 -40q0 -19 -13 -39q-7 -8 -13 -8q-18 0 -21 38q3 41 25 49h3zM1926 1130h3q16 0 25 -41v-11q0 -29 -20 -35q-21 0 -27 47v6q5 34 19 34zM2007 1130q14 0 20 -45l1 -9q0 -27 -15 -33
q-12 0 -19 37l-2 14q2 36 15 36zM2060 1130h2q12 -7 14 -60q-1 -27 -8 -27q-11 0 -15 59v2q2 26 7 26zM102 958v0q7 -5 10 -77v-6q0 -4 -2 -5h-1q-9 43 -9 72zM267 958q16 0 25 -36l1 -11v-4v-1q-2 -31 -18 -35l-2 -1q-15 0 -24 32q-3 8 -3 17v1q0 32 21 38zM368 958
q21 0 31 -38l1 -12q0 -28 -22 -37l-3 -1q-23 0 -32 40l-1 8q5 39 25 39zM490 958q22 0 33 -33q2 -3 2 -9v-6l1 -1q-7 -39 -32 -39q-22 0 -33 34l-2 10v5q0 32 31 39zM628 958q24 0 37 -33l1 -12q0 -28 -24 -41l-11 -2q-25 0 -37 35l-2 11q0 31 30 41zM777 958q28 0 40 -34
l2 -12q0 -28 -29 -40l-10 -2q-26 0 -39 34l-2 14q0 15 17 32q13 8 21 8zM936 958q29 0 41 -32l2 -12q0 -30 -31 -42l-10 -2q-27 0 -39 32q-2 4 -2 9v6q0 24 23 36q5 4 16 5zM1100 958q27 0 41 -32l1 -12q0 -27 -29 -42l-13 -2q-25 0 -39 30q-2 8 -2 15q0 31 35 42zM1264 958
q24 0 37 -28l4 -15q-3 -17 -10 -28q-16 -17 -33 -17q-27 0 -39 32l-1 11q0 26 24 40q9 5 18 5zM1423 958q22 0 35 -26l3 -15q0 -32 -30 -45q-3 -1 -12 -2q-21 0 -34 26q-3 11 -3 18q0 31 34 43zM1574 958q18 0 30 -24q4 -8 4 -16v-3q0 -32 -33 -44l-5 -1q-24 0 -34 29l-2 13
q0 24 23 41q8 4 17 5zM1711 958q19 0 28 -26l3 -12q0 -37 -30 -49l-6 -1q-21 0 -30 32l-1 14q0 16 18 36q12 6 18 6zM1832 958q15 0 23 -23q3 -9 3 -15q0 -36 -26 -49l-5 -1q-20 0 -26 34l-1 5q0 35 28 48zM1933 958q16 0 21 -34v-9q-4 -36 -22 -43l-4 -2q-16 0 -21 35v5
q3 40 24 47zM2098 958l2 -15q0 -33 -9 -73h-2l-1 11q0 42 9 77h1zM131 957h2q14 -16 14 -60q-1 -22 -6 -26h-4q-13 18 -13 59q2 27 7 27zM184 957h5q15 -11 15 -25q2 0 4 -25v-3q-2 -33 -14 -33h-1q-14 0 -20 46v11q0 20 11 29zM2011 957h5q6 0 11 -23l1 -13q0 -31 -17 -49
l-1 -1h-6q-6 0 -11 23l-1 6l1 1v4l-1 1h1v4q0 33 18 47zM2067 957h3q5 -2 6 -29q0 -40 -13 -57h-4q-4 2 -6 27q0 41 14 59zM124 787v0q12 -16 25 -83l-1 -3h-1q-9 11 -23 81v5zM153 787q11 0 24 -54q3 -13 3 -23q-2 -9 -4 -9h-1q-10 0 -24 52l-2 22q0 9 4 12zM284 787
q13 0 27 -26q8 -18 8 -34v0q0 -25 -15 -25h-1q-17 0 -30 39q-3 10 -3 20q0 21 14 26zM385 787q14 -3 25 -17q12 -21 12 -39q-3 -29 -20 -29h-1q-25 0 -37 48v9q4 28 20 28h1zM503 787q19 0 35 -27q5 -14 5 -25v-2q0 -26 -25 -32q-25 0 -39 38l-2 13q0 23 18 33zM639 787
q15 0 31 -20q9 -13 9 -30q0 -24 -23 -34l-7 -2q-24 0 -39 34q-3 10 -3 18q7 34 32 34zM786 787q12 0 28 -13q13 -17 13 -32v-3q0 -25 -26 -36l-8 -2q-28 0 -41 36l-2 11q0 27 27 38zM941 787q14 -1 26 -10q15 -16 15 -33q0 -31 -31 -42l-6 -1q-27 0 -40 31q-2 7 -2 12v3
q0 27 27 38zM1101 787q17 -3 25 -10q15 -14 15 -33q0 -29 -31 -41l-10 -2q-27 0 -39 34l-2 9q0 30 33 42zM1260 787q19 -3 27 -12q11 -14 11 -28q0 -33 -36 -45l-5 -1q-27 0 -38 31l-1 11q0 24 26 40zM1415 787q15 -2 21 -8q14 -13 14 -30v-2q0 -27 -28 -42l-14 -4
q-22 0 -33 27l-2 15q3 20 13 30q13 13 28 14h1zM1562 787q12 0 24 -13q7 -10 7 -23v-1q0 -33 -33 -47l-8 -2q-26 0 -31 37q0 32 31 47zM1698 787q25 -6 25 -32v-2q0 -33 -32 -50l-7 -1h-2q-15 0 -22 20q-3 8 -3 15q0 26 26 46zM1816 787q8 0 17 -12q4 -13 4 -21
q-5 -26 -14 -38q-12 -14 -24 -14h-1q-15 0 -19 27v7q0 27 25 47zM1915 787q12 0 15 -24v-6q0 -26 -22 -50q-5 -5 -11 -5h-1q-12 0 -15 25v0q0 34 26 57zM2046 787q5 0 5 -11q0 -36 -22 -72q-3 -3 -5 -3q-3 4 -4 13q5 42 17 63q6 8 9 10zM208 787q13 0 27 -46l2 -20
q-2 -19 -7 -19h-2q-18 0 -30 55l-1 8q0 22 11 22zM1994 787q9 -4 9 -20q0 -37 -25 -63l-7 -2q-6 0 -7 17v5q7 58 30 63zM2076 787v0v-1q0 -20 -20 -80l-3 -5h-1v2q0 20 21 82zM175 622h1q18 -26 35 -72l3 -10v-1q-23 33 -38 80zM203 622q10 -1 31 -48q7 -21 7 -28v-2
q0 -2 -3 -2q-12 6 -29 44q-9 21 -9 33q1 3 3 3zM254 622q12 -3 26 -27q14 -29 14 -43q-2 -10 -6 -10q-15 0 -36 48q-4 13 -4 20v1q0 11 6 11zM328 622q14 0 33 -32q8 -20 8 -31v-1q-1 -16 -11 -16q-13 0 -33 32q-8 19 -8 31v1q0 16 11 16zM423 622q19 0 38 -38q4 -13 4 -21
q-3 -21 -17 -21q-19 0 -38 38q-4 12 -4 19v2q2 21 16 21h1zM535 622q22 0 39 -36l4 -16v-3q-3 -25 -21 -25h-2q-14 0 -33 24q-9 16 -9 33q4 23 22 23zM663 622q24 0 40 -34q2 -10 2 -18q-4 -28 -26 -28q-23 0 -40 35l-3 14v2q0 20 18 27zM803 622q24 0 39 -32l2 -13
q-4 -35 -32 -35q-22 0 -39 32q-2 10 -2 17q0 20 21 29zM950 622q24 0 38 -31l2 -10q-5 -39 -35 -39q-28 0 -40 36l-1 9q0 19 22 33zM1100 622q28 0 37 -32l1 -9q-7 -39 -39 -39q-22 0 -35 28l-2 12q0 27 29 38q3 2 9 2zM1253 622q21 0 31 -25l2 -11v-3q0 -24 -28 -39l-13 -2
q-22 0 -32 26l-2 10q0 32 33 43zM1400 622q23 0 30 -31q0 -31 -31 -47l-13 -2q-19 0 -28 23q-1 4 -1 9v4q0 24 25 39q9 5 18 5zM1539 622q21 0 26 -31q-4 -21 -13 -32q-17 -17 -31 -17q-22 0 -26 29l1 6h-1q1 14 14 30q14 15 30 15zM1666 622q17 0 21 -26q0 -23 -24 -47
q-13 -7 -21 -7q-15 0 -20 24q0 33 31 53q8 3 13 3zM1778 622q14 0 17 -21q0 -14 -12 -35q-17 -24 -32 -24q-12 0 -16 21q0 27 26 52q7 6 17 7zM1873 622q8 0 11 -17q0 -24 -27 -56q-11 -7 -15 -7q-11 3 -11 17q0 23 24 53q11 10 18 10zM1946 622q5 0 7 -10q0 -28 -30 -64
q-7 -6 -11 -6q-5 0 -5 11v2q0 24 28 61q8 6 11 6zM1998 622l2 -5q-3 -29 -30 -69q-5 -5 -8 -6q-3 1 -3 4q3 31 33 73q3 3 6 3zM2025 622q0 -14 -37 -82h-2q4 20 37 82h2zM1946 470h1v-1q-14 -28 -48 -71l-4 -3h-1v1q29 48 52 74zM254 469v0q28 -31 52 -74v-1q-26 28 -51 70
l-1 3v2zM280 469q20 -16 34 -39q10 -16 16 -32l-1 -3h-2q-13 8 -34 38q-16 26 -16 34zM326 469q29 -14 49 -62q0 -5 1 -5q-1 -5 -4 -7q-30 14 -49 59q-1 4 -1 9t4 6zM1873 469q4 0 6 -6q-2 -21 -32 -55q-11 -10 -18 -13q-4 1 -4 7q3 23 34 57q7 7 14 10zM1920 469l3 -2
q0 -18 -43 -67q-6 -5 -9 -5l-1 3q6 21 38 60q4 5 12 11zM394 468q18 0 43 -44l6 -18q-2 -10 -8 -10q-18 0 -45 45q-4 11 -4 17v2q0 8 8 8zM480 468q20 0 41 -35q6 -12 6 -24q-1 -13 -11 -13q-19 0 -41 35q-7 12 -7 24q0 13 12 13zM583 468q24 0 43 -38q3 -8 3 -16
q-2 -18 -16 -18v0q-23 0 -43 38q-4 11 -4 16q2 18 17 18zM700 468q24 0 40 -33q3 -8 3 -15v-1q-2 -23 -21 -23q-23 0 -41 36q-3 9 -3 15q0 19 22 21zM827 468q29 0 41 -37v-8q-4 -27 -26 -27q-23 0 -39 33l-2 12q3 27 26 27zM961 468q27 0 37 -30l2 -8q0 -28 -28 -34h-2
q-25 0 -37 32q-1 9 -2 9q5 31 30 31zM1101 468q24 0 33 -28l1 -7q0 -21 -21 -34q-8 -3 -14 -3q-23 0 -33 28l-1 5v4q0 24 24 34q4 1 11 1zM1239 468q27 0 30 -33q0 -23 -28 -37l-10 -2q-26 0 -30 33q0 29 33 39h5zM1373 468h1q22 0 25 -26v-2q0 -25 -28 -41q-7 -3 -14 -3
q-21 0 -25 27v4q0 22 28 39zM1502 468q17 0 20 -23q0 -17 -20 -38q-14 -11 -25 -11q-17 0 -20 23q0 28 30 46q6 3 15 3zM1618 468q16 0 16 -18v0q0 -30 -38 -52l-10 -2q-12 0 -15 19q0 25 30 48q10 5 17 5zM1721 468q10 0 11 -12v-3q0 -25 -35 -53q-9 -4 -14 -4
q-10 0 -10 16q0 21 30 50q12 6 18 6zM1807 468q7 0 8 -10q0 -17 -25 -46q-16 -16 -26 -16q-5 0 -6 10q1 20 24 47q16 15 25 15zM1821 332l1 -2q-27 -42 -62 -63l-1 1v1q8 18 56 60zM358 331q37 -32 64 -64h-1q-45 39 -63 63v1zM379 331h2q36 -27 59 -59l1 -4l-1 -1
q-33 20 -61 61v3zM421 331q30 -13 58 -57l1 -5l-1 -2q-29 11 -58 53l-3 7q1 4 3 4zM480 331q16 0 50 -42q6 -12 6 -16q0 -5 -5 -5q-17 0 -50 41q-7 13 -7 17q0 3 6 5zM1779 331q3 -1 3 -3q-7 -24 -51 -57l-8 -4l-2 3h-1q12 30 55 60zM1842 331v-1q-18 -25 -63 -63h-1
q23 27 64 64zM557 330q17 0 43 -33q9 -13 9 -22q0 -6 -8 -7q-18 0 -45 34q-8 13 -8 20q0 8 9 8zM647 330q24 0 46 -40l2 -11q0 -11 -12 -11q-19 0 -42 32q-6 10 -6 19q0 11 12 11zM750 330q20 0 39 -30q4 -10 4 -16q0 -16 -16 -16q-21 0 -41 33q-3 8 -3 13q0 16 17 16z
M860 330q26 0 39 -32l1 -9q-3 -21 -20 -21q-23 0 -38 33l-2 9q2 20 20 20zM979 330q24 0 34 -29l1 -5q-4 -28 -26 -28q-21 0 -33 28l-1 11q0 20 25 23zM1100 330q26 0 30 -31q-6 -31 -31 -31q-19 0 -27 24l-2 9q0 17 20 28zM1222 330q24 -2 24 -24v-2q0 -23 -27 -35l-9 -1
q-19 0 -23 27q6 35 35 35zM1340 330q20 0 20 -20q0 -25 -31 -40l-10 -2q-15 0 -19 21q0 22 27 39q7 2 13 2zM1452 330q16 -1 16 -16q0 -21 -32 -43l-13 -3q-14 0 -16 16q0 20 25 40q10 6 20 6zM1555 330q10 0 11 -13q0 -14 -26 -38q-13 -11 -25 -11q-8 0 -10 12q0 20 30 43
q9 7 20 7zM1645 330q7 0 7 -8v-1q0 -19 -37 -47q-9 -6 -16 -6t-8 8q10 31 38 50q10 4 16 4zM1720 330h2q2 0 4 -5q-9 -28 -42 -50q-9 -7 -15 -7h-2q-3 2 -3 5q10 32 48 56zM482 215h1q49 -35 72 -53h-1q-40 24 -72 53zM1717 215h1q-33 -29 -72 -53h-1q28 22 72 53zM500 214
h2q23 -12 71 -51v-2q-30 11 -71 50l-2 2v1zM1698 214h2v-1q-26 -27 -55 -43q-14 -9 -18 -9v1q41 36 71 52zM535 213h1q15 -1 64 -45l4 -5v-1h-2v-1q-33 11 -67 49v3zM584 213h1q27 -6 60 -44q3 -3 3 -5v-2h-2v-1q-16 1 -54 34q-10 11 -10 16zM648 213q26 -5 52 -36
q5 -8 5 -12q0 -3 -4 -3v-1q-32 9 -56 40l-2 8q1 4 5 4zM724 213q17 0 42 -29q7 -9 7 -18v-1q-1 -3 -5 -3h-3q-17 0 -44 30q-5 8 -6 15q0 5 9 6zM808 213q21 0 41 -31l3 -10q0 -10 -11 -10q-19 0 -40 29q-4 8 -4 12q0 9 11 10zM902 213q10 0 23 -11q13 -14 13 -25v-2
q-2 -13 -13 -13q-23 0 -37 29l-2 8q0 13 16 14zM1000 213q20 0 29 -27v-5q-1 -19 -19 -19q-19 0 -29 27l-1 6q0 15 20 18zM1101 213q16 0 23 -20v-5q-3 -26 -25 -26q-19 0 -23 27q0 20 25 24zM1202 213q16 0 18 -19q-7 -32 -31 -32q-16 0 -18 20v1q0 19 24 29zM1300 213
q14 0 14 -15q0 -19 -29 -34l-9 -2q-14 0 -14 15q0 21 29 34zM1393 213q9 0 10 -10q0 -20 -36 -39l-9 -2q-9 0 -9 10q0 19 30 38q9 3 14 3zM1478 213q7 -1 7 -6q0 -19 -39 -42l-12 -4q-7 0 -7 7q0 17 37 42zM1552 213q4 0 5 -3v-2q0 -15 -45 -43l-12 -4q-4 0 -5 4q0 13 39 42
q13 6 18 6zM1616 213l2 -1v-1q-7 -21 -48 -44q-10 -5 -14 -5h-4v2q6 15 46 43q12 6 18 6zM1664 213h1l1 -2q-10 -15 -28 -27q-23 -17 -39 -23l-3 1v1q32 34 58 46q6 4 10 4zM641 119h1q4 0 78 -38v-1h-1q-10 0 -78 37v2zM666 119h1q11 0 76 -38v-1h-2q-24 5 -72 36l-3 2v1z
M704 119q15 0 67 -35l2 -3v-2q-18 4 -63 31l-6 7v2zM754 119q25 -5 60 -36h1v-3q-21 0 -62 32l-2 6zM812 119q19 -2 49 -31l3 -5q-1 -3 -4 -3q-34 10 -52 32l-1 4v1q0 1 5 2zM877 119q16 0 39 -26l4 -8q0 -5 -7 -5q-15 0 -40 26q-3 4 -3 8v1q2 4 7 4zM1252 119q7 0 10 -8
q0 -13 -27 -29l-8 -2q-6 0 -8 7q0 16 26 30zM1324 119q5 -1 7 -5q0 -11 -30 -29q-11 -5 -15 -5q-5 0 -5 5v1q5 15 31 30zM1389 119q4 -1 4 -2v-1q0 -14 -47 -35l-6 -1l-3 1v2q4 15 45 34zM1447 119l2 -1q0 -13 -54 -36l-9 -2l-1 1q14 17 41 31q16 7 21 7zM1496 119v-2
q-17 -20 -69 -38v2q15 14 54 34zM1534 119v-1q-11 -11 -67 -36l-10 -2q41 26 71 38zM1559 119v-2q-41 -24 -78 -37h-1q55 31 79 39zM947 118h1q21 0 33 -29v-2q-1 -7 -9 -7q-12 0 -29 19q-5 6 -5 12q0 7 9 7zM1022 118h1q20 0 25 -26q-3 -12 -12 -12q-15 0 -25 21l-1 7
q0 9 12 10zM1098 118h4q13 0 17 -18q-6 -20 -19 -20q-15 0 -18 21q3 17 16 17zM1177 118h1q12 -1 12 -12q0 -17 -24 -26h-1q-11 0 -13 14q0 11 15 22q4 2 10 2zM635 115h2l53 -27h-2q-53 25 -53 27zM1561 113q0 -3 -50 -25h-1q9 6 51 25zM694 87h1l2 -2h-2zM1506 87
q-1 -3 -5 -3q1 3 5 3zM812 51h1l74 -23v0h-1l-26 5h-1v-1q18 -4 18 -6h-1q-32 6 -75 20l-3 3h1l44 -12h1v1q-26 8 -32 13zM836 51h1q22 -5 72 -23l-1 -1v-1q-57 14 -72 25zM868 51h1q10 0 65 -24v-1h-1q-41 10 -62 21q0 2 -3 2v2zM907 51q12 0 55 -23v-1l-1 -1h-1
q-14 1 -50 19l-4 4zM952 51q27 -8 42 -23l-1 -1v-1q-20 3 -43 19l-1 1v4zM998 51q13 0 31 -19v-3q0 -2 -3 -3q-24 7 -32 19v3zM1248 51q4 -1 4 -2q0 -8 -37 -21l-8 -2l-1 1v1q13 14 42 23zM1293 51l1 -1v-1q-22 -17 -55 -23v1q25 18 54 24zM1332 51v-1v-1q-16 -11 -64 -23
h-1q13 9 62 25h3zM1364 51q-14 -11 -74 -25h-1v1q67 24 75 24zM1388 51q-1 -3 -32 -13v-1h2l45 13v-1q0 -5 -71 -21l-9 -2q0 2 13 5v1h-2l-20 -4h-1v0zM1049 50q19 -4 19 -18q-1 -4 -4 -5h-1q-14 0 -21 18q0 5 7 5zM1100 50q11 0 11 -12q0 -9 -12 -11q-8 0 -10 14q2 9 11 9z
M1153 50q5 -1 5 -5q0 -10 -17 -17l-4 -1q-5 0 -5 6q6 17 20 17h1zM1202 50q2 0 4 -2q0 -9 -26 -20l-6 -2l-3 2v0q13 22 31 22zM845 37v-1l12 -3h1v1l-12 3h-1zM1336 32v0h2l17 4v1h-2zM959 12l13 -1v0h1l3 -1l2 1l3 -1l1 1l4 -1l9 1l17 -3h1v1h-2v2q15 -4 22 -4h1v1
q-4 1 -4 3v0l29 -6h1v1q-3 0 -9 5h1l30 -9h1v1q-4 1 -9 7v1h2v0q5 0 16 -10l-1 -1h-1l-6 2q0 -2 -4 -2h-5l-1 1l-1 -1q-75 3 -92 8l-1 -1h-1l-21 4h1v1zM1241 12l1 -1v0l-22 -4v1q0 -3 -92 -8v1h-1l-5 -1h-3l-2 2l31 9h1v-1l-9 -4v-1h1l28 6v0q0 -3 -3 -3v-1h2q5 0 16 4v-1
l1 1h3v-2q-4 0 -4 -2l22 4l9 -1l2 1l1 -1h1l2 1l2 -1l3 1h3zM1124 11h2v-2q-4 -5 -17 -9l-1 1v1q10 8 16 9zM1101 11h1q1 -1 3 -5q0 -2 -5 -4q-2 0 -5 4q1 5 6 5z" />
    <glyph glyph-name="A" unicode="A" horiz-adv-x="2050" 
d="M0 0l1025 2050l1026 -2050h-57l-969 1938l-969 -1938h-56zM1604 0l-578 1156l-578 -1156h-29l606 1212l606 -1212h-27zM1799 0l-774 1547l-773 -1547h-28l801 1602l802 -1602h-28z" />
    <glyph glyph-name="B" unicode="B" horiz-adv-x="1600" 
d="M800 376v-1h-326v1249l326 1v1q82 0 159.5 -41.5t121.5 -120t44 -163.5q0 -84 -43 -161.5t-120 -120.5q-21 -12 -35 -18q13 -6 33 -17q77 -42 121 -120.5t44 -163.5q0 -84 -43 -161.5t-120.5 -120t-161.5 -42.5zM800 1l-700 -1v2000h700v1q177 0 344.5 -90t261.5 -258.5
t94 -351.5q0 -156 -68 -300q68 -145 68 -301q0 -182 -92.5 -348.5t-259.5 -258.5t-348 -92zM800 1951v-1l-651 -1v-1899h651v1q168 0 323 85.5t241 240t86 323.5q0 125 -48 243l-26 58l26 57q48 117 48 243q0 170 -87.5 326.5t-242.5 240t-320 83.5zM800 201v-1h-501v1599
l501 1v1q127 0 246.5 -64.5t186.5 -184.5t67 -251q0 -130 -66 -249q-15 -27 -33 -52q17 -23 32 -49q67 -120 67 -251q0 -130 -66 -248.5t-185.5 -184.5t-248.5 -66zM800 1776v-1l-476 -1v-1549h476v1q123 0 236 62.5t176 175.5t63 236q0 125 -64 239q-12 21 -26 41l-16 21
l16 20q14 21 27 44q63 112 63 236t-64 238.5t-177.5 175.5t-233.5 61zM800 1601v-1l-301 -1v-1199h301v1q78 0 149.5 39.5t111 110.5t39.5 149q0 79 -40.5 151t-112 111t-147.5 39q78 0 149.5 40t111 111t39.5 149q0 79 -40.5 151t-112 110.5t-147.5 38.5z" />
    <glyph glyph-name="C" unicode="C" horiz-adv-x="1850" 
d="M1651 450l18 -17q-74 -74 -169 -127q-191 -106 -399 -106t-398.5 105.5t-296 295.5t-105.5 398q0 210 107.5 402t298.5 295.5t394 103.5q201 0 392 -103q99 -53 175 -130l-17 -18q-74 75 -170 126q-185 100 -380 100q-197 0 -382 -100t-289 -286.5t-104 -389.5
q0 -201 102 -385.5t287 -286.5t386 -102t386 102q93 51 164 123zM1775 327l36 -36q-93 -93 -212 -159q-238 -132 -499 -132q-259 0 -497 132t-370 369.5t-132 497.5q0 262 134 502.5t373 369.5t492 129q252 0 491 -129q123 -66 219 -163l-35 -35q-91 92 -208 155
q-227 122 -467 122t-467 -122.5t-354.5 -351t-127.5 -477.5q0 -247 125.5 -472.5t351.5 -351t472 -125.5q248 0 474 126q113 63 201 151zM1545 1443l-18 -18q-58 58 -131 98q-144 77 -295 77q-152 0 -295.5 -77.5t-224 -221.5t-80.5 -301t79 -299.5t222 -221.5t299 -79
t299 79q72 40 127 95l17 -17q-57 -58 -132 -99q-149 -83 -311 -83t-311 82.5t-231.5 231t-82.5 311.5t84 313.5t233 231t308 80.5q157 0 307 -80q77 -42 137 -102z" />
    <glyph glyph-name="D" unicode="D" horiz-adv-x="1800" 
d="M700 1625q158 0 307.5 -80.5t233.5 -231t84 -313.5t-82.5 -311.5t-231.5 -231t-311 -82.5v-1h-225v1251h225zM700 399v1q155 0 298.5 79t222.5 221.5t79 299.5t-80.5 301t-224 221.5t-295.5 77.5h-200v-1201h200zM300 200v1600h400q203 0 394 -103t298.5 -295.5
t107.5 -401.5t-105.5 -399t-296.5 -295.5t-398 -105.5v-1zM325 1775v-1550l375 -1v1q201 0 385.5 102.5t287 286.5t102.5 386t-104 388.5t-289.5 286.5t-381.5 100h-375zM100 2000h600q253 0 492.5 -129t373.5 -369.5t134 -502.5q0 -260 -132 -497.5t-370.5 -369.5
t-497.5 -132h-600v2000zM150 1950v-1900l550 -1v1q246 0 472.5 125.5t352 351t125.5 472.5q0 249 -127.5 477.5t-354.5 351t-468 122.5h-550z" />
    <glyph glyph-name="E" unicode="E" horiz-adv-x="1600" 
d="M150 50h1351v-50h-1400v2000h1400v-50l-1351 -1v-1899zM325 975v-750h1176v-25h-1201v1599l1201 1v-25l-1176 -1v-774h975v-25h-975zM1300 825v-25h-800v-400h1001v-25h-1026v450h825zM475 1624l1026 1v-25l-1001 -1v-399h800v-50h-825v474z" />
    <glyph glyph-name="F" unicode="F" horiz-adv-x="1600" 
d="M100 2000h1400v-50l-1350 -1v-1949h-50v2000zM325 1000h975v-25h-975v-975h-25v1799l1200 1v-25l-1175 -1v-774zM1300 825v-25h-800v-800h-25v825h825zM500 1200h800v-50h-826v474l1026 1v-25h-1000v-400z" />
    <glyph glyph-name="G" unicode="G" horiz-adv-x="2200" 
d="M1875 975h-775v25h800q0 -209 -105.5 -399t-296 -295.5t-398.5 -105.5t-398.5 105.5t-296 295.5t-105.5 398q0 210 107.5 402t298.5 295.5t394 103.5q201 0 392 -103q98 -54 175 -130l-18 -18q-74 75 -169 126q-185 100 -380 100q-197 0 -382 -100t-289 -286.5
t-104 -389.5q0 -201 102 -385.5t287 -286.5t386 -102t386 102t287 287q96 173 102 361zM2038 1150h-938v50h979q21 -99 21 -201q0 -260 -132 -497.5t-370 -369.5t-499 -132q-259 0 -497 132t-370 369.5t-132 497.5q0 262 134 502.5t373 369.5t492 129q252 0 491 -129
q123 -66 219 -162l-36 -36q-90 91 -207 155q-227 122 -467 122t-467 -122.5t-354.5 -351t-127.5 -477.5q0 -247 125.5 -472.5t351.5 -351t472 -125.5q248 0 474 125.5t351.5 351t125.5 472.5q0 76 -12 151zM1666 800h-566v25h600q-16 -62 -57 -136q-83 -149 -232 -231.5
t-311 -82.5t-311 82.5t-231.5 231t-82.5 311.5t84 313.5t233 231t308 80.5q157 0 307 -80q76 -42 136 -102l-18 -18q-57 58 -130 98q-144 77 -295 77q-152 0 -295.5 -77.5t-224 -221.5t-80.5 -301t79 -299.5t222 -221.5t299 -79t299 79t222 222q27 48 45 99z" />
    <glyph glyph-name="H" unicode="H" horiz-adv-x="2000" 
d="M150 2000v-2000h-50v2000h50zM325 975v-975h-25v1999h25v-999h1350v999h25v-1999h-25v975h-1350zM500 800v-800h-25v825h1050v-825h-25v800h-1000zM475 2000l25 -1v-799h1000v799l25 1v-850h-1050v850zM1900 2000v-2000h-50v2000h50z" />
    <glyph glyph-name="I" unicode="I" horiz-adv-x="700" 
d="M200 2000v-2000h-50v2000h50zM550 0h-25v2000l25 -1v-1999zM375 0h-25v1999h25v-1999z" />
    <glyph glyph-name="J" unicode="J" horiz-adv-x="700" 
d="M-610 -359q60 -61 137 -104q154 -86 324 -86q169 0 325.5 87.5t240 243t83.5 318.5h50q0 -176 -90 -343.5t-258.5 -261.5t-350.5 -94q-183 0 -349 92q-83 47 -148 112zM325 2000h25v-1900h-25v1900zM150 2000h25v-1900h-25v1900zM549 2000l1 -1900h-50v1900h49z
M-486 -235q44 -45 100 -76q113 -63 237 -63q123 0 237.5 64t175.5 177.5t61 232.5h25q0 -125 -64.5 -244.5t-184.5 -187t-250 -67.5q-131 0 -249 66q-59 33 -106 80zM-362 -111q28 -28 64 -48q71 -40 149 -40t150 40.5t110.5 111.5t38.5 147h25q0 -82 -41.5 -159t-120 -121
t-162.5 -44q-85 0 -162 43q-38 22 -68 52z" />
    <glyph glyph-name="K" unicode="K" horiz-adv-x="1400" 
d="M50 2000v-2000h-50v2000h50zM400 0h-25v2000l25 -1v-1999zM225 0h-25v1999h25v-1999zM928 0h-28l-500 999l501 1001h28l-501 -1001zM1123 0h-27l-500 999l501 1001h28l-501 -1002zM1291 2000h56l-500 -1000l500 -1000h-56l-500 1000z" />
    <glyph glyph-name="L" unicode="L" horiz-adv-x="1600" 
d="M100 2000h49v-1950l1351 -1v-49h-1400v2000zM299 200v1800h25v-1775l1176 -1v-25zM474 375v1625h25v-1600l1001 -1v-25z" />
    <glyph glyph-name="M" unicode="M" horiz-adv-x="2400" 
d="M150 1929v-1929h-50v2050l1101 -1101l1100 1101v-2050h-50v1929l-1050 -1051zM325 1506v-1506h-25v1566l901 -900l900 900v-1566h-25v1506l-875 -876zM500 1084v-1084h-25v1144l726 -726l725 726v-1144h-25v1084l-700 -700z" />
    <glyph glyph-name="N" unicode="N" horiz-adv-x="2000" 
d="M150 1929v-1929h-50v2050l1400 -1235v1185h50v-1306zM325 1556v-1556h-25v1616l1400 -1235v1619h25v-1680zM500 1184v-1184h-25v1243l1400 -1235v1992h25v-2050z" />
    <glyph glyph-name="O" unicode="O" horiz-adv-x="2200" 
d="M1099 2000q252 0 491 -129t374.5 -369.5t135.5 -502.5q0 -260 -132 -497.5t-370 -369.5t-499 -132q-259 0 -497 132t-370 369.5t-132 497.5q0 262 134 502.5t373 369.5t492 129zM632 1827.5q-227 -122.5 -354.5 -351t-127.5 -477.5q0 -247 125.5 -472.5t351.5 -351
t472 -125.5q248 0 474 125.5t351.5 351t125.5 472.5q0 249 -128.5 477.5t-355.5 351t-467 122.5t-467 -122.5zM1100 1800q201 0 392 -103.5t299.5 -295.5t108.5 -402q0 -208 -105.5 -398t-296 -295.5t-398.5 -105.5t-398.5 105.5t-296 295.5t-105.5 398q0 210 107.5 402
t298.5 295.5t394 103.5zM718 1675q-185 -100 -289 -286.5t-104 -389.5q0 -201 102 -385.5t287 -286.5t386 -102t386 102t287 286.5t102 385.5q0 203 -105 389.5t-290 286.5t-380 100q-197 0 -382 -100zM1100 1625q157 0 306.5 -80.5t234 -231t84.5 -313.5t-82.5 -311.5
t-231.5 -231t-311 -82.5t-311 82.5t-231.5 231t-82.5 311.5t84 313.5t233 231t308 80.5zM804.5 1522.5q-143.5 -77.5 -224 -221.5t-80.5 -301t79 -299.5t222 -221.5t299 -79t299 79t222 221.5t79 299.5t-81 301t-224.5 221.5t-294.5 77.5q-152 0 -295.5 -77.5z" />
    <glyph glyph-name="P" unicode="P" horiz-adv-x="1600" 
d="M800 600h-200v50h200q168 0 323 86t241 240.5t86 323.5q0 170 -87.5 326.5t-242.5 240t-320 83.5h-651v-1950h-49v2000h700q177 0 344.5 -90t261.5 -258.5t94 -351.5q0 -182 -92.5 -348.5t-259.5 -259t-348 -92.5zM800 975h-200v25h200q78 0 149.5 40t111 111t39.5 149
q0 79 -40.5 151t-112 110.5t-147.5 38.5h-301v-1600h-25v1625h326q82 0 159.5 -42t121.5 -120t44 -163q0 -84 -43 -161.5t-120.5 -120.5t-161.5 -43zM800 800h-200v25h200q123 0 236 63t176 175.5t63 236.5t-64 238.5t-177.5 175.5t-233.5 61h-476v-1775h-25v1800h501
q127 0 246.5 -64.5t186.5 -184.5t67 -251q0 -130 -66 -249t-185 -185t-249 -66z" />
    <glyph glyph-name="Q" unicode="Q" horiz-adv-x="2300" 
d="M1468 125l38 -38q-196 -87 -407 -87q-259 0 -497 132t-370 369.5t-132 497.5q0 262 134 502.5t373 369.5t492 129q252 0 491 -129t374.5 -369.5t135.5 -502.5q0 -260 -132 -497q-30 -55 -66 -104l397 -397l-35 -35l-429 428l31 40q32 44 59 93q125 225 125 472
q0 249 -128.5 477.5t-355.5 351t-467 122.5t-467 -122.5t-354.5 -351t-127.5 -477.5q0 -247 125.5 -472.5t351.5 -351t472 -125.5q191 0 369 75zM1352 241q-123 -41 -252 -41q-208 0 -398.5 105.5t-296 295.5t-105.5 398q0 210 107.5 402t298.5 295.5t394 103.5
q201 0 392 -103.5t299.5 -295.5t108.5 -402q0 -208 -105 -398q-68 -121 -170 -208l533 -533l-18 -18l-552 552l19 16q100 85 166 204q102 184 102 385q0 203 -105 389.5t-290 286.5t-380 100q-197 0 -382 -100t-289 -286.5t-104 -389.5q0 -201 102 -385.5t287 -286.5
t386 -102q119 0 232 36zM1187 406l21 -21q-53 -10 -108 -10q-162 0 -311 82.5t-231.5 231t-82.5 311.5t84 313.5t233 231t308 80.5q157 0 306.5 -80.5t234 -231t84.5 -313.5t-82.5 -311.5t-231.5 -230.5q-33 -19 -66 -33l689 -689l-17 -18l-717 716l26 10q37 15 73 35
q143 79 222 221.5t79 299.5t-81 301t-224.5 221.5t-294.5 77.5q-152 0 -295.5 -77.5t-224 -221.5t-80.5 -301t79 -299.5t222 -221.5t299 -79q44 0 87 6z" />
    <glyph glyph-name="R" unicode="R" horiz-adv-x="1550" 
d="M1190 716l358 -716h-56l-368 735l43 27q125 82 199 214q86 154 86 324t-87.5 326t-243 240t-321.5 84h-650v-1950h-50v2000h700q179 0 346.5 -90.5t261.5 -258.5t94 -351t-92 -349q-82 -146 -220 -235zM917 814l407 -814h-28l-415 832l25 5q68 15 132 51q113 62 176 175
t63 237t-64 238t-177.5 175.5t-235.5 61.5h-475v-1775h-25v1800h500q128 0 247.5 -64.5t187 -184.5t67.5 -251q0 -130 -66 -249t-185 -185q-65 -36 -134 -52zM641 975l487 -975h-27l-501 1000h200q79 0 150.5 39.5t111.5 111t40 149.5t-40.5 150.5t-112 111t-149.5 38.5
h-300v-1600h-26l1 1625h325q84 0 161.5 -42t121.5 -120t44 -163t-43 -162t-120.5 -120t-163.5 -43h-159z" />
    <glyph glyph-name="S" unicode="S" horiz-adv-x="1600" 
d="M889 1544q-2 3 -3 6q-14 24 -38 37t-49 13t-49 -13t-37.5 -37t-13.5 -50t13 -50t37 -37t51 -13q177 0 344 -90.5t261 -259t94 -350.5q0 -183 -92 -349.5t-259 -258.5t-348 -92q-183 0 -349.5 92t-259 258t-92.5 350h26q0 -176 88.5 -336t249.5 -249t337 -89v1
q175 0 336 88.5t250 249t89 335.5q0 176 -90.5 338.5t-252 250t-332.5 86.5q-33 0 -63 16.5t-46.5 46t-16.5 62.5q0 32 17 62t47 46.5t61 16.5q32 0 61.5 -16t46.5 -46l4 -8zM1045 1623q-4 7 -8 15q-37 66 -102.5 101.5t-135.5 35.5v-1q-70 0 -135.5 -35t-102.5 -101.5
t-37 -137.5q0 -72 36 -137t102 -101.5t138 -36.5q133 0 258.5 -68t196 -194t70.5 -263t-69.5 -261t-194.5 -193.5t-261 -69.5v-1q-137 0 -262 69.5t-194 194t-69 261.5h25q0 -130 65.5 -248.5t185.5 -184.5t249 -66v1q130 0 249 65.5t185 184.5t66 248q0 132 -67 251.5
t-186.5 184.5t-246.5 64q-79 0 -150.5 39.5t-111 111t-39.5 149.5t40 150t112 110.5t148 38.5v1q76 0 148 -39t112 -111l8 -16zM1201 1701q-6 12 -12 25q-61 108 -168.5 166t-221.5 58v-1q-114 0 -221.5 -58t-168 -166t-60.5 -225q0 -118 59 -224.5t166.5 -166t225.5 -59.5
q88 0 172 -45t130.5 -129.5t46.5 -175.5t-45.5 -174.5t-129.5 -129t-174 -45.5v-1q-91 0 -174.5 46t-130 129t-46.5 175l50 1q0 -78 39.5 -149.5t111.5 -110.5q71 -40 149 -40v1q78 0 149.5 39.5t111 110.5t39.5 149t-40 150t-112 111t-147 38q-131 0 -250 66t-185 184.5
t-66 249.5q0 130 67 250t186.5 184.5t246.5 64.5v1q127 0 246.5 -64.5t186.5 -184.5q8 -14 14 -28z" />
    <glyph glyph-name="T" unicode="T" horiz-adv-x="1800" 
d="M1700 1950h-1600v50h1600v-50zM925 1775v-1776h-25v1776h-800v25h1600v-25h-775zM750 1625v-1626h-50v1601h-600v25h650zM1075 1625h625v-25h-600v-1601h-25v1626z" />
    <glyph glyph-name="U" unicode="U" horiz-adv-x="1600" 
d="M100 700v1300h50v-1300q0 -169 86 -324t240 -240.5t324 -85.5t326 87t240 242.5t84 320.5h-1v1300h51v-1300q0 -178 -90.5 -345t-258.5 -261t-351 -94t-349 92.5t-258.5 259t-92.5 348.5zM300 700v1299h25v-1299q0 -123 62.5 -236.5t175.5 -176t237 -62.5t238 63.5
t175.5 177.5t61.5 234h-1v1300h25v-1300h1q0 -127 -64.5 -246.5t-184.5 -186.5t-251 -67q-130 0 -249 66t-185 185t-66 249zM475 700v1300l25 -1v-1299q0 -78 39.5 -149.5t111 -111t149.5 -39.5t150.5 40.5t111 112t38.5 147.5h-1v1300h25v-1300h1q0 -82 -42 -160
t-120 -121.5t-163 -43.5t-162 43t-120 120.5t-43 161.5z" />
    <glyph glyph-name="V" unicode="V" horiz-adv-x="2050" 
d="M1025 732l-634 1268h56l578 -1156l577 1156h56zM196 2000h28l801 -1602l801 1602h28l-829 -1658zM0 2000h28l997 -1993l997 1993h28l-1025 -2050z" />
    <glyph glyph-name="W" unicode="W" horiz-adv-x="2800" 
d="M1400 1483l-375 -751l-634 1268h56l578 -1156l375 751l375 -750l577 1156h56l-633 -1268zM1400 1092l-375 -750l-829 1658h28l801 -1602l375 750l375 -750l801 1603h28l-829 -1659zM1400 701l-375 -751l-1025 2050h28l997 -1993l375 750l375 -749l997 1993h28
l-1025 -2050z" />
    <glyph glyph-name="X" unicode="X" horiz-adv-x="1901" 
d="M920 999l-501 1001h28l501 -1001l-500 -999h-28zM724 998l-501 1002h28l501 -1001l-500 -999h-27zM557 1000l-500 -1000h-56l500 1000l-500 1000h56zM1482 0h-28l-500 999l501 1001h28l-501 -1001zM1677 0h-27l-500 999l501 1001h28l-501 -1002zM1845 2000h56l-500 -1000
l500 -1000h-56l-500 1000z" />
    <glyph glyph-name="Y" unicode="Y" horiz-adv-x="1450" 
d="M472 1058l-471 942h56l443 -886zM583 1280l-360 720h28l346 -692zM681 1476l-262 524h28l248 -496zM499 992l504 1008h56l-510 -1020v-980h-50v992zM1227 2000h27l-530 -1060v-940h-25v944zM1422 2000h28l-551 -1102v-898h-25v904z" />
    <glyph glyph-name="Z" unicode="Z" horiz-adv-x="1500" 
d="M800 1600h-700v25h740l-800 -1600h1360v-25h-1400zM1083 1775h-983v25h1023l-800 -1600h1077v-25h-1117zM1365 1950h-1265v50h1346l-800 -1600h754v-50h-835z" />
    <glyph glyph-name="bracketleft" unicode="[" horiz-adv-x="569" 
 />
    <glyph glyph-name="backslash" unicode="\" horiz-adv-x="1450" 
d="M1390 0l-1000 2000h56l1000 -2000h-56zM223 2000l1000 -2000h-28l-1000 2000h28zM27 2000l1000 -2000h-28l-1000 2000h28z" />
    <glyph glyph-name="bracketright" unicode="]" horiz-adv-x="569" 
 />
    <glyph glyph-name="asciicircum" unicode="^" horiz-adv-x="961" 
 />
    <glyph glyph-name="underscore" unicode="_" 
 />
    <glyph glyph-name="grave" unicode="`" horiz-adv-x="682" 
 />
    <glyph glyph-name="a" unicode="a" horiz-adv-x="2050" 
d="M0 0l1025 2050l1026 -2050h-57l-969 1938l-969 -1938h-56zM1604 0l-578 1156l-578 -1156h-29l606 1212l606 -1212h-27zM1799 0l-774 1547l-773 -1547h-28l801 1602l802 -1602h-28z" />
    <glyph glyph-name="b" unicode="b" horiz-adv-x="1900" 
d="M1150 50q168 0 323 86t241 240.5t86 323.5q0 170 -88 327q-50 90 -124 157l-39 32l25 44q51 103 51 215q0 124 -63.5 238t-177.5 175.5t-234 61.5h-950v-1900h950zM1150 1350q32 0 62 16.5t46.5 46t16.5 62.5t-16.5 63t-46.5 46t-62 16h-600v-250h600zM1150 1625
q38 0 74 -19.5t56 -55.5t20 -75t-19.5 -74.5t-55.5 -55.5t-75 -20h-625v300h625zM1150 400q77 0 148.5 39.5t111.5 111t40 149.5q0 79 -40.5 151t-112.5 111q-72 38 -147 38h-600v-600h600zM1150 1025q82 0 159.5 -41.5t121.5 -120t44 -163.5q0 -84 -43 -162t-120.5 -120.5
t-161.5 -42.5h-625v650h625zM1245 1191q28 9 55 24q71 39 110.5 110.5t39.5 149.5q0 79 -40 150.5t-112 110.5t-148 39h-775v-584h870zM1150 1800q82 0 160 -42t121.5 -120t43.5 -163t-43 -162t-120 -119q-13 -7 -25 -13q55 -16 109 -45q119 -65 186.5 -185t67.5 -251
q0 -130 -66.5 -248.5t-185.5 -185t-248 -66.5h-800v1600h800zM1150 225q123 0 236 63t175.5 176t62.5 236q0 125 -63.5 239t-176.5 176q-68 36 -138 50h-871v-940h775zM1150 2000q133 0 258.5 -68t196 -194t70.5 -263q0 -129 -61 -247q84 -74 141 -176q95 -169 95 -352
q0 -182 -92.5 -348.5t-259.5 -259t-348 -92.5h-1000v2000h1000z" />
    <glyph glyph-name="c" unicode="c" horiz-adv-x="1850" 
d="M1651 450l18 -17q-74 -74 -169 -127q-191 -106 -399 -106t-398.5 105.5t-296 295.5t-105.5 398q0 210 107.5 402t298.5 295.5t394 103.5q201 0 392 -103q99 -53 175 -130l-17 -18q-74 75 -170 126q-185 100 -380 100q-197 0 -382 -100t-289 -286.5t-104 -389.5
q0 -201 102 -385.5t287 -286.5t386 -102t386 102q93 51 164 123zM1775 327l36 -36q-93 -93 -212 -159q-238 -132 -499 -132q-259 0 -497 132t-370 369.5t-132 497.5q0 262 134 502.5t373 369.5t492 129q252 0 491 -129q123 -66 219 -163l-35 -35q-91 92 -208 155
q-227 122 -467 122t-467 -122.5t-354.5 -351t-127.5 -477.5q0 -247 125.5 -472.5t351.5 -351t472 -125.5q248 0 474 126q113 63 201 151zM1545 1443l-18 -18q-58 58 -131 98q-144 77 -295 77q-152 0 -295.5 -77.5t-224 -221.5t-80.5 -301t79 -299.5t222 -221.5t299 -79
t299 79q72 40 127 95l17 -17q-57 -58 -132 -99q-149 -83 -311 -83t-311 82.5t-231.5 231t-82.5 311.5t84 313.5t233 231t308 80.5q157 0 307 -80q77 -42 137 -102z" />
    <glyph glyph-name="d" unicode="d" horiz-adv-x="1800" 
d="M700 1625q158 0 307.5 -80.5t233.5 -231t84 -313.5t-82.5 -311.5t-231.5 -231t-311 -82.5v-1h-225v1251h225zM700 399v1q155 0 298.5 79t222.5 221.5t79 299.5t-80.5 301t-224 221.5t-295.5 77.5h-200v-1201h200zM300 200v1600h400q203 0 394 -103t298.5 -295.5
t107.5 -401.5t-105.5 -399t-296.5 -295.5t-398 -105.5v-1zM325 1775v-1550l375 -1v1q201 0 385.5 102.5t287 286.5t102.5 386t-104 388.5t-289.5 286.5t-381.5 100h-375zM100 2000h600q253 0 492.5 -129t373.5 -369.5t134 -502.5q0 -260 -132 -497.5t-370.5 -369.5
t-497.5 -132h-600v2000zM150 1950v-1900l550 -1v1q246 0 472.5 125.5t352 351t125.5 472.5q0 249 -127.5 477.5t-354.5 351t-468 122.5h-550z" />
    <glyph glyph-name="e" unicode="e" horiz-adv-x="1600" 
d="M151 50h1350v-50h-1400v2000h1400v-50h-1350v-1900zM326 225h1175v-25h-1200v1600h1200v-25h-1175v-1550zM501 400h1000v-25h-1025v1250h1025v-25h-1000v-1200zM1301 1150h-700v50h700v-50zM601 800v25h700v-25h-700zM601 975v25h700v-25h-700z" />
    <glyph glyph-name="f" unicode="f" horiz-adv-x="1600" 
d="M1300 1150h-700v50h700v-50zM600 800v25h700v-25h-700zM600 975v25h700v-25h-700zM100 2000h1400v-50l-1351 -1v-1949h-49v2000zM1500 1800v-25l-1176 -1v-1774h-25v1799zM1500 1625v-25h-1000v-1600h-25v1625h1025z" />
    <glyph glyph-name="g" unicode="g" horiz-adv-x="2200" 
d="M1875 975h-775v25h800q0 -209 -105.5 -399t-296 -295.5t-398.5 -105.5t-398.5 105.5t-296 295.5t-105.5 398q0 210 107.5 402t298.5 295.5t394 103.5q201 0 392 -103q98 -54 175 -130l-18 -18q-74 75 -169 126q-185 100 -380 100q-197 0 -382 -100t-289 -286.5
t-104 -389.5q0 -201 102 -385.5t287 -286.5t386 -102t386 102t287 287q96 173 102 361zM2038 1150h-938v50h979q21 -99 21 -201q0 -260 -132 -497.5t-370 -369.5t-499 -132q-259 0 -497 132t-370 369.5t-132 497.5q0 262 134 502.5t373 369.5t492 129q252 0 491 -129
q123 -66 219 -162l-36 -36q-90 91 -207 155q-227 122 -467 122t-467 -122.5t-354.5 -351t-127.5 -477.5q0 -247 125.5 -472.5t351.5 -351t472 -125.5q248 0 474 125.5t351.5 351t125.5 472.5q0 76 -12 151zM1666 800h-566v25h600q-16 -62 -57 -136q-83 -149 -232 -231.5
t-311 -82.5t-311 82.5t-231.5 231t-82.5 311.5t84 313.5t233 231t308 80.5q157 0 307 -80q76 -42 136 -102l-18 -18q-57 58 -130 98q-144 77 -295 77q-152 0 -295.5 -77.5t-224 -221.5t-80.5 -301t79 -299.5t222 -221.5t299 -79t299 79t222 222q27 48 45 99z" />
    <glyph glyph-name="h" unicode="h" horiz-adv-x="2000" 
d="M150 2000v-2000h-50v2000h50zM500 0h-25v2000l25 -1v-1999zM325 0h-25v1999h25v-1999zM1900 2000v-2000h-50v2000h50zM1500 1999l25 1v-2000h-25v1999zM1675 1999h25v-1999h-25v1999zM1450 1150h-900v50h900v-50zM550 800v25h900v-25h-900zM550 975v25h900v-25h-900z" />
    <glyph glyph-name="i" unicode="i" horiz-adv-x="700" 
d="M200 2000v-2000h-50v2000h50zM550 0h-25v2000l25 -1v-1999zM375 0h-25v1999h25v-1999z" />
    <glyph glyph-name="j" unicode="j" horiz-adv-x="1650" 
d="M1500 700q0 -178 -90.5 -345.5t-258.5 -261t-351 -93.5t-349 92t-258.5 258.5t-92.5 348.5h50q0 -169 86 -323.5t240 -240.5t324 -86t326 87.5t240 242.5t84 321v1300h50v-1300zM1100 700v1300h25v-1300q0 -83 -42 -161t-120 -121.5t-163 -43.5t-162 43t-120 120.5
t-43 161.5h25q0 -78 39.5 -149.5t111 -111t149.5 -39.5t150.5 40.5t111 112t38.5 148.5zM1275 700v1300h25v-1300q0 -128 -64.5 -247.5t-184.5 -186.5t-251 -67q-130 0 -249 66t-185 185t-66 249h25q0 -123 62.5 -236.5t175.5 -176t237 -62.5t238 64t175.5 177.5t61.5 234.5
z" />
    <glyph glyph-name="k" unicode="k" horiz-adv-x="1400" 
d="M50 2000v-2000h-50v2000h50zM400 0h-25v2000l25 -1v-1999zM225 0h-25v1999h25v-1999zM928 0h-28l-500 999l501 1001h28l-501 -1001zM1123 0h-27l-500 999l501 1001h28l-501 -1002zM1291 2000h56l-500 -1000l500 -1000h-56l-500 1000z" />
    <glyph glyph-name="l" unicode="l" horiz-adv-x="1600" 
d="M100 2000h49v-1950l1351 -1v-49h-1400v2000zM299 200v1800h25v-1775l1176 -1v-25zM474 375v1625h25v-1600l1001 -1v-25z" />
    <glyph glyph-name="m" unicode="m" horiz-adv-x="2400" 
d="M150 1929v-1929h-50v2050l1101 -1101l1100 1101v-2050h-50v1929l-1050 -1051zM325 1506v-1506h-25v1566l901 -900l900 900v-1566h-25v1506l-875 -876zM500 1084v-1084h-25v1144l726 -726l725 726v-1144h-25v1084l-700 -700z" />
    <glyph glyph-name="n" unicode="n" horiz-adv-x="2000" 
d="M150 1929v-1929h-50v2050l1400 -1235v1185h50v-1306zM325 1556v-1556h-25v1616l1400 -1235v1619h25v-1680zM500 1184v-1184h-25v1243l1400 -1235v1992h25v-2050z" />
    <glyph glyph-name="o" unicode="o" horiz-adv-x="2200" 
d="M1062 2000l1 -1v0l6 1l5 -2l5 2h1l1 -2l-28 -9l-1 1v1l9 4v1h-1l-28 -7v1l2 4h-1l-17 -4v1v-1h-3v2h2v1h-1l-18 -3l-5 1h-1l-5 -1l-1 1h-1l-2 -2l-3 2l-2 -2l-4 1q-15 -1 -15 -2l-2 1q0 1 26 5v-1h1q17 4 80 7zM1120 2000h1l6 -2l5 2q71 -3 86 -7l1 1v0q26 -4 26 -5h-1
v-1l-17 2l-1 -1h-1l-2 2l-3 -2l-3 2l-1 -1l-6 1l-6 -1l-18 3h-1v-1h2v-2h-2l-1 1v0v-1q-8 3 -18 4h-1v-1q4 -1 4 -3v-1l-29 7h-1v-1q4 0 10 -5l-1 -1h-1q-19 6 -27 10v1zM1090 1999v-1q-8 -9 -14 -9l-2 1v1q0 4 16 8zM1110 1999q9 0 16 -8l-2 -2q-7 1 -14 9v1zM1099 1998h3
q3 -1 3 -4q0 -4 -4 -4v-1q-5 2 -5 4v2zM933 1975v-1q-21 -12 -60 -23l-5 -1q8 10 65 25zM961 1975l1 -1v-1q-37 -22 -56 -23v1q22 18 54 23zM1239 1975q43 -11 55 -24v-1q-15 0 -56 23v1zM1267 1975q56 -14 65 -25h-1q-11 0 -64 23v2zM1291 1975q57 -14 73 -25v-1
q-14 3 -74 24l1 1v1zM909 1974h1v-1q-49 -18 -73 -23q11 10 72 24zM994 1974v-2q-28 -22 -43 -22l-2 1v2q0 6 37 20zM1026 1974h2l1 -2v-1q-15 -21 -31 -21q-4 1 -4 2v3q17 19 32 19zM1063 1974q5 -1 5 -6q-6 -18 -19 -18h-1q-4 0 -6 5q0 10 17 18zM1100 1974q9 0 12 -14
q-4 -10 -11 -10q-12 2 -12 11q2 13 11 13zM1138 1974q12 0 20 -17v-1q0 -6 -7 -6q-13 0 -19 18q0 5 6 6zM1174 1974q14 0 32 -19v-1v0q-1 -4 -4 -4q-14 0 -31 20v2q0 2 3 2zM1206 1974h1q15 0 41 -17l4 -5v-1l-3 -1q-28 7 -43 23v1zM887 1973h1v-1l-76 -22q2 3 33 13v1h-2
l-45 -13v0q0 3 32 13q22 6 40 8l-2 -2h2zM1312 1973h2l18 -3l-1 1v1h2q47 -9 69 -20v-1l-46 13h-1v-1l33 -12v-1h-2l-74 22v1zM857 1968v-1h2l9 2v1h-2zM1336 1969v-1h4v0v0l-4 1v0zM1341 1968v-1l7 -2h1v1l-7 2h-1zM851 1966v-1h3l2 1v1h-2zM1349 1965v-1h4h1v0l-4 1h-1z
M721 1921q-74 -40 -80 -40v1q23 17 78 39h2zM741 1921l1 -1v-1q-65 -38 -76 -38v1q16 16 67 36zM773 1921l1 -1v-1q-44 -31 -68 -38l-2 2q14 16 49 31q15 7 20 7zM812 1921l3 -1v-1q-17 -19 -46 -33q-11 -4 -17 -4l-1 1q3 9 25 22q29 16 36 16zM860 1921q3 -1 4 -4
q-10 -14 -28 -26q-16 -9 -25 -9q-3 0 -3 3h-1q6 18 46 34q7 1 7 2zM914 1921q6 -2 6 -5q0 -11 -30 -30q-8 -4 -13 -4v0q-7 0 -7 5q0 14 36 31zM973 1921q7 0 8 -9q0 -15 -27 -29l-8 -1q-6 0 -8 9q0 12 26 27zM1036 1921q10 0 12 -15q-7 -24 -24 -24h-1q-13 2 -13 12
q3 21 26 27zM1164 1921q12 0 25 -18l2 -8q-3 -13 -14 -13q-19 0 -25 26q0 8 12 13zM1227 1921q15 0 34 -25l1 -6q0 -7 -10 -8q-15 0 -30 22q-3 4 -3 8q1 9 8 9zM1286 1921q16 0 42 -27l3 -7q-2 -5 -8 -5q-17 0 -40 28l-2 6v1q0 3 5 3v1zM1340 1921q34 -10 52 -32l1 -4v-1
q-1 -2 -5 -2q-17 0 -50 32q0 3 -2 3q0 3 4 3v1zM1388 1921q31 -9 59 -32l2 -4v-2l-1 -1h-2q-22 3 -59 35h-1v3zM1428 1921q21 -4 63 -31l5 -7v0l-1 -2q-32 10 -68 38zM1459 1921q10 0 66 -31q10 -7 10 -9h-1q-32 11 -76 38v1zM1102 1920q12 0 17 -20q-4 -18 -19 -18
q-16 0 -18 19q4 19 19 19h1zM1482 1920h1q37 -13 76 -37v-1h-2q-12 4 -75 37v1zM692 1913q-7 -5 -57 -28q15 11 57 28zM1508 1913h1q48 -21 56 -28v0zM556 1840v-1q-27 -21 -74 -54v1q34 29 74 54zM572 1840l1 -1v-1q-49 -41 -70 -51h-3v1q37 36 70 51l1 1h1zM603 1840l1 -1
v-2q-41 -41 -67 -50h-2l-1 2q0 4 29 29q31 20 40 22zM1598 1840q18 -4 61 -41l7 -10v0l-1 -2q-18 3 -65 46l-4 5v1h2v1zM1627 1840h1q27 -11 69 -49l3 -3v-2q-18 7 -71 50l-2 3v1zM1644 1840q37 -22 74 -54v-1q-56 40 -74 54v1zM648 1839v-2v0q-11 -20 -42 -40
q-13 -9 -21 -10q-2 0 -2 3h-1q10 22 53 46q6 3 13 3zM702 1839l3 -3v-1q0 -12 -38 -41l-19 -7q-3 0 -5 5q0 13 37 39q13 8 22 8zM768 1839q3 0 5 -4q0 -24 -43 -46l-8 -1q-4 0 -7 5q0 18 38 42q10 4 15 4zM842 1839q10 -2 10 -10q0 -16 -25 -35q-10 -6 -19 -6q-11 2 -11 9
q0 15 26 35q10 6 19 7zM925 1839q11 0 13 -15q0 -16 -21 -31q-9 -5 -16 -5q-15 1 -15 14q0 19 30 35zM1011 1839q16 0 18 -20q0 -24 -27 -31h-3q-19 2 -19 19q9 32 31 32zM1100 1839q24 -4 24 -27q-3 -24 -24 -24q-24 4 -24 22v0v1q4 28 24 28zM1190 1839q30 -8 30 -33
q-3 -18 -18 -18v0q-22 0 -31 25v6q3 20 19 20zM1276 1839q20 0 36 -28l2 -9q0 -13 -16 -14q-20 0 -34 28l-2 9q3 14 14 14zM1359 1839q17 0 38 -26q6 -9 6 -16q0 -8 -11 -9q-22 0 -42 32l-1 9q0 10 10 10zM1435 1839q17 0 46 -33q4 -9 4 -13q-2 -5 -7 -5q-23 0 -49 36l-2 10
q0 4 8 5zM1500 1839q28 -6 55 -39l2 -9q0 -2 -5 -4q-28 7 -52 38l-5 10q0 4 5 4zM1555 1839q24 -5 59 -40l4 -9v-1q0 -1 -3 -2q-24 6 -58 41q-5 6 -5 9q0 2 3 2zM421 1734h2q-31 -33 -66 -66v1q0 6 64 65zM1778 1734h1q55 -49 64 -65v-1q-65 62 -65 66zM440 1733h1v-2
q-3 -11 -51 -56q-8 -5 -11 -5v0v0q7 22 56 61zM1759 1733h1q36 -23 61 -60v-3v0q-15 3 -57 54l-5 7v2zM479 1733v0l1 -3q-11 -29 -53 -59l-6 -1l-3 2v0q6 22 45 53q10 8 16 8zM533 1733q3 -1 3 -5q-5 -24 -41 -53q-11 -5 -16 -5q-5 2 -5 5q8 26 43 52q11 6 16 6zM601 1733
q7 0 8 -8q0 -21 -38 -50q-10 -5 -16 -5t-7 9q4 24 35 46q12 8 18 8zM683 1733q12 -2 12 -11v-1q0 -15 -17 -33q-18 -18 -32 -18q-11 0 -11 13q0 20 33 44q10 6 15 6zM778 1733q13 0 15 -17q0 -23 -30 -42q-4 -3 -14 -4q-16 2 -16 16v1q0 13 14 29q18 17 31 17zM881 1733
q16 0 19 -22q0 -20 -23 -37q-9 -4 -17 -4q-17 0 -20 21q0 23 31 40zM990 1733q19 0 24 -28q-8 -35 -36 -35q-24 4 -24 24v1q0 24 27 36zM1101 1733q18 0 27 -24q2 -3 2 -9q-5 -30 -30 -30q-19 0 -28 21q-1 4 -1 9v2q0 21 23 30zM1212 1733q22 0 33 -29l2 -9q0 -21 -26 -25
q-21 0 -33 28l-1 8q4 27 25 27zM1321 1733q18 0 35 -26q2 -4 5 -16q0 -19 -22 -21q-20 0 -37 29l-1 13q2 21 20 21zM1423 1733q18 0 38 -28q7 -12 7 -19q0 -14 -17 -16q-18 0 -37 27q-6 10 -6 19q0 17 15 17zM1517 1733q20 0 44 -35l5 -16q-2 -12 -12 -12q-20 0 -42 32
q-7 12 -7 19q2 12 12 12zM1600 1733q16 0 43 -32q9 -13 9 -23q-1 -8 -8 -8q-18 0 -45 36q-6 10 -8 18q0 9 9 9zM1669 1733q12 0 41 -30q16 -19 16 -29q-2 -4 -6 -4q-20 3 -46 38q-10 14 -10 21q1 4 5 4zM1721 1733v0q17 0 55 -46q6 -11 6 -16l-3 -1q-27 10 -58 55q0 4 -1 4z
M304 1605h2v-1q-30 -48 -52 -73v2q14 29 50 72zM328 1605l2 -2q-7 -26 -43 -66q-5 -5 -9 -5l-1 4q9 26 37 58q11 11 14 11zM372 1605q4 -2 4 -5q-8 -32 -33 -56q-9 -10 -17 -12q-4 1 -4 3v2q0 24 39 62q8 6 11 6zM435 1605q8 -3 8 -9q0 -21 -31 -54q-13 -10 -19 -10t-7 10
q0 26 37 58q9 5 12 5zM518 1605q8 -3 8 -9l1 -6v-1q0 -24 -31 -51q-10 -6 -17 -6q-11 3 -11 14q0 24 30 51q12 8 20 8zM614 1605q15 -3 15 -20q0 -27 -33 -50l-14 -3q-12 0 -16 18v2q0 24 31 47q11 6 17 6zM723 1605q18 0 20 -23v-2q0 -24 -26 -43q0 -2 -19 -5q-19 5 -19 18
l-1 5q0 28 35 47zM844 1605q20 0 24 -28v-1q0 -28 -32 -43l-10 -1q-21 0 -25 28v1q0 17 20 35q11 8 23 9zM971 1605q18 0 27 -23l2 -11q0 -25 -28 -37l-11 -2q-19 0 -28 22q-1 3 -1 9q0 27 27 39zM1101 1605q21 0 32 -28l2 -9q0 -25 -27 -35l-8 -1q-21 0 -32 25l-2 10
q0 29 31 38h4zM1232 1605q15 0 30 -19q7 -11 7 -22v-1q-5 -31 -31 -31q-20 0 -34 24q-3 9 -3 17q4 32 31 32zM1358 1605q19 0 37 -27q4 -12 4 -17v-3q-4 -26 -26 -26t-38 30l-3 12v3q4 28 26 28zM1478 1605q16 0 35 -23q9 -17 9 -27q-3 -23 -22 -23q-16 0 -34 22
q-9 16 -9 28q4 23 21 23zM1587 1605q22 0 43 -38q4 -10 4 -15v-2q-2 -18 -17 -18q-20 0 -40 33q-3 7 -6 19q2 21 16 21zM1684 1605q19 0 42 -36q4 -7 7 -23q-2 -14 -13 -14q-18 0 -40 35q-7 15 -7 24q0 12 11 14zM1765 1605q17 0 42 -39q8 -15 8 -25q-2 -9 -8 -9
q-16 0 -41 38q-8 18 -8 26q1 9 7 9zM1829 1605q28 -13 48 -58l2 -10q0 -3 -5 -5q-25 8 -49 61v7q0 5 4 5zM1871 1605h2q23 -18 36 -41q14 -22 14 -31l-3 -1q-16 11 -33 37q-16 26 -16 36zM1895 1605h1q39 -46 50 -73v0q-26 29 -51 71v2zM214 1461v-1q0 -13 -38 -83v-1h-1v1
q12 41 36 82zM1986 1460h1q21 -30 37 -75l1 -8q-8 6 -35 71zM240 1459l1 -6q-12 -51 -36 -74l-3 -1q-2 3 -2 6q13 53 36 74zM1912 1459q15 0 36 -47q5 -17 5 -24q0 -8 -7 -9q-8 0 -23 22q-15 24 -16 45v3q0 8 5 10zM1962 1459q12 -6 29 -45q9 -21 9 -30q0 -3 -2 -6
q-6 0 -21 26q-18 38 -18 51q0 4 3 4zM287 1458h2q3 0 5 -10q-3 -29 -25 -60q-10 -9 -15 -9h-1q-5 2 -5 9v3q0 27 31 64zM359 1458q10 0 10 -15v-1q0 -30 -29 -58q-6 -5 -13 -5q-9 0 -10 16v1q0 31 32 59q4 3 10 3zM449 1458q14 0 16 -21q0 -16 -12 -36q-16 -22 -31 -22
q-14 0 -16 20v2q0 28 29 52q7 5 14 5zM557 1458q14 0 20 -16l1 -8v-3q0 -29 -30 -49q-8 -3 -13 -3q-18 0 -22 24q0 33 33 53q4 2 11 2zM678 1458h2q21 0 25 -27v-3q0 -33 -35 -48l-8 -1q-22 0 -26 29q0 32 35 49zM812 1458h3q24 0 29 -32q0 -32 -32 -46q-4 -1 -11 -1
q-26 0 -30 33q0 29 32 44zM956 1458q23 0 32 -27l2 -13q0 -15 -18 -32q-12 -7 -24 -7q-23 0 -32 26l-2 8q0 33 35 45h7zM1098 1458h3q25 0 36 -29q1 -4 1 -11q-6 -39 -39 -39q-27 0 -36 34l-1 5q0 16 15 32q11 8 21 8zM1244 1458h3q25 0 37 -32l2 -9v-3q0 -24 -26 -34
l-10 -1q-25 0 -37 31q-2 4 -2 13q0 24 26 34zM1386 1458h2q25 0 39 -32q3 -8 3 -13q-4 -34 -31 -34q-26 0 -40 31l-2 13v3q4 32 29 32zM1520 1458h2q27 0 42 -41l1 -8q-4 -30 -27 -30q-27 0 -42 38l-1 12q4 29 25 29zM1643 1458q24 0 40 -36l4 -18q-3 -25 -22 -25
q-24 0 -40 39l-3 15q3 25 21 25zM1751 1458q22 0 39 -37q3 -7 5 -22q-4 -20 -17 -20q-23 0 -39 42q-3 8 -3 14v4q0 17 14 19h1zM1842 1458q18 0 38 -43l4 -19q0 -17 -12 -17q-16 0 -35 39q-6 18 -6 24q0 16 11 16zM148 1299l1 -2q-14 -69 -25 -84v2q0 21 21 84h1h2z
M2052 1299h1q11 -17 23 -79v-7v0h-1q-9 14 -23 79v7zM174 1299h2q2 0 4 -10q0 -35 -22 -73l-3 -2h-3q-2 0 -3 12q0 35 22 71zM229 1299q6 0 8 -19q0 -34 -22 -62l-7 -5q-9 0 -11 22q0 24 18 54q7 10 14 10zM304 1299h1q12 0 14 -25v-2q0 -34 -26 -55l-9 -4q-14 5 -14 28
q0 31 25 55zM400 1299h2q20 -5 20 -30q0 -36 -30 -54l-8 -2q-20 6 -20 29v4q0 29 26 49q6 4 10 4zM515 1299h4q17 0 23 -26l1 -7q0 -35 -30 -50l-10 -3q-26 6 -26 35q0 23 20 42q9 8 18 9zM646 1299h6q17 0 26 -26q1 -3 1 -11q0 -33 -33 -47l-9 -2q-18 0 -28 26l-2 10
q0 14 10 32q17 18 29 18zM789 1299h5q27 0 33 -37v-4q0 -25 -27 -41q-9 -4 -15 -4q-23 0 -33 29l-2 10q0 29 30 44zM948 1299q20 0 33 -28l1 -15q0 -25 -29 -40l-13 -3q-24 0 -36 29l-1 12q0 33 35 45h10zM1096 1299h6q25 0 37 -32q2 -4 2 -11q0 -29 -30 -40q-7 -3 -12 -3
q-23 0 -37 30l-2 10v6q0 27 32 39zM1253 1299h5q25 0 38 -32q2 -7 2 -12v-2q0 -27 -29 -38l-10 -2q-24 0 -39 31l-2 14q0 24 25 38zM1412 1299q19 0 34 -28q4 -10 4 -17v-2q-4 -39 -36 -39q-21 0 -36 28q-3 7 -5 17q0 32 30 41h9zM1549 1299h6q18 0 34 -29q4 -13 4 -18v-4
q0 -23 -23 -33l-8 -2q-21 0 -36 29q-4 8 -5 18q0 26 21 37zM1682 1299h4q19 0 34 -34q3 -10 3 -20q-5 -32 -26 -32q-23 0 -38 39l-2 12q0 30 25 35zM1799 1299h1q19 0 33 -35q2 -6 4 -19q-4 -32 -21 -32q-19 0 -34 34l-3 18v7q3 27 20 27zM1896 1299h2q15 0 29 -37l3 -18v-5
q-2 -26 -14 -26q-13 0 -27 27q-8 21 -8 33q3 26 15 26zM1971 1299h1q17 0 30 -53l1 -12q-2 -21 -9 -21q-14 0 -26 39q-4 15 -4 25v5q0 12 7 17zM2023 1299h1q14 0 26 -62l1 -13q0 -10 -3 -10h-2q-17 13 -26 73zM2089 1132q7 -4 11 -75l-2 -15h-1q-9 37 -9 78zM109 1131h1
q2 0 2 -11v-1q0 -43 -9 -77h-1l-2 18q1 32 9 71zM374 1131q17 0 25 -29l1 -11q0 -39 -30 -48h-2q-21 0 -26 40q0 25 20 44zM495 1131q10 0 21 -12q8 -10 10 -26q0 -37 -30 -50h-6q-25 0 -31 37v6q0 25 24 42zM632 1131q34 -8 34 -45q0 -23 -23 -39q-7 -4 -16 -4
q-22 0 -33 29l-2 13q0 25 24 41q10 5 16 5zM780 1131q26 0 37 -33l2 -11q0 -27 -29 -42l-13 -2q-25 0 -36 31l-2 8q0 36 35 48zM938 1131q41 -8 41 -46q0 -20 -22 -37q-12 -5 -20 -5q-27 0 -39 32l-1 9v6q0 25 30 38zM1100 1131q26 0 40 -31l2 -13q0 -28 -29 -42l-12 -2
q-30 0 -42 34v10q0 31 35 43zM1262 1131q26 0 39 -30l4 -15q0 -26 -28 -41l-14 -2q-29 0 -40 35l-1 9q0 31 33 43zM1420 1131q25 0 39 -33l2 -16q0 -25 -29 -38l-9 -1q-28 0 -40 35l-1 10q0 30 32 42zM1570 1131q21 0 35 -30l3 -14v-4q0 -31 -32 -40h-4q-21 0 -34 28
q-3 5 -4 18q0 28 29 41zM1706 1131q20 0 33 -32l3 -18q-7 -38 -32 -38q-22 0 -33 34l-2 9q0 39 31 45zM1826 1131q16 0 28 -27q4 -10 4 -25q-5 -36 -27 -36q-16 0 -27 27q-3 8 -4 21q5 39 26 39v1zM140 1130q7 -5 7 -26q0 -47 -15 -61v0q-8 5 -8 29q0 38 13 58h3zM192 1130
h4q12 -9 12 -33v-3q0 -35 -18 -51h-2q-13 0 -15 31v6q0 36 19 50zM274 1130q16 0 19 -40q0 -19 -13 -39q-7 -8 -13 -8q-18 0 -21 38q3 41 25 49h3zM1926 1130h3q16 0 25 -41v-11q0 -29 -20 -35q-21 0 -27 47v6q5 34 19 34zM2007 1130q14 0 20 -45l1 -9q0 -27 -15 -33
q-12 0 -19 37l-2 14q2 36 15 36zM2060 1130h2q12 -7 14 -60q-1 -27 -8 -27q-11 0 -15 59v2q2 26 7 26zM102 958v0q7 -5 10 -77v-6q0 -4 -2 -5h-1q-9 43 -9 72zM267 958q16 0 25 -36l1 -11v-4v-1q-2 -31 -18 -35l-2 -1q-15 0 -24 32q-3 8 -3 17v1q0 32 21 38zM368 958
q21 0 31 -38l1 -12q0 -28 -22 -37l-3 -1q-23 0 -32 40l-1 8q5 39 25 39zM490 958q22 0 33 -33q2 -3 2 -9v-6l1 -1q-7 -39 -32 -39q-22 0 -33 34l-2 10v5q0 32 31 39zM628 958q24 0 37 -33l1 -12q0 -28 -24 -41l-11 -2q-25 0 -37 35l-2 11q0 31 30 41zM777 958q28 0 40 -34
l2 -12q0 -28 -29 -40l-10 -2q-26 0 -39 34l-2 14q0 15 17 32q13 8 21 8zM936 958q29 0 41 -32l2 -12q0 -30 -31 -42l-10 -2q-27 0 -39 32q-2 4 -2 9v6q0 24 23 36q5 4 16 5zM1100 958q27 0 41 -32l1 -12q0 -27 -29 -42l-13 -2q-25 0 -39 30q-2 8 -2 15q0 31 35 42zM1264 958
q24 0 37 -28l4 -15q-3 -17 -10 -28q-16 -17 -33 -17q-27 0 -39 32l-1 11q0 26 24 40q9 5 18 5zM1423 958q22 0 35 -26l3 -15q0 -32 -30 -45q-3 -1 -12 -2q-21 0 -34 26q-3 11 -3 18q0 31 34 43zM1574 958q18 0 30 -24q4 -8 4 -16v-3q0 -32 -33 -44l-5 -1q-24 0 -34 29l-2 13
q0 24 23 41q8 4 17 5zM1711 958q19 0 28 -26l3 -12q0 -37 -30 -49l-6 -1q-21 0 -30 32l-1 14q0 16 18 36q12 6 18 6zM1832 958q15 0 23 -23q3 -9 3 -15q0 -36 -26 -49l-5 -1q-20 0 -26 34l-1 5q0 35 28 48zM1933 958q16 0 21 -34v-9q-4 -36 -22 -43l-4 -2q-16 0 -21 35v5
q3 40 24 47zM2098 958l2 -15q0 -33 -9 -73h-2l-1 11q0 42 9 77h1zM131 957h2q14 -16 14 -60q-1 -22 -6 -26h-4q-13 18 -13 59q2 27 7 27zM184 957h5q15 -11 15 -25q2 0 4 -25v-3q-2 -33 -14 -33h-1q-14 0 -20 46v11q0 20 11 29zM2011 957h5q6 0 11 -23l1 -13q0 -31 -17 -49
l-1 -1h-6q-6 0 -11 23l-1 6l1 1v4l-1 1h1v4q0 33 18 47zM2067 957h3q5 -2 6 -29q0 -40 -13 -57h-4q-4 2 -6 27q0 41 14 59zM124 787v0q12 -16 25 -83l-1 -3h-1q-9 11 -23 81v5zM153 787q11 0 24 -54q3 -13 3 -23q-2 -9 -4 -9h-1q-10 0 -24 52l-2 22q0 9 4 12zM284 787
q13 0 27 -26q8 -18 8 -34v0q0 -25 -15 -25h-1q-17 0 -30 39q-3 10 -3 20q0 21 14 26zM385 787q14 -3 25 -17q12 -21 12 -39q-3 -29 -20 -29h-1q-25 0 -37 48v9q4 28 20 28h1zM503 787q19 0 35 -27q5 -14 5 -25v-2q0 -26 -25 -32q-25 0 -39 38l-2 13q0 23 18 33zM639 787
q15 0 31 -20q9 -13 9 -30q0 -24 -23 -34l-7 -2q-24 0 -39 34q-3 10 -3 18q7 34 32 34zM786 787q12 0 28 -13q13 -17 13 -32v-3q0 -25 -26 -36l-8 -2q-28 0 -41 36l-2 11q0 27 27 38zM941 787q14 -1 26 -10q15 -16 15 -33q0 -31 -31 -42l-6 -1q-27 0 -40 31q-2 7 -2 12v3
q0 27 27 38zM1101 787q17 -3 25 -10q15 -14 15 -33q0 -29 -31 -41l-10 -2q-27 0 -39 34l-2 9q0 30 33 42zM1260 787q19 -3 27 -12q11 -14 11 -28q0 -33 -36 -45l-5 -1q-27 0 -38 31l-1 11q0 24 26 40zM1415 787q15 -2 21 -8q14 -13 14 -30v-2q0 -27 -28 -42l-14 -4
q-22 0 -33 27l-2 15q3 20 13 30q13 13 28 14h1zM1562 787q12 0 24 -13q7 -10 7 -23v-1q0 -33 -33 -47l-8 -2q-26 0 -31 37q0 32 31 47zM1698 787q25 -6 25 -32v-2q0 -33 -32 -50l-7 -1h-2q-15 0 -22 20q-3 8 -3 15q0 26 26 46zM1816 787q8 0 17 -12q4 -13 4 -21
q-5 -26 -14 -38q-12 -14 -24 -14h-1q-15 0 -19 27v7q0 27 25 47zM1915 787q12 0 15 -24v-6q0 -26 -22 -50q-5 -5 -11 -5h-1q-12 0 -15 25v0q0 34 26 57zM2046 787q5 0 5 -11q0 -36 -22 -72q-3 -3 -5 -3q-3 4 -4 13q5 42 17 63q6 8 9 10zM208 787q13 0 27 -46l2 -20
q-2 -19 -7 -19h-2q-18 0 -30 55l-1 8q0 22 11 22zM1994 787q9 -4 9 -20q0 -37 -25 -63l-7 -2q-6 0 -7 17v5q7 58 30 63zM2076 787v0v-1q0 -20 -20 -80l-3 -5h-1v2q0 20 21 82zM175 622h1q18 -26 35 -72l3 -10v-1q-23 33 -38 80zM203 622q10 -1 31 -48q7 -21 7 -28v-2
q0 -2 -3 -2q-12 6 -29 44q-9 21 -9 33q1 3 3 3zM254 622q12 -3 26 -27q14 -29 14 -43q-2 -10 -6 -10q-15 0 -36 48q-4 13 -4 20v1q0 11 6 11zM328 622q14 0 33 -32q8 -20 8 -31v-1q-1 -16 -11 -16q-13 0 -33 32q-8 19 -8 31v1q0 16 11 16zM423 622q19 0 38 -38q4 -13 4 -21
q-3 -21 -17 -21q-19 0 -38 38q-4 12 -4 19v2q2 21 16 21h1zM535 622q22 0 39 -36l4 -16v-3q-3 -25 -21 -25h-2q-14 0 -33 24q-9 16 -9 33q4 23 22 23zM663 622q24 0 40 -34q2 -10 2 -18q-4 -28 -26 -28q-23 0 -40 35l-3 14v2q0 20 18 27zM803 622q24 0 39 -32l2 -13
q-4 -35 -32 -35q-22 0 -39 32q-2 10 -2 17q0 20 21 29zM950 622q24 0 38 -31l2 -10q-5 -39 -35 -39q-28 0 -40 36l-1 9q0 19 22 33zM1100 622q28 0 37 -32l1 -9q-7 -39 -39 -39q-22 0 -35 28l-2 12q0 27 29 38q3 2 9 2zM1253 622q21 0 31 -25l2 -11v-3q0 -24 -28 -39l-13 -2
q-22 0 -32 26l-2 10q0 32 33 43zM1400 622q23 0 30 -31q0 -31 -31 -47l-13 -2q-19 0 -28 23q-1 4 -1 9v4q0 24 25 39q9 5 18 5zM1539 622q21 0 26 -31q-4 -21 -13 -32q-17 -17 -31 -17q-22 0 -26 29l1 6h-1q1 14 14 30q14 15 30 15zM1666 622q17 0 21 -26q0 -23 -24 -47
q-13 -7 -21 -7q-15 0 -20 24q0 33 31 53q8 3 13 3zM1778 622q14 0 17 -21q0 -14 -12 -35q-17 -24 -32 -24q-12 0 -16 21q0 27 26 52q7 6 17 7zM1873 622q8 0 11 -17q0 -24 -27 -56q-11 -7 -15 -7q-11 3 -11 17q0 23 24 53q11 10 18 10zM1946 622q5 0 7 -10q0 -28 -30 -64
q-7 -6 -11 -6q-5 0 -5 11v2q0 24 28 61q8 6 11 6zM1998 622l2 -5q-3 -29 -30 -69q-5 -5 -8 -6q-3 1 -3 4q3 31 33 73q3 3 6 3zM2025 622q0 -14 -37 -82h-2q4 20 37 82h2zM1946 470h1v-1q-14 -28 -48 -71l-4 -3h-1v1q29 48 52 74zM254 469v0q28 -31 52 -74v-1q-26 28 -51 70
l-1 3v2zM280 469q20 -16 34 -39q10 -16 16 -32l-1 -3h-2q-13 8 -34 38q-16 26 -16 34zM326 469q29 -14 49 -62q0 -5 1 -5q-1 -5 -4 -7q-30 14 -49 59q-1 4 -1 9t4 6zM1873 469q4 0 6 -6q-2 -21 -32 -55q-11 -10 -18 -13q-4 1 -4 7q3 23 34 57q7 7 14 10zM1920 469l3 -2
q0 -18 -43 -67q-6 -5 -9 -5l-1 3q6 21 38 60q4 5 12 11zM394 468q18 0 43 -44l6 -18q-2 -10 -8 -10q-18 0 -45 45q-4 11 -4 17v2q0 8 8 8zM480 468q20 0 41 -35q6 -12 6 -24q-1 -13 -11 -13q-19 0 -41 35q-7 12 -7 24q0 13 12 13zM583 468q24 0 43 -38q3 -8 3 -16
q-2 -18 -16 -18v0q-23 0 -43 38q-4 11 -4 16q2 18 17 18zM700 468q24 0 40 -33q3 -8 3 -15v-1q-2 -23 -21 -23q-23 0 -41 36q-3 9 -3 15q0 19 22 21zM827 468q29 0 41 -37v-8q-4 -27 -26 -27q-23 0 -39 33l-2 12q3 27 26 27zM961 468q27 0 37 -30l2 -8q0 -28 -28 -34h-2
q-25 0 -37 32q-1 9 -2 9q5 31 30 31zM1101 468q24 0 33 -28l1 -7q0 -21 -21 -34q-8 -3 -14 -3q-23 0 -33 28l-1 5v4q0 24 24 34q4 1 11 1zM1239 468q27 0 30 -33q0 -23 -28 -37l-10 -2q-26 0 -30 33q0 29 33 39h5zM1373 468h1q22 0 25 -26v-2q0 -25 -28 -41q-7 -3 -14 -3
q-21 0 -25 27v4q0 22 28 39zM1502 468q17 0 20 -23q0 -17 -20 -38q-14 -11 -25 -11q-17 0 -20 23q0 28 30 46q6 3 15 3zM1618 468q16 0 16 -18v0q0 -30 -38 -52l-10 -2q-12 0 -15 19q0 25 30 48q10 5 17 5zM1721 468q10 0 11 -12v-3q0 -25 -35 -53q-9 -4 -14 -4
q-10 0 -10 16q0 21 30 50q12 6 18 6zM1807 468q7 0 8 -10q0 -17 -25 -46q-16 -16 -26 -16q-5 0 -6 10q1 20 24 47q16 15 25 15zM1821 332l1 -2q-27 -42 -62 -63l-1 1v1q8 18 56 60zM358 331q37 -32 64 -64h-1q-45 39 -63 63v1zM379 331h2q36 -27 59 -59l1 -4l-1 -1
q-33 20 -61 61v3zM421 331q30 -13 58 -57l1 -5l-1 -2q-29 11 -58 53l-3 7q1 4 3 4zM480 331q16 0 50 -42q6 -12 6 -16q0 -5 -5 -5q-17 0 -50 41q-7 13 -7 17q0 3 6 5zM1779 331q3 -1 3 -3q-7 -24 -51 -57l-8 -4l-2 3h-1q12 30 55 60zM1842 331v-1q-18 -25 -63 -63h-1
q23 27 64 64zM557 330q17 0 43 -33q9 -13 9 -22q0 -6 -8 -7q-18 0 -45 34q-8 13 -8 20q0 8 9 8zM647 330q24 0 46 -40l2 -11q0 -11 -12 -11q-19 0 -42 32q-6 10 -6 19q0 11 12 11zM750 330q20 0 39 -30q4 -10 4 -16q0 -16 -16 -16q-21 0 -41 33q-3 8 -3 13q0 16 17 16z
M860 330q26 0 39 -32l1 -9q-3 -21 -20 -21q-23 0 -38 33l-2 9q2 20 20 20zM979 330q24 0 34 -29l1 -5q-4 -28 -26 -28q-21 0 -33 28l-1 11q0 20 25 23zM1100 330q26 0 30 -31q-6 -31 -31 -31q-19 0 -27 24l-2 9q0 17 20 28zM1222 330q24 -2 24 -24v-2q0 -23 -27 -35l-9 -1
q-19 0 -23 27q6 35 35 35zM1340 330q20 0 20 -20q0 -25 -31 -40l-10 -2q-15 0 -19 21q0 22 27 39q7 2 13 2zM1452 330q16 -1 16 -16q0 -21 -32 -43l-13 -3q-14 0 -16 16q0 20 25 40q10 6 20 6zM1555 330q10 0 11 -13q0 -14 -26 -38q-13 -11 -25 -11q-8 0 -10 12q0 20 30 43
q9 7 20 7zM1645 330q7 0 7 -8v-1q0 -19 -37 -47q-9 -6 -16 -6t-8 8q10 31 38 50q10 4 16 4zM1720 330h2q2 0 4 -5q-9 -28 -42 -50q-9 -7 -15 -7h-2q-3 2 -3 5q10 32 48 56zM482 215h1q49 -35 72 -53h-1q-40 24 -72 53zM1717 215h1q-33 -29 -72 -53h-1q28 22 72 53zM500 214
h2q23 -12 71 -51v-2q-30 11 -71 50l-2 2v1zM1698 214h2v-1q-26 -27 -55 -43q-14 -9 -18 -9v1q41 36 71 52zM535 213h1q15 -1 64 -45l4 -5v-1h-2v-1q-33 11 -67 49v3zM584 213h1q27 -6 60 -44q3 -3 3 -5v-2h-2v-1q-16 1 -54 34q-10 11 -10 16zM648 213q26 -5 52 -36
q5 -8 5 -12q0 -3 -4 -3v-1q-32 9 -56 40l-2 8q1 4 5 4zM724 213q17 0 42 -29q7 -9 7 -18v-1q-1 -3 -5 -3h-3q-17 0 -44 30q-5 8 -6 15q0 5 9 6zM808 213q21 0 41 -31l3 -10q0 -10 -11 -10q-19 0 -40 29q-4 8 -4 12q0 9 11 10zM902 213q10 0 23 -11q13 -14 13 -25v-2
q-2 -13 -13 -13q-23 0 -37 29l-2 8q0 13 16 14zM1000 213q20 0 29 -27v-5q-1 -19 -19 -19q-19 0 -29 27l-1 6q0 15 20 18zM1101 213q16 0 23 -20v-5q-3 -26 -25 -26q-19 0 -23 27q0 20 25 24zM1202 213q16 0 18 -19q-7 -32 -31 -32q-16 0 -18 20v1q0 19 24 29zM1300 213
q14 0 14 -15q0 -19 -29 -34l-9 -2q-14 0 -14 15q0 21 29 34zM1393 213q9 0 10 -10q0 -20 -36 -39l-9 -2q-9 0 -9 10q0 19 30 38q9 3 14 3zM1478 213q7 -1 7 -6q0 -19 -39 -42l-12 -4q-7 0 -7 7q0 17 37 42zM1552 213q4 0 5 -3v-2q0 -15 -45 -43l-12 -4q-4 0 -5 4q0 13 39 42
q13 6 18 6zM1616 213l2 -1v-1q-7 -21 -48 -44q-10 -5 -14 -5h-4v2q6 15 46 43q12 6 18 6zM1664 213h1l1 -2q-10 -15 -28 -27q-23 -17 -39 -23l-3 1v1q32 34 58 46q6 4 10 4zM641 119h1q4 0 78 -38v-1h-1q-10 0 -78 37v2zM666 119h1q11 0 76 -38v-1h-2q-24 5 -72 36l-3 2v1z
M704 119q15 0 67 -35l2 -3v-2q-18 4 -63 31l-6 7v2zM754 119q25 -5 60 -36h1v-3q-21 0 -62 32l-2 6zM812 119q19 -2 49 -31l3 -5q-1 -3 -4 -3q-34 10 -52 32l-1 4v1q0 1 5 2zM877 119q16 0 39 -26l4 -8q0 -5 -7 -5q-15 0 -40 26q-3 4 -3 8v1q2 4 7 4zM1252 119q7 0 10 -8
q0 -13 -27 -29l-8 -2q-6 0 -8 7q0 16 26 30zM1324 119q5 -1 7 -5q0 -11 -30 -29q-11 -5 -15 -5q-5 0 -5 5v1q5 15 31 30zM1389 119q4 -1 4 -2v-1q0 -14 -47 -35l-6 -1l-3 1v2q4 15 45 34zM1447 119l2 -1q0 -13 -54 -36l-9 -2l-1 1q14 17 41 31q16 7 21 7zM1496 119v-2
q-17 -20 -69 -38v2q15 14 54 34zM1534 119v-1q-11 -11 -67 -36l-10 -2q41 26 71 38zM1559 119v-2q-41 -24 -78 -37h-1q55 31 79 39zM947 118h1q21 0 33 -29v-2q-1 -7 -9 -7q-12 0 -29 19q-5 6 -5 12q0 7 9 7zM1022 118h1q20 0 25 -26q-3 -12 -12 -12q-15 0 -25 21l-1 7
q0 9 12 10zM1098 118h4q13 0 17 -18q-6 -20 -19 -20q-15 0 -18 21q3 17 16 17zM1177 118h1q12 -1 12 -12q0 -17 -24 -26h-1q-11 0 -13 14q0 11 15 22q4 2 10 2zM635 115h2l53 -27h-2q-53 25 -53 27zM1561 113q0 -3 -50 -25h-1q9 6 51 25zM694 87h1l2 -2h-2zM1506 87
q-1 -3 -5 -3q1 3 5 3zM812 51h1l74 -23v0h-1l-26 5h-1v-1q18 -4 18 -6h-1q-32 6 -75 20l-3 3h1l44 -12h1v1q-26 8 -32 13zM836 51h1q22 -5 72 -23l-1 -1v-1q-57 14 -72 25zM868 51h1q10 0 65 -24v-1h-1q-41 10 -62 21q0 2 -3 2v2zM907 51q12 0 55 -23v-1l-1 -1h-1
q-14 1 -50 19l-4 4zM952 51q27 -8 42 -23l-1 -1v-1q-20 3 -43 19l-1 1v4zM998 51q13 0 31 -19v-3q0 -2 -3 -3q-24 7 -32 19v3zM1248 51q4 -1 4 -2q0 -8 -37 -21l-8 -2l-1 1v1q13 14 42 23zM1293 51l1 -1v-1q-22 -17 -55 -23v1q25 18 54 24zM1332 51v-1v-1q-16 -11 -64 -23
h-1q13 9 62 25h3zM1364 51q-14 -11 -74 -25h-1v1q67 24 75 24zM1388 51q-1 -3 -32 -13v-1h2l45 13v-1q0 -5 -71 -21l-9 -2q0 2 13 5v1h-2l-20 -4h-1v0zM1049 50q19 -4 19 -18q-1 -4 -4 -5h-1q-14 0 -21 18q0 5 7 5zM1100 50q11 0 11 -12q0 -9 -12 -11q-8 0 -10 14q2 9 11 9z
M1153 50q5 -1 5 -5q0 -10 -17 -17l-4 -1q-5 0 -5 6q6 17 20 17h1zM1202 50q2 0 4 -2q0 -9 -26 -20l-6 -2l-3 2v0q13 22 31 22zM845 37v-1l12 -3h1v1l-12 3h-1zM1336 32v0h2l17 4v1h-2zM959 12l13 -1v0h1l3 -1l2 1l3 -1l1 1l4 -1l9 1l17 -3h1v1h-2v2q15 -4 22 -4h1v1
q-4 1 -4 3v0l29 -6h1v1q-3 0 -9 5h1l30 -9h1v1q-4 1 -9 7v1h2v0q5 0 16 -10l-1 -1h-1l-6 2q0 -2 -4 -2h-5l-1 1l-1 -1q-75 3 -92 8l-1 -1h-1l-21 4h1v1zM1241 12l1 -1v0l-22 -4v1q0 -3 -92 -8v1h-1l-5 -1h-3l-2 2l31 9h1v-1l-9 -4v-1h1l28 6v0q0 -3 -3 -3v-1h2q5 0 16 4v-1
l1 1h3v-2q-4 0 -4 -2l22 4l9 -1l2 1l1 -1h1l2 1l2 -1l3 1h3zM1124 11h2v-2q-4 -5 -17 -9l-1 1v1q10 8 16 9zM1101 11h1q1 -1 3 -5q0 -2 -5 -4q-2 0 -5 4q1 5 6 5z" />
    <glyph glyph-name="p" unicode="p" horiz-adv-x="1600" 
d="M800 600h-200v50h200q168 0 323 86t241 240.5t86 323.5q0 170 -87.5 326.5t-242.5 240t-320 83.5h-651v-1950h-49v2000h700q177 0 344.5 -90t261.5 -258.5t94 -351.5q0 -182 -92.5 -348.5t-259.5 -259t-348 -92.5zM800 975h-200v25h200q78 0 149.5 40t111 111t39.5 149
q0 79 -40.5 151t-112 110.5t-147.5 38.5h-301v-1600h-25v1625h326q82 0 159.5 -42t121.5 -120t44 -163q0 -84 -43 -161.5t-120.5 -120.5t-161.5 -43zM800 800h-200v25h200q123 0 236 63t176 175.5t63 236.5t-64 238.5t-177.5 175.5t-233.5 61h-476v-1775h-25v1800h501
q127 0 246.5 -64.5t186.5 -184.5t67 -251q0 -130 -66 -249t-185 -185t-249 -66z" />
    <glyph glyph-name="q" unicode="q" horiz-adv-x="2300" 
d="M1468 125l38 -38q-196 -87 -407 -87q-259 0 -497 132t-370 369.5t-132 497.5q0 262 134 502.5t373 369.5t492 129q252 0 491 -129t374.5 -369.5t135.5 -502.5q0 -260 -132 -497q-30 -55 -66 -104l397 -397l-35 -35l-429 428l31 40q32 44 59 93q125 225 125 472
q0 249 -128.5 477.5t-355.5 351t-467 122.5t-467 -122.5t-354.5 -351t-127.5 -477.5q0 -247 125.5 -472.5t351.5 -351t472 -125.5q191 0 369 75zM1352 241q-123 -41 -252 -41q-208 0 -398.5 105.5t-296 295.5t-105.5 398q0 210 107.5 402t298.5 295.5t394 103.5
q201 0 392 -103.5t299.5 -295.5t108.5 -402q0 -208 -105 -398q-68 -121 -170 -208l533 -533l-18 -18l-552 552l19 16q100 85 166 204q102 184 102 385q0 203 -105 389.5t-290 286.5t-380 100q-197 0 -382 -100t-289 -286.5t-104 -389.5q0 -201 102 -385.5t287 -286.5
t386 -102q119 0 232 36zM1187 406l21 -21q-53 -10 -108 -10q-162 0 -311 82.5t-231.5 231t-82.5 311.5t84 313.5t233 231t308 80.5q157 0 306.5 -80.5t234 -231t84.5 -313.5t-82.5 -311.5t-231.5 -230.5q-33 -19 -66 -33l689 -689l-17 -18l-717 716l26 10q37 15 73 35
q143 79 222 221.5t79 299.5t-81 301t-224.5 221.5t-294.5 77.5q-152 0 -295.5 -77.5t-224 -221.5t-80.5 -301t79 -299.5t222 -221.5t299 -79q44 0 87 6z" />
    <glyph glyph-name="r" unicode="r" horiz-adv-x="1550" 
d="M1190 716l358 -716h-56l-368 735l43 27q125 82 199 214q86 154 86 324t-87.5 326t-243 240t-321.5 84v-1h-651v-1949h-49v2000l700 -1v1q179 0 346.5 -90.5t261.5 -258.5t94 -351t-92 -349q-82 -146 -220 -235zM917 814l407 -814h-28l-415 832l25 5q68 15 132 51
q113 62 176 175t63 237t-64 238t-177.5 175.5t-235.5 61.5v-1h-476v-1774h-25v1799h501v1q128 0 247.5 -64.5t187 -184.5t67.5 -251q0 -130 -66 -249t-185 -185q-65 -36 -134 -52zM641 975l487 -975h-27l-501 1000h200q79 0 150.5 39.5t111.5 111t40 149.5t-40.5 150.5
t-112 111t-149.5 38.5v-1h-301v-1599h-25v1624h326v1q84 0 161.5 -42t121.5 -120t44 -163t-43 -162t-120.5 -120t-163.5 -43h-159z" />
    <glyph glyph-name="s" unicode="s" horiz-adv-x="1600" 
d="M889 1544q-2 3 -3 6q-14 24 -38 37t-49 13t-49 -13t-37.5 -37t-13.5 -50t13 -50t37 -37t51 -13q177 0 344 -90.5t261 -259t94 -350.5q0 -183 -92 -349.5t-259 -258.5t-348 -92q-183 0 -349.5 92t-259 258t-92.5 350h26q0 -176 88.5 -336t249.5 -249t337 -89v1
q175 0 336 88.5t250 249t89 335.5q0 176 -90.5 338.5t-252 250t-332.5 86.5q-33 0 -63 16.5t-46.5 46t-16.5 62.5q0 32 17 62t47 46.5t61 16.5q32 0 61.5 -16t46.5 -46l4 -8zM1045 1623q-4 7 -8 15q-37 66 -102.5 101.5t-135.5 35.5v-1q-70 0 -135.5 -35t-102.5 -101.5
t-37 -137.5q0 -72 36 -137t102 -101.5t138 -36.5q133 0 258.5 -68t196 -194t70.5 -263t-69.5 -261t-194.5 -193.5t-261 -69.5v-1q-137 0 -262 69.5t-194 194t-69 261.5h25q0 -130 65.5 -248.5t185.5 -184.5t249 -66v1q130 0 249 65.5t185 184.5t66 248q0 132 -67 251.5
t-186.5 184.5t-246.5 64q-79 0 -150.5 39.5t-111 111t-39.5 149.5t40 150t112 110.5t148 38.5v1q76 0 148 -39t112 -111l8 -16zM1201 1701q-6 12 -12 25q-61 108 -168.5 166t-221.5 58v-1q-114 0 -221.5 -58t-168 -166t-60.5 -225q0 -118 59 -224.5t166.5 -166t225.5 -59.5
q88 0 172 -45t130.5 -129.5t46.5 -175.5t-45.5 -174.5t-129.5 -129t-174 -45.5v-1q-91 0 -174.5 46t-130 129t-46.5 175l50 1q0 -78 39.5 -149.5t111.5 -110.5q71 -40 149 -40v1q78 0 149.5 39.5t111 110.5t39.5 149t-40 150t-112 111t-147 38q-131 0 -250 66t-185 184.5
t-66 249.5q0 130 67 250t186.5 184.5t246.5 64.5v1q127 0 246.5 -64.5t186.5 -184.5q8 -14 14 -28z" />
    <glyph glyph-name="t" unicode="t" horiz-adv-x="1800" 
d="M1700 1950h-1600v50h1600v-50zM100 1775v25h1600v-25h-1600zM750 1500v-1500h-50v1500h50zM1100 0h-25v1500l25 -1v-1499zM925 0h-25v1499h25v-1499zM100 1600v25h1600v-25h-1600z" />
    <glyph glyph-name="u" unicode="u" horiz-adv-x="1600" 
d="M100 700v1300h50v-1300q0 -169 86 -324t240 -240.5t324 -85.5t326 87t240 242.5t84 320.5h-1v1300h51v-1300q0 -178 -90.5 -345t-258.5 -261t-351 -94t-349 92.5t-258.5 259t-92.5 348.5zM300 700v1299h25v-1299q0 -123 62.5 -236.5t175.5 -176t237 -62.5t238 63.5
t175.5 177.5t61.5 234h-1v1300h25v-1300h1q0 -127 -64.5 -246.5t-184.5 -186.5t-251 -67q-130 0 -249 66t-185 185t-66 249zM475 700v1300l25 -1v-1299q0 -78 39.5 -149.5t111 -111t149.5 -39.5t150.5 40.5t111 112t38.5 147.5h-1v1300h25v-1300h1q0 -82 -42 -160
t-120 -121.5t-163 -43.5t-162 43t-120 120.5t-43 161.5z" />
    <glyph glyph-name="v" unicode="v" horiz-adv-x="2050" 
d="M1025 732l-634 1268h56l578 -1156l577 1156h56zM196 2000h28l801 -1602l801 1602h28l-829 -1658zM0 2000h28l997 -1993l997 1993h28l-1025 -2050z" />
    <glyph glyph-name="w" unicode="w" horiz-adv-x="2800" 
d="M1400 1483l-375 -751l-634 1268h56l578 -1156l375 751l375 -750l577 1156h56l-633 -1268zM1400 1092l-375 -750l-829 1658h28l801 -1602l375 750l375 -750l801 1603h28l-829 -1659zM1400 701l-375 -751l-1025 2050h28l997 -1993l375 750l375 -749l997 1993h28
l-1025 -2050z" />
    <glyph glyph-name="x" unicode="x" horiz-adv-x="1901" 
d="M557 1000l-500 -1000h-56l500 1000l-500 1000h56zM1420 1999h56l-500 -999l500 -1000h-56l-500 1000zM738 970l-486 -970h-27l498 1000l-500 1000h28l487 -970l488 969h28l-501 -999l499 -1000h-27zM739 1362l-320 638h28l292 -582l291 581h28zM1057 0h-28l-290 581
l-291 -581h-28l319 637z" />
    <glyph glyph-name="y" unicode="y" horiz-adv-x="1451" 
d="M0 0l1000 2000h56l-1000 -2000h-56zM1251 2000l-1000 -2000h-27l1000 2000h27zM1447 2000l-1000 -2000h-28l1000 2000h28zM473 1058l-471 942h56l443 -886zM584 1280l-360 720h28l346 -692zM682 1476l-262 524h28l248 -496z" />
    <glyph glyph-name="z" unicode="z" horiz-adv-x="1500" 
d="M800 1600h-700v25h740l-800 -1600h1360v-25h-1400zM1083 1775h-983v25h1023l-800 -1600h1077v-25h-1117zM1365 1950h-1265v50h1346l-800 -1600h754v-50h-835z" />
    <glyph glyph-name="braceleft" unicode="{" horiz-adv-x="684" 
 />
    <glyph glyph-name="bar" unicode="|" horiz-adv-x="532" 
 />
    <glyph glyph-name="braceright" unicode="}" horiz-adv-x="684" 
 />
    <glyph glyph-name="asciitilde" unicode="~" horiz-adv-x="1196" 
 />
    <glyph glyph-name="Adieresis" unicode="&#xc4;" horiz-adv-x="1366" 
 />
    <glyph glyph-name="Aring" unicode="&#xc5;" horiz-adv-x="1366" 
 />
    <glyph glyph-name="Ccedilla" unicode="&#xc7;" horiz-adv-x="1479" 
 />
    <glyph glyph-name="Eacute" unicode="&#xc9;" horiz-adv-x="1366" 
 />
    <glyph glyph-name="Ntilde" unicode="&#xd1;" horiz-adv-x="1479" 
 />
    <glyph glyph-name="Odieresis" unicode="&#xd6;" horiz-adv-x="1593" 
 />
    <glyph glyph-name="Udieresis" unicode="&#xdc;" horiz-adv-x="1479" 
 />
    <glyph glyph-name="aacute" unicode="&#xe1;" 
 />
    <glyph glyph-name="agrave" unicode="&#xe0;" 
 />
    <glyph glyph-name="acircumflex" unicode="&#xe2;" 
 />
    <glyph glyph-name="adieresis" unicode="&#xe4;" 
 />
    <glyph glyph-name="atilde" unicode="&#xe3;" 
 />
    <glyph glyph-name="aring" unicode="&#xe5;" 
 />
    <glyph glyph-name="ccedilla" unicode="&#xe7;" horiz-adv-x="1024" 
 />
    <glyph glyph-name="eacute" unicode="&#xe9;" 
 />
    <glyph glyph-name="egrave" unicode="&#xe8;" 
 />
    <glyph glyph-name="ecircumflex" unicode="&#xea;" 
 />
    <glyph glyph-name="edieresis" unicode="&#xeb;" 
 />
    <glyph glyph-name="iacute" unicode="&#xed;" horiz-adv-x="569" 
 />
    <glyph glyph-name="igrave" unicode="&#xec;" horiz-adv-x="569" 
 />
    <glyph glyph-name="icircumflex" unicode="&#xee;" horiz-adv-x="569" 
 />
    <glyph glyph-name="idieresis" unicode="&#xef;" horiz-adv-x="569" 
 />
    <glyph glyph-name="ntilde" unicode="&#xf1;" 
 />
    <glyph glyph-name="oacute" unicode="&#xf3;" 
 />
    <glyph glyph-name="ograve" unicode="&#xf2;" 
 />
    <glyph glyph-name="ocircumflex" unicode="&#xf4;" 
 />
    <glyph glyph-name="odieresis" unicode="&#xf6;" 
 />
    <glyph glyph-name="otilde" unicode="&#xf5;" 
 />
    <glyph glyph-name="uacute" unicode="&#xfa;" 
 />
    <glyph glyph-name="ugrave" unicode="&#xf9;" 
 />
    <glyph glyph-name="ucircumflex" unicode="&#xfb;" 
 />
    <glyph glyph-name="udieresis" unicode="&#xfc;" 
 />
    <glyph glyph-name="dagger" unicode="&#x2020;" 
 />
    <glyph glyph-name="degree" unicode="&#xb0;" horiz-adv-x="819" 
 />
    <glyph glyph-name="cent" unicode="&#xa2;" 
 />
    <glyph glyph-name="sterling" unicode="&#xa3;" 
 />
    <glyph glyph-name="section" unicode="&#xa7;" 
 />
    <glyph glyph-name="bullet" unicode="&#x2022;" horiz-adv-x="717" 
 />
    <glyph glyph-name="paragraph" unicode="&#xb6;" horiz-adv-x="1600" 
d="M1101 -200h-49v2149l-450 1l-1 50h500v-2200zM902 1800l-1 -2000h-25l1 1975h-275v25h300zM727 1625v-1825h-25v1800h-101l1 25h125zM652 1000h-50v50h50v-50zM652 1400v-25h-51v25h51zM652 1225v-25h-51l1 25h50zM601 1225v-25q-79 0 -150 39.5t-110.5 111t-39.5 149.5
t40 150t111.5 111t148.5 39v-25q-71 0 -136.5 -35.5t-102 -101.5t-36.5 -138t36 -137t101.5 -101.5t137.5 -36.5zM601 1050v-50q-131 0 -249.5 66t-184.5 184.5t-66 249.5q0 130 67 250t186 184.5t247 65.5v-50q-115 -1 -222.5 -59t-167.5 -166t-60 -225q0 -118 59 -224.5
t166 -166t225 -59.5zM601 1625v-25q-26 0 -50 -13t-37.5 -37t-13.5 -50t13.5 -50t36.5 -37q24 -13 51 -13v-25q-33 0 -63 16.5t-46.5 46t-16.5 62.5t17 62.5t47 46t62 16.5z" />
    <glyph glyph-name="germandbls" unicode="&#xdf;" horiz-adv-x="1251" 
 />
    <glyph glyph-name="registered" unicode="&#xae;" horiz-adv-x="1509" 
 />
    <glyph glyph-name="copyright" unicode="&#xa9;" horiz-adv-x="1509" 
 />
    <glyph glyph-name="trademark" unicode="&#x2122;" horiz-adv-x="2048" 
 />
    <glyph glyph-name="acute" unicode="&#xb4;" horiz-adv-x="682" 
 />
    <glyph glyph-name="dieresis" unicode="&#xa8;" horiz-adv-x="682" 
 />
    <glyph glyph-name="notequal" unicode="&#x2260;" horiz-adv-x="1124" 
 />
    <glyph glyph-name="AE" unicode="&#xc6;" horiz-adv-x="2048" 
 />
    <glyph glyph-name="Oslash" unicode="&#xd8;" horiz-adv-x="1593" 
 />
    <glyph glyph-name="infinity" unicode="&#x221e;" horiz-adv-x="1460" 
 />
    <glyph glyph-name="plusminus" unicode="&#xb1;" horiz-adv-x="1124" 
 />
    <glyph glyph-name="lessequal" unicode="&#x2264;" horiz-adv-x="1124" 
 />
    <glyph glyph-name="greaterequal" unicode="&#x2265;" horiz-adv-x="1124" 
 />
    <glyph glyph-name="yen" unicode="&#xa5;" 
 />
    <glyph glyph-name="mu" unicode="&#xb5;" horiz-adv-x="1180" 
 />
    <glyph glyph-name="partialdiff" unicode="&#x2202;" horiz-adv-x="1012" 
 />
    <glyph glyph-name="summation" unicode="&#x2211;" horiz-adv-x="1460" 
 />
    <glyph glyph-name="product" unicode="&#x220f;" horiz-adv-x="1686" 
 />
    <glyph glyph-name="glyph155" horiz-adv-x="1124" 
 />
    <glyph glyph-name="integral" unicode="&#x222b;" horiz-adv-x="561" 
 />
    <glyph glyph-name="ordfeminine" unicode="&#xaa;" horiz-adv-x="758" 
 />
    <glyph glyph-name="ordmasculine" unicode="&#xba;" horiz-adv-x="748" 
 />
    <glyph glyph-name="Omega" unicode="&#x2126;" horiz-adv-x="1573" 
 />
    <glyph glyph-name="ae" unicode="&#xe6;" horiz-adv-x="1821" 
 />
    <glyph glyph-name="oslash" unicode="&#xf8;" horiz-adv-x="1251" 
 />
    <glyph glyph-name="questiondown" unicode="&#xbf;" horiz-adv-x="1251" 
 />
    <glyph glyph-name="exclamdown" unicode="&#xa1;" horiz-adv-x="682" 
 />
    <glyph glyph-name="logicalnot" unicode="&#xac;" horiz-adv-x="1196" 
 />
    <glyph glyph-name="radical" unicode="&#x221a;" horiz-adv-x="1124" 
 />
    <glyph glyph-name="florin" unicode="&#x192;" 
 />
    <glyph glyph-name="approxequal" unicode="&#x2248;" horiz-adv-x="1124" 
 />
    <glyph glyph-name="Delta" unicode="&#x2206;" horiz-adv-x="1253" 
 />
    <glyph glyph-name="guillemotleft" unicode="&#xab;" 
 />
    <glyph glyph-name="guillemotright" unicode="&#xbb;" 
 />
    <glyph glyph-name="ellipsis" unicode="&#x2026;" horiz-adv-x="2048" 
 />
    <glyph glyph-name="Agrave" unicode="&#xc0;" horiz-adv-x="1366" 
 />
    <glyph glyph-name="Atilde" unicode="&#xc3;" horiz-adv-x="1366" 
 />
    <glyph glyph-name="Otilde" unicode="&#xd5;" horiz-adv-x="1593" 
 />
    <glyph glyph-name="OE" unicode="&#x152;" horiz-adv-x="2048" 
 />
    <glyph glyph-name="oe" unicode="&#x153;" horiz-adv-x="1933" 
 />
    <glyph glyph-name="endash" unicode="&#x2013;" 
 />
    <glyph glyph-name="emdash" unicode="&#x2014;" horiz-adv-x="2048" 
 />
    <glyph glyph-name="quotedblleft" unicode="&#x201c;" horiz-adv-x="682" 
 />
    <glyph glyph-name="quotedblright" unicode="&#x201d;" horiz-adv-x="682" 
 />
    <glyph glyph-name="quoteleft" unicode="&#x2018;" horiz-adv-x="455" 
 />
    <glyph glyph-name="quoteright" unicode="&#x2019;" horiz-adv-x="455" 
 />
    <glyph glyph-name="divide" unicode="&#xf7;" horiz-adv-x="1124" 
 />
    <glyph glyph-name="lozenge" unicode="&#x25ca;" horiz-adv-x="1012" 
 />
    <glyph glyph-name="ydieresis" unicode="&#xff;" horiz-adv-x="1024" 
 />
    <glyph glyph-name="Ydieresis" unicode="&#x178;" horiz-adv-x="1366" 
 />
    <glyph glyph-name="fraction" unicode="&#x2044;" horiz-adv-x="342" 
 />
    <glyph glyph-name="fraction" unicode="&#x2215;" horiz-adv-x="342" 
 />
    <glyph glyph-name="Euro" unicode="&#x20ac;" 
 />
    <glyph glyph-name="guilsinglleft" unicode="&#x2039;" horiz-adv-x="682" 
 />
    <glyph glyph-name="guilsinglright" unicode="&#x203a;" horiz-adv-x="682" 
 />
    <glyph glyph-name="uniF001" unicode="&#xf001;" horiz-adv-x="1024" 
 />
    <glyph glyph-name="uniF001" unicode="&#xfb01;" horiz-adv-x="1024" 
 />
    <glyph glyph-name="uniF002" unicode="&#xf002;" horiz-adv-x="1024" 
 />
    <glyph glyph-name="uniF002" unicode="&#xfb02;" horiz-adv-x="1024" 
 />
    <glyph glyph-name="daggerdbl" unicode="&#x2021;" 
 />
    <glyph glyph-name="periodcentered" unicode="&#xb7;" horiz-adv-x="569" 
 />
    <glyph glyph-name="periodcentered" unicode="&#x2219;" horiz-adv-x="569" 
 />
    <glyph glyph-name="quotesinglbase" unicode="&#x201a;" horiz-adv-x="455" 
 />
    <glyph glyph-name="quotedblbase" unicode="&#x201e;" horiz-adv-x="682" 
 />
    <glyph glyph-name="perthousand" unicode="&#x2030;" horiz-adv-x="2048" 
 />
    <glyph glyph-name="Acircumflex" unicode="&#xc2;" horiz-adv-x="1366" 
 />
    <glyph glyph-name="Ecircumflex" unicode="&#xca;" horiz-adv-x="1366" 
 />
    <glyph glyph-name="Aacute" unicode="&#xc1;" horiz-adv-x="1366" 
 />
    <glyph glyph-name="Edieresis" unicode="&#xcb;" horiz-adv-x="1366" 
 />
    <glyph glyph-name="Egrave" unicode="&#xc8;" horiz-adv-x="1366" 
 />
    <glyph glyph-name="Iacute" unicode="&#xcd;" horiz-adv-x="569" 
 />
    <glyph glyph-name="Icircumflex" unicode="&#xce;" horiz-adv-x="569" 
 />
    <glyph glyph-name="Idieresis" unicode="&#xcf;" horiz-adv-x="569" 
 />
    <glyph glyph-name="Igrave" unicode="&#xcc;" horiz-adv-x="569" 
 />
    <glyph glyph-name="Oacute" unicode="&#xd3;" horiz-adv-x="1593" 
 />
    <glyph glyph-name="Ocircumflex" unicode="&#xd4;" horiz-adv-x="1593" 
 />
    <glyph glyph-name="Ograve" unicode="&#xd2;" horiz-adv-x="1593" 
 />
    <glyph glyph-name="Uacute" unicode="&#xda;" horiz-adv-x="1479" 
 />
    <glyph glyph-name="Ucircumflex" unicode="&#xdb;" horiz-adv-x="1479" 
 />
    <glyph glyph-name="Ugrave" unicode="&#xd9;" horiz-adv-x="1479" 
 />
    <glyph glyph-name="dotlessi" unicode="&#x131;" horiz-adv-x="569" 
 />
    <glyph glyph-name="circumflex" unicode="&#x2c6;" horiz-adv-x="682" 
 />
    <glyph glyph-name="tilde" unicode="&#x2dc;" horiz-adv-x="682" 
 />
    <glyph glyph-name="uni02C9" unicode="&#x2c9;" horiz-adv-x="682" 
 />
    <glyph glyph-name="breve" unicode="&#x2d8;" horiz-adv-x="682" 
 />
    <glyph glyph-name="dotaccent" unicode="&#x2d9;" horiz-adv-x="682" 
 />
    <glyph glyph-name="ring" unicode="&#x2da;" horiz-adv-x="682" 
 />
    <glyph glyph-name="cedilla" unicode="&#xb8;" horiz-adv-x="682" 
 />
    <glyph glyph-name="hungarumlaut" unicode="&#x2dd;" horiz-adv-x="682" 
 />
    <glyph glyph-name="ogonek" unicode="&#x2db;" horiz-adv-x="682" 
 />
    <glyph glyph-name="caron" unicode="&#x2c7;" horiz-adv-x="682" 
 />
    <glyph glyph-name="Lslash" unicode="&#x141;" 
 />
    <glyph glyph-name="lslash" unicode="&#x142;" horiz-adv-x="455" 
 />
    <glyph glyph-name="Scaron" unicode="&#x160;" horiz-adv-x="1366" 
 />
    <glyph glyph-name="scaron" unicode="&#x161;" horiz-adv-x="1024" 
 />
    <glyph glyph-name="Zcaron" unicode="&#x17d;" horiz-adv-x="1251" 
 />
    <glyph glyph-name="zcaron" unicode="&#x17e;" horiz-adv-x="1024" 
 />
    <glyph glyph-name="brokenbar" unicode="&#xa6;" horiz-adv-x="532" 
 />
    <glyph glyph-name="Eth" unicode="&#xd0;" horiz-adv-x="1479" 
 />
    <glyph glyph-name="eth" unicode="&#xf0;" 
 />
    <glyph glyph-name="Yacute" unicode="&#xdd;" horiz-adv-x="1366" 
 />
    <glyph glyph-name="yacute" unicode="&#xfd;" horiz-adv-x="1024" 
 />
    <glyph glyph-name="Thorn" unicode="&#xde;" horiz-adv-x="1366" 
 />
    <glyph glyph-name="thorn" unicode="&#xfe;" 
 />
    <glyph glyph-name="minus" unicode="&#x2212;" horiz-adv-x="1196" 
 />
    <glyph glyph-name="multiply" unicode="&#xd7;" horiz-adv-x="1196" 
 />
    <glyph glyph-name="uni00B9" unicode="&#xb9;" horiz-adv-x="682" 
 />
    <glyph glyph-name="uni00B2" unicode="&#xb2;" horiz-adv-x="682" 
 />
    <glyph glyph-name="uni00B3" unicode="&#xb3;" horiz-adv-x="682" 
 />
    <glyph glyph-name="onehalf" unicode="&#xbd;" horiz-adv-x="1708" 
 />
    <glyph glyph-name="onequarter" unicode="&#xbc;" horiz-adv-x="1708" 
 />
    <glyph glyph-name="threequarters" unicode="&#xbe;" horiz-adv-x="1708" 
 />
    <glyph glyph-name="franc" unicode="&#x20a3;" 
 />
    <glyph glyph-name="Gbreve" unicode="&#x11e;" horiz-adv-x="1593" 
 />
    <glyph glyph-name="gbreve" unicode="&#x11f;" 
 />
    <glyph glyph-name="Idotaccent" unicode="&#x130;" horiz-adv-x="569" 
 />
    <glyph glyph-name="Scedilla" unicode="&#x15e;" horiz-adv-x="1366" 
 />
    <glyph glyph-name="scedilla" unicode="&#x15f;" horiz-adv-x="1024" 
 />
    <glyph glyph-name="Cacute" unicode="&#x106;" horiz-adv-x="1479" 
 />
    <glyph glyph-name="cacute" unicode="&#x107;" horiz-adv-x="1024" 
 />
    <glyph glyph-name="Ccaron" unicode="&#x10c;" horiz-adv-x="1479" 
 />
    <glyph glyph-name="ccaron" unicode="&#x10d;" horiz-adv-x="1024" 
 />
    <glyph glyph-name="dcroat" unicode="&#x111;" 
 />
    <glyph glyph-name="currency" unicode="&#xa4;" 
 />
    <glyph glyph-name="macron" unicode="&#xaf;" horiz-adv-x="1131" 
 />
    <glyph glyph-name="Amacron" unicode="&#x100;" horiz-adv-x="1366" 
 />
    <glyph glyph-name="amacron" unicode="&#x101;" 
 />
    <glyph glyph-name="Abreve" unicode="&#x102;" horiz-adv-x="1366" 
 />
    <glyph glyph-name="abreve" unicode="&#x103;" 
 />
    <glyph glyph-name="Aogonek" unicode="&#x104;" horiz-adv-x="1366" 
 />
    <glyph glyph-name="aogonek" unicode="&#x105;" 
 />
    <glyph glyph-name="Ccircumflex" unicode="&#x108;" horiz-adv-x="1479" 
 />
    <glyph glyph-name="ccircumflex" unicode="&#x109;" horiz-adv-x="1024" 
 />
    <glyph glyph-name="Cdotaccent" unicode="&#x10a;" horiz-adv-x="1479" 
 />
    <glyph glyph-name="cdotaccent" unicode="&#x10b;" horiz-adv-x="1024" 
 />
    <glyph glyph-name="Dcaron" unicode="&#x10e;" horiz-adv-x="1479" 
 />
    <glyph glyph-name="dcaron" unicode="&#x10f;" horiz-adv-x="1259" 
 />
    <glyph glyph-name="Dcroat" unicode="&#x110;" horiz-adv-x="1479" 
 />
    <glyph glyph-name="Emacron" unicode="&#x112;" horiz-adv-x="1366" 
 />
    <glyph glyph-name="emacron" unicode="&#x113;" 
 />
    <glyph glyph-name="Ebreve" unicode="&#x114;" horiz-adv-x="1366" 
 />
    <glyph glyph-name="ebreve" unicode="&#x115;" 
 />
    <glyph glyph-name="Edotaccent" unicode="&#x116;" horiz-adv-x="1366" 
 />
    <glyph glyph-name="edotaccent" unicode="&#x117;" 
 />
    <glyph glyph-name="Eogonek" unicode="&#x118;" horiz-adv-x="1366" 
 />
    <glyph glyph-name="eogonek" unicode="&#x119;" 
 />
    <glyph glyph-name="Ecaron" unicode="&#x11a;" horiz-adv-x="1366" 
 />
    <glyph glyph-name="ecaron" unicode="&#x11b;" 
 />
    <glyph glyph-name="Gcircumflex" unicode="&#x11c;" horiz-adv-x="1593" 
 />
    <glyph glyph-name="gcircumflex" unicode="&#x11d;" 
 />
    <glyph glyph-name="Gdotaccent" unicode="&#x120;" horiz-adv-x="1593" 
 />
    <glyph glyph-name="gdotaccent" unicode="&#x121;" 
 />
    <glyph glyph-name="Gcommaaccent" unicode="&#x122;" horiz-adv-x="1593" 
 />
    <glyph glyph-name="gcommaaccent" unicode="&#x123;" 
 />
    <glyph glyph-name="Hcircumflex" unicode="&#x124;" horiz-adv-x="1479" 
 />
    <glyph glyph-name="hcircumflex" unicode="&#x125;" 
 />
    <glyph glyph-name="Hbar" unicode="&#x126;" horiz-adv-x="1479" 
 />
    <glyph glyph-name="hbar" unicode="&#x127;" 
 />
    <glyph glyph-name="Itilde" unicode="&#x128;" horiz-adv-x="569" 
 />
    <glyph glyph-name="itilde" unicode="&#x129;" horiz-adv-x="569" 
 />
    <glyph glyph-name="Imacron" unicode="&#x12a;" horiz-adv-x="569" 
 />
    <glyph glyph-name="imacron" unicode="&#x12b;" horiz-adv-x="569" 
 />
    <glyph glyph-name="Ibreve" unicode="&#x12c;" horiz-adv-x="569" 
 />
    <glyph glyph-name="ibreve" unicode="&#x12d;" horiz-adv-x="569" 
 />
    <glyph glyph-name="Iogonek" unicode="&#x12e;" horiz-adv-x="569" 
 />
    <glyph glyph-name="iogonek" unicode="&#x12f;" horiz-adv-x="455" 
 />
    <glyph glyph-name="IJ" unicode="&#x132;" horiz-adv-x="1505" 
 />
    <glyph glyph-name="ij" unicode="&#x133;" horiz-adv-x="909" 
 />
    <glyph glyph-name="Jcircumflex" unicode="&#x134;" horiz-adv-x="1024" 
 />
    <glyph glyph-name="jcircumflex" unicode="&#x135;" horiz-adv-x="455" 
 />
    <glyph glyph-name="Kcommaaccent" unicode="&#x136;" horiz-adv-x="1366" 
 />
    <glyph glyph-name="kcommaaccent" unicode="&#x137;" horiz-adv-x="1024" 
 />
    <glyph glyph-name="kgreenlandic" unicode="&#x138;" horiz-adv-x="1024" 
 />
    <glyph glyph-name="Lacute" unicode="&#x139;" 
 />
    <glyph glyph-name="lacute" unicode="&#x13a;" horiz-adv-x="455" 
 />
    <glyph glyph-name="Lcommaaccent" unicode="&#x13b;" 
 />
    <glyph glyph-name="lcommaaccent" unicode="&#x13c;" horiz-adv-x="455" 
 />
    <glyph glyph-name="Lcaron" unicode="&#x13d;" 
 />
    <glyph glyph-name="lcaron" unicode="&#x13e;" horiz-adv-x="597" 
 />
    <glyph glyph-name="Ldot" unicode="&#x13f;" 
 />
    <glyph glyph-name="ldot" unicode="&#x140;" horiz-adv-x="684" 
 />
    <glyph glyph-name="Nacute" unicode="&#x143;" horiz-adv-x="1479" 
 />
    <glyph glyph-name="nacute" unicode="&#x144;" 
 />
    <glyph glyph-name="Ncommaaccent" unicode="&#x145;" horiz-adv-x="1479" 
 />
    <glyph glyph-name="ncommaaccent" unicode="&#x146;" 
 />
    <glyph glyph-name="Ncaron" unicode="&#x147;" horiz-adv-x="1479" 
 />
    <glyph glyph-name="ncaron" unicode="&#x148;" 
 />
    <glyph glyph-name="napostrophe" unicode="&#x149;" horiz-adv-x="1237" 
 />
    <glyph glyph-name="Eng" unicode="&#x14a;" horiz-adv-x="1481" 
 />
    <glyph glyph-name="eng" unicode="&#x14b;" 
 />
    <glyph glyph-name="Omacron" unicode="&#x14c;" horiz-adv-x="1593" 
 />
    <glyph glyph-name="omacron" unicode="&#x14d;" 
 />
    <glyph glyph-name="Obreve" unicode="&#x14e;" horiz-adv-x="1593" 
 />
    <glyph glyph-name="obreve" unicode="&#x14f;" 
 />
    <glyph glyph-name="Ohungarumlaut" unicode="&#x150;" horiz-adv-x="1593" 
 />
    <glyph glyph-name="ohungarumlaut" unicode="&#x151;" 
 />
    <glyph glyph-name="Racute" unicode="&#x154;" horiz-adv-x="1479" 
 />
    <glyph glyph-name="racute" unicode="&#x155;" horiz-adv-x="682" 
 />
    <glyph glyph-name="Rcommaaccent" unicode="&#x156;" horiz-adv-x="1479" 
 />
    <glyph glyph-name="rcommaaccent" unicode="&#x157;" horiz-adv-x="682" 
 />
    <glyph glyph-name="Rcaron" unicode="&#x158;" horiz-adv-x="1479" 
 />
    <glyph glyph-name="rcaron" unicode="&#x159;" horiz-adv-x="682" 
 />
    <glyph glyph-name="Sacute" unicode="&#x15a;" horiz-adv-x="1366" 
 />
    <glyph glyph-name="sacute" unicode="&#x15b;" horiz-adv-x="1024" 
 />
    <glyph glyph-name="Scircumflex" unicode="&#x15c;" horiz-adv-x="1366" 
 />
    <glyph glyph-name="scircumflex" unicode="&#x15d;" horiz-adv-x="1024" 
 />
    <glyph glyph-name="Tcommaaccent" unicode="&#x162;" horiz-adv-x="1251" 
 />
    <glyph glyph-name="tcommaaccent" unicode="&#x163;" horiz-adv-x="569" 
 />
    <glyph glyph-name="Tcaron" unicode="&#x164;" horiz-adv-x="1251" 
 />
    <glyph glyph-name="tcaron" unicode="&#x165;" horiz-adv-x="768" 
 />
    <glyph glyph-name="Tbar" unicode="&#x166;" horiz-adv-x="1251" 
 />
    <glyph glyph-name="tbar" unicode="&#x167;" horiz-adv-x="569" 
 />
    <glyph glyph-name="Utilde" unicode="&#x168;" horiz-adv-x="1479" 
 />
    <glyph glyph-name="utilde" unicode="&#x169;" 
 />
    <glyph glyph-name="Umacron" unicode="&#x16a;" horiz-adv-x="1479" 
 />
    <glyph glyph-name="umacron" unicode="&#x16b;" 
 />
    <glyph glyph-name="Ubreve" unicode="&#x16c;" horiz-adv-x="1479" 
 />
    <glyph glyph-name="ubreve" unicode="&#x16d;" 
 />
    <glyph glyph-name="Uring" unicode="&#x16e;" horiz-adv-x="1479" 
 />
    <glyph glyph-name="uring" unicode="&#x16f;" 
 />
    <glyph glyph-name="Uhungarumlaut" unicode="&#x170;" horiz-adv-x="1479" 
 />
    <glyph glyph-name="uhungarumlaut" unicode="&#x171;" 
 />
    <glyph glyph-name="Uogonek" unicode="&#x172;" horiz-adv-x="1479" 
 />
    <glyph glyph-name="uogonek" unicode="&#x173;" 
 />
    <glyph glyph-name="Wcircumflex" unicode="&#x174;" horiz-adv-x="1933" 
 />
    <glyph glyph-name="wcircumflex" unicode="&#x175;" horiz-adv-x="1479" 
 />
    <glyph glyph-name="Ycircumflex" unicode="&#x176;" horiz-adv-x="1366" 
 />
    <glyph glyph-name="ycircumflex" unicode="&#x177;" horiz-adv-x="1024" 
 />
    <glyph glyph-name="Zacute" unicode="&#x179;" horiz-adv-x="1251" 
 />
    <glyph glyph-name="zacute" unicode="&#x17a;" horiz-adv-x="1024" 
 />
    <glyph glyph-name="Zdotaccent" unicode="&#x17b;" horiz-adv-x="1251" 
 />
    <glyph glyph-name="zdotaccent" unicode="&#x17c;" horiz-adv-x="1024" 
 />
    <glyph glyph-name="longs" unicode="&#x17f;" horiz-adv-x="455" 
 />
    <glyph glyph-name="Aringacute" unicode="&#x1fa;" horiz-adv-x="1366" 
 />
    <glyph glyph-name="aringacute" unicode="&#x1fb;" 
 />
    <glyph glyph-name="AEacute" unicode="&#x1fc;" horiz-adv-x="2048" 
 />
    <glyph glyph-name="aeacute" unicode="&#x1fd;" horiz-adv-x="1821" 
 />
    <glyph glyph-name="Oslashacute" unicode="&#x1fe;" horiz-adv-x="1593" 
 />
    <glyph glyph-name="oslashacute" unicode="&#x1ff;" horiz-adv-x="1251" 
 />
    <glyph glyph-name="tonos" unicode="&#x384;" horiz-adv-x="682" 
 />
    <glyph glyph-name="dieresistonos" unicode="&#x385;" horiz-adv-x="682" 
 />
    <glyph glyph-name="Alphatonos" unicode="&#x386;" horiz-adv-x="1367" 
 />
    <glyph glyph-name="anoteleia" unicode="&#x387;" horiz-adv-x="569" 
 />
    <glyph glyph-name="Epsilontonos" unicode="&#x388;" horiz-adv-x="1606" 
 />
    <glyph glyph-name="Etatonos" unicode="&#x389;" horiz-adv-x="1716" 
 />
    <glyph glyph-name="Iotatonos" unicode="&#x38a;" horiz-adv-x="786" 
 />
    <glyph glyph-name="Omicrontonos" unicode="&#x38c;" horiz-adv-x="1586" 
 />
    <glyph glyph-name="Upsilontonos" unicode="&#x38e;" horiz-adv-x="1752" 
 />
    <glyph glyph-name="Omegatonos" unicode="&#x38f;" horiz-adv-x="1541" 
 />
    <glyph glyph-name="iotadieresistonos" unicode="&#x390;" horiz-adv-x="455" 
 />
    <glyph glyph-name="Alpha" unicode="&#x391;" horiz-adv-x="1366" 
 />
    <glyph glyph-name="Beta" unicode="&#x392;" horiz-adv-x="1366" 
 />
    <glyph glyph-name="Gamma" unicode="&#x393;" horiz-adv-x="1128" 
 />
    <glyph glyph-name="uni0394" unicode="&#x394;" horiz-adv-x="1368" 
 />
    <glyph glyph-name="Epsilon" unicode="&#x395;" horiz-adv-x="1366" 
 />
    <glyph glyph-name="Zeta" unicode="&#x396;" horiz-adv-x="1251" 
 />
    <glyph glyph-name="Eta" unicode="&#x397;" horiz-adv-x="1479" 
 />
    <glyph glyph-name="Theta" unicode="&#x398;" horiz-adv-x="1593" 
 />
    <glyph glyph-name="Iota" unicode="&#x399;" horiz-adv-x="569" 
 />
    <glyph glyph-name="Kappa" unicode="&#x39a;" horiz-adv-x="1366" 
 />
    <glyph glyph-name="Lambda" unicode="&#x39b;" horiz-adv-x="1368" 
 />
    <glyph glyph-name="Mu" unicode="&#x39c;" horiz-adv-x="1706" 
 />
    <glyph glyph-name="Nu" unicode="&#x39d;" horiz-adv-x="1479" 
 />
    <glyph glyph-name="Xi" unicode="&#x39e;" horiz-adv-x="1331" 
 />
    <glyph glyph-name="Omicron" unicode="&#x39f;" horiz-adv-x="1593" 
 />
    <glyph glyph-name="Pi" unicode="&#x3a0;" horiz-adv-x="1479" 
 />
    <glyph glyph-name="Rho" unicode="&#x3a1;" horiz-adv-x="1366" 
 />
    <glyph glyph-name="Sigma" unicode="&#x3a3;" horiz-adv-x="1266" 
 />
    <glyph glyph-name="Tau" unicode="&#x3a4;" horiz-adv-x="1251" 
 />
    <glyph glyph-name="Upsilon" unicode="&#x3a5;" horiz-adv-x="1366" 
 />
    <glyph glyph-name="Phi" unicode="&#x3a6;" horiz-adv-x="1634" 
 />
    <glyph glyph-name="Chi" unicode="&#x3a7;" horiz-adv-x="1366" 
 />
    <glyph glyph-name="Psi" unicode="&#x3a8;" horiz-adv-x="1711" 
 />
    <glyph glyph-name="uni03A9" unicode="&#x3a9;" horiz-adv-x="1531" 
 />
    <glyph glyph-name="Iotadieresis" unicode="&#x3aa;" horiz-adv-x="569" 
 />
    <glyph glyph-name="Upsilondieresis" unicode="&#x3ab;" horiz-adv-x="1366" 
 />
    <glyph glyph-name="alphatonos" unicode="&#x3ac;" horiz-adv-x="1184" 
 />
    <glyph glyph-name="epsilontonos" unicode="&#x3ad;" horiz-adv-x="913" 
 />
    <glyph glyph-name="etatonos" unicode="&#x3ae;" 
 />
    <glyph glyph-name="iotatonos" unicode="&#x3af;" horiz-adv-x="455" 
 />
    <glyph glyph-name="upsilondieresistonos" unicode="&#x3b0;" horiz-adv-x="1120" 
 />
    <glyph glyph-name="alpha" unicode="&#x3b1;" horiz-adv-x="1184" 
 />
    <glyph glyph-name="beta" unicode="&#x3b2;" horiz-adv-x="1178" 
 />
    <glyph glyph-name="gamma" unicode="&#x3b3;" horiz-adv-x="1024" 
 />
    <glyph glyph-name="delta" unicode="&#x3b4;" horiz-adv-x="1140" 
 />
    <glyph glyph-name="epsilon" unicode="&#x3b5;" horiz-adv-x="913" 
 />
    <glyph glyph-name="zeta" unicode="&#x3b6;" horiz-adv-x="903" 
 />
    <glyph glyph-name="eta" unicode="&#x3b7;" 
 />
    <glyph glyph-name="theta" unicode="&#x3b8;" 
 />
    <glyph glyph-name="iota" unicode="&#x3b9;" horiz-adv-x="455" 
 />
    <glyph glyph-name="kappa" unicode="&#x3ba;" horiz-adv-x="1024" 
 />
    <glyph glyph-name="lambda" unicode="&#x3bb;" horiz-adv-x="1024" 
 />
    <glyph glyph-name="uni03BC" unicode="&#x3bc;" horiz-adv-x="1180" 
 />
    <glyph glyph-name="nu" unicode="&#x3bd;" horiz-adv-x="1024" 
 />
    <glyph glyph-name="xi" unicode="&#x3be;" horiz-adv-x="917" 
 />
    <glyph glyph-name="omicron" unicode="&#x3bf;" 
 />
    <glyph glyph-name="pi" unicode="&#x3c0;" horiz-adv-x="1413" 
 />
    <glyph glyph-name="rho" unicode="&#x3c1;" horiz-adv-x="1165" 
 />
    <glyph glyph-name="sigma1" unicode="&#x3c2;" horiz-adv-x="987" 
 />
    <glyph glyph-name="sigma" unicode="&#x3c3;" horiz-adv-x="1264" 
 />
    <glyph glyph-name="tau" unicode="&#x3c4;" horiz-adv-x="809" 
 />
    <glyph glyph-name="upsilon" unicode="&#x3c5;" horiz-adv-x="1120" 
 />
    <glyph glyph-name="phi" unicode="&#x3c6;" horiz-adv-x="1328" 
 />
    <glyph glyph-name="chi" unicode="&#x3c7;" horiz-adv-x="1075" 
 />
    <glyph glyph-name="psi" unicode="&#x3c8;" horiz-adv-x="1460" 
 />
    <glyph glyph-name="omega" unicode="&#x3c9;" horiz-adv-x="1599" 
 />
    <glyph glyph-name="iotadieresis" unicode="&#x3ca;" horiz-adv-x="455" 
 />
    <glyph glyph-name="upsilondieresis" unicode="&#x3cb;" horiz-adv-x="1120" 
 />
    <glyph glyph-name="omicrontonos" unicode="&#x3cc;" 
 />
    <glyph glyph-name="upsilontonos" unicode="&#x3cd;" horiz-adv-x="1120" 
 />
    <glyph glyph-name="omegatonos" unicode="&#x3ce;" horiz-adv-x="1599" 
 />
    <glyph glyph-name="afii10023" unicode="&#x401;" horiz-adv-x="1367" 
 />
    <glyph glyph-name="afii10051" unicode="&#x402;" horiz-adv-x="1771" 
 />
    <glyph glyph-name="afii10052" unicode="&#x403;" horiz-adv-x="1109" 
 />
    <glyph glyph-name="afii10053" unicode="&#x404;" horiz-adv-x="1472" 
 />
    <glyph glyph-name="afii10054" unicode="&#x405;" horiz-adv-x="1366" 
 />
    <glyph glyph-name="afii10055" unicode="&#x406;" horiz-adv-x="569" 
 />
    <glyph glyph-name="afii10056" unicode="&#x407;" horiz-adv-x="569" 
 />
    <glyph glyph-name="afii10057" unicode="&#x408;" horiz-adv-x="1024" 
 />
    <glyph glyph-name="afii10058" unicode="&#x409;" horiz-adv-x="2165" 
 />
    <glyph glyph-name="afii10059" unicode="&#x40a;" horiz-adv-x="2069" 
 />
    <glyph glyph-name="afii10060" unicode="&#x40b;" horiz-adv-x="1749" 
 />
    <glyph glyph-name="afii10061" unicode="&#x40c;" horiz-adv-x="1193" 
 />
    <glyph glyph-name="afii10062" unicode="&#x40e;" horiz-adv-x="1301" 
 />
    <glyph glyph-name="afii10145" unicode="&#x40f;" horiz-adv-x="1472" 
 />
    <glyph glyph-name="afii10017" unicode="&#x410;" horiz-adv-x="1366" 
 />
    <glyph glyph-name="afii10018" unicode="&#x411;" horiz-adv-x="1344" 
 />
    <glyph glyph-name="afii10019" unicode="&#x412;" horiz-adv-x="1366" 
 />
    <glyph glyph-name="afii10020" unicode="&#x413;" horiz-adv-x="1109" 
 />
    <glyph glyph-name="afii10021" unicode="&#x414;" horiz-adv-x="1387" 
 />
    <glyph glyph-name="afii10022" unicode="&#x415;" horiz-adv-x="1366" 
 />
    <glyph glyph-name="afii10024" unicode="&#x416;" horiz-adv-x="1891" 
 />
    <glyph glyph-name="afii10025" unicode="&#x417;" horiz-adv-x="1237" 
 />
    <glyph glyph-name="afii10026" unicode="&#x418;" horiz-adv-x="1472" 
 />
    <glyph glyph-name="afii10027" unicode="&#x419;" horiz-adv-x="1472" 
 />
    <glyph glyph-name="afii10028" unicode="&#x41a;" horiz-adv-x="1193" 
 />
    <glyph glyph-name="afii10029" unicode="&#x41b;" horiz-adv-x="1344" 
 />
    <glyph glyph-name="afii10030" unicode="&#x41c;" horiz-adv-x="1706" 
 />
    <glyph glyph-name="afii10031" unicode="&#x41d;" horiz-adv-x="1479" 
 />
    <glyph glyph-name="afii10032" unicode="&#x41e;" horiz-adv-x="1593" 
 />
    <glyph glyph-name="afii10033" unicode="&#x41f;" horiz-adv-x="1472" 
 />
    <glyph glyph-name="afii10034" unicode="&#x420;" horiz-adv-x="1366" 
 />
    <glyph glyph-name="afii10035" unicode="&#x421;" horiz-adv-x="1479" 
 />
    <glyph glyph-name="afii10036" unicode="&#x422;" horiz-adv-x="1251" 
 />
    <glyph glyph-name="afii10037" unicode="&#x423;" horiz-adv-x="1301" 
 />
    <glyph glyph-name="afii10038" unicode="&#x424;" horiz-adv-x="1557" 
 />
    <glyph glyph-name="afii10039" unicode="&#x425;" horiz-adv-x="1366" 
 />
    <glyph glyph-name="afii10040" unicode="&#x426;" horiz-adv-x="1515" 
 />
    <glyph glyph-name="afii10041" unicode="&#x427;" horiz-adv-x="1365" 
 />
    <glyph glyph-name="afii10042" unicode="&#x428;" horiz-adv-x="1877" 
 />
    <glyph glyph-name="afii10043" unicode="&#x429;" horiz-adv-x="1920" 
 />
    <glyph glyph-name="afii10044" unicode="&#x42a;" horiz-adv-x="1621" 
 />
    <glyph glyph-name="afii10045" unicode="&#x42b;" horiz-adv-x="1813" 
 />
    <glyph glyph-name="afii10046" unicode="&#x42c;" horiz-adv-x="1344" 
 />
    <glyph glyph-name="afii10047" unicode="&#x42d;" horiz-adv-x="1472" 
 />
    <glyph glyph-name="afii10048" unicode="&#x42e;" horiz-adv-x="2069" 
 />
    <glyph glyph-name="afii10049" unicode="&#x42f;" horiz-adv-x="1479" 
 />
    <glyph glyph-name="afii10065" unicode="&#x430;" 
 />
    <glyph glyph-name="afii10066" unicode="&#x431;" horiz-adv-x="1173" 
 />
    <glyph glyph-name="afii10067" unicode="&#x432;" horiz-adv-x="1088" 
 />
    <glyph glyph-name="afii10068" unicode="&#x433;" horiz-adv-x="747" 
 />
    <glyph glyph-name="afii10069" unicode="&#x434;" horiz-adv-x="1195" 
 />
    <glyph glyph-name="afii10070" unicode="&#x435;" 
 />
    <glyph glyph-name="afii10072" unicode="&#x436;" horiz-adv-x="1370" 
 />
    <glyph glyph-name="afii10073" unicode="&#x437;" horiz-adv-x="939" 
 />
    <glyph glyph-name="afii10074" unicode="&#x438;" horiz-adv-x="1144" 
 />
    <glyph glyph-name="afii10075" unicode="&#x439;" horiz-adv-x="1144" 
 />
    <glyph glyph-name="afii10076" unicode="&#x43a;" horiz-adv-x="896" 
 />
    <glyph glyph-name="afii10077" unicode="&#x43b;" horiz-adv-x="1195" 
 />
    <glyph glyph-name="afii10078" unicode="&#x43c;" horiz-adv-x="1408" 
 />
    <glyph glyph-name="afii10079" unicode="&#x43d;" horiz-adv-x="1131" 
 />
    <glyph glyph-name="afii10080" unicode="&#x43e;" 
 />
    <glyph glyph-name="afii10081" unicode="&#x43f;" horiz-adv-x="1109" 
 />
    <glyph glyph-name="afii10082" unicode="&#x440;" 
 />
    <glyph glyph-name="afii10083" unicode="&#x441;" horiz-adv-x="1024" 
 />
    <glyph glyph-name="afii10084" unicode="&#x442;" horiz-adv-x="938" 
 />
    <glyph glyph-name="afii10085" unicode="&#x443;" horiz-adv-x="1024" 
 />
    <glyph glyph-name="afii10086" unicode="&#x444;" horiz-adv-x="1685" 
 />
    <glyph glyph-name="afii10087" unicode="&#x445;" horiz-adv-x="1024" 
 />
    <glyph glyph-name="afii10088" unicode="&#x446;" horiz-adv-x="1173" 
 />
    <glyph glyph-name="afii10089" unicode="&#x447;" horiz-adv-x="1067" 
 />
    <glyph glyph-name="afii10090" unicode="&#x448;" horiz-adv-x="1643" 
 />
    <glyph glyph-name="afii10091" unicode="&#x449;" horiz-adv-x="1685" 
 />
    <glyph glyph-name="afii10092" unicode="&#x44a;" horiz-adv-x="1280" 
 />
    <glyph glyph-name="afii10093" unicode="&#x44b;" horiz-adv-x="1472" 
 />
    <glyph glyph-name="afii10094" unicode="&#x44c;" horiz-adv-x="1067" 
 />
    <glyph glyph-name="afii10095" unicode="&#x44d;" horiz-adv-x="1045" 
 />
    <glyph glyph-name="afii10096" unicode="&#x44e;" horiz-adv-x="1536" 
 />
    <glyph glyph-name="afii10097" unicode="&#x44f;" horiz-adv-x="1109" 
 />
    <glyph glyph-name="afii10071" unicode="&#x451;" 
 />
    <glyph glyph-name="afii10099" unicode="&#x452;" 
 />
    <glyph glyph-name="afii10100" unicode="&#x453;" horiz-adv-x="747" 
 />
    <glyph glyph-name="afii10101" unicode="&#x454;" horiz-adv-x="1045" 
 />
    <glyph glyph-name="afii10102" unicode="&#x455;" horiz-adv-x="1024" 
 />
    <glyph glyph-name="afii10103" unicode="&#x456;" horiz-adv-x="455" 
 />
    <glyph glyph-name="afii10104" unicode="&#x457;" horiz-adv-x="569" 
 />
    <glyph glyph-name="afii10105" unicode="&#x458;" horiz-adv-x="455" 
 />
    <glyph glyph-name="afii10106" unicode="&#x459;" horiz-adv-x="1856" 
 />
    <glyph glyph-name="afii10107" unicode="&#x45a;" horiz-adv-x="1664" 
 />
    <glyph glyph-name="afii10108" unicode="&#x45b;" 
 />
    <glyph glyph-name="afii10109" unicode="&#x45c;" horiz-adv-x="896" 
 />
    <glyph glyph-name="afii10110" unicode="&#x45e;" horiz-adv-x="1024" 
 />
    <glyph glyph-name="afii10193" unicode="&#x45f;" horiz-adv-x="1131" 
 />
    <glyph glyph-name="afii10050" unicode="&#x490;" horiz-adv-x="1001" 
 />
    <glyph glyph-name="afii10098" unicode="&#x491;" horiz-adv-x="842" 
 />
    <glyph glyph-name="Wgrave" unicode="&#x1e80;" horiz-adv-x="1933" 
 />
    <glyph glyph-name="wgrave" unicode="&#x1e81;" horiz-adv-x="1479" 
 />
    <glyph glyph-name="Wacute" unicode="&#x1e82;" horiz-adv-x="1933" 
 />
    <glyph glyph-name="wacute" unicode="&#x1e83;" horiz-adv-x="1479" 
 />
    <glyph glyph-name="Wdieresis" unicode="&#x1e84;" horiz-adv-x="1933" 
 />
    <glyph glyph-name="wdieresis" unicode="&#x1e85;" horiz-adv-x="1479" 
 />
    <glyph glyph-name="Ygrave" unicode="&#x1ef2;" horiz-adv-x="1366" 
 />
    <glyph glyph-name="ygrave" unicode="&#x1ef3;" horiz-adv-x="1024" 
 />
    <glyph glyph-name="afii00208" unicode="&#x2015;" horiz-adv-x="2048" 
 />
    <glyph glyph-name="underscoredbl" unicode="&#x2017;" horiz-adv-x="1131" 
 />
    <glyph glyph-name="quotereversed" unicode="&#x201b;" horiz-adv-x="455" 
 />
    <glyph glyph-name="minute" unicode="&#x2032;" horiz-adv-x="384" 
 />
    <glyph glyph-name="second" unicode="&#x2033;" horiz-adv-x="725" 
 />
    <glyph glyph-name="exclamdbl" unicode="&#x203c;" horiz-adv-x="1024" 
 />
    <glyph glyph-name="uni203E" unicode="&#x203e;" horiz-adv-x="682" 
 />
    <glyph glyph-name="uni207F" unicode="&#x207f;" horiz-adv-x="747" 
 />
    <glyph glyph-name="lira" unicode="&#x20a4;" 
 />
    <glyph glyph-name="peseta" unicode="&#x20a7;" horiz-adv-x="2240" 
 />
    <glyph glyph-name="afii61248" unicode="&#x2105;" horiz-adv-x="1813" 
 />
    <glyph glyph-name="afii61289" unicode="&#x2113;" horiz-adv-x="662" 
 />
    <glyph glyph-name="afii61352" unicode="&#x2116;" horiz-adv-x="2197" 
 />
    <glyph glyph-name="estimated" unicode="&#x212e;" horiz-adv-x="1229" 
 />
    <glyph glyph-name="oneeighth" unicode="&#x215b;" horiz-adv-x="1708" 
 />
    <glyph glyph-name="threeeighths" unicode="&#x215c;" horiz-adv-x="1708" 
 />
    <glyph glyph-name="fiveeighths" unicode="&#x215d;" horiz-adv-x="1708" 
 />
    <glyph glyph-name="seveneighths" unicode="&#x215e;" horiz-adv-x="1708" 
 />
    <glyph glyph-name="arrowleft" unicode="&#x2190;" horiz-adv-x="2048" 
 />
    <glyph glyph-name="arrowup" unicode="&#x2191;" horiz-adv-x="1024" 
 />
    <glyph glyph-name="arrowright" unicode="&#x2192;" horiz-adv-x="2048" 
 />
    <glyph glyph-name="arrowdown" unicode="&#x2193;" horiz-adv-x="1024" 
 />
    <glyph glyph-name="arrowboth" unicode="&#x2194;" horiz-adv-x="2048" 
 />
    <glyph glyph-name="arrowupdn" unicode="&#x2195;" horiz-adv-x="1024" 
 />
    <glyph glyph-name="arrowupdnbse" unicode="&#x21a8;" horiz-adv-x="1024" 
 />
    <glyph glyph-name="orthogonal" unicode="&#x221f;" horiz-adv-x="2005" 
 />
    <glyph glyph-name="intersection" unicode="&#x2229;" horiz-adv-x="1472" 
 />
    <glyph glyph-name="equivalence" unicode="&#x2261;" horiz-adv-x="1195" 
 />
    <glyph glyph-name="house" unicode="&#x2302;" horiz-adv-x="1237" 
 />
    <glyph glyph-name="revlogicalnot" unicode="&#x2310;" horiz-adv-x="1196" 
 />
    <glyph glyph-name="integraltp" unicode="&#x2320;" horiz-adv-x="1237" 
 />
    <glyph glyph-name="integralbt" unicode="&#x2321;" horiz-adv-x="1237" 
 />
    <glyph glyph-name="SF100000" unicode="&#x2500;" horiz-adv-x="1451" 
 />
    <glyph glyph-name="SF110000" unicode="&#x2502;" horiz-adv-x="1280" 
 />
    <glyph glyph-name="SF010000" unicode="&#x250c;" horiz-adv-x="1451" 
 />
    <glyph glyph-name="SF030000" unicode="&#x2510;" horiz-adv-x="1451" 
 />
    <glyph glyph-name="SF020000" unicode="&#x2514;" horiz-adv-x="1451" 
 />
    <glyph glyph-name="SF040000" unicode="&#x2518;" horiz-adv-x="1451" 
 />
    <glyph glyph-name="SF080000" unicode="&#x251c;" horiz-adv-x="1451" 
 />
    <glyph glyph-name="SF090000" unicode="&#x2524;" horiz-adv-x="1451" 
 />
    <glyph glyph-name="SF060000" unicode="&#x252c;" horiz-adv-x="1451" 
 />
    <glyph glyph-name="SF070000" unicode="&#x2534;" horiz-adv-x="1451" 
 />
    <glyph glyph-name="SF050000" unicode="&#x253c;" horiz-adv-x="1451" 
 />
    <glyph glyph-name="SF430000" unicode="&#x2550;" horiz-adv-x="1451" 
 />
    <glyph glyph-name="SF240000" unicode="&#x2551;" horiz-adv-x="1451" 
 />
    <glyph glyph-name="SF510000" unicode="&#x2552;" horiz-adv-x="1451" 
 />
    <glyph glyph-name="SF520000" unicode="&#x2553;" horiz-adv-x="1451" 
 />
    <glyph glyph-name="SF390000" unicode="&#x2554;" horiz-adv-x="1451" 
 />
    <glyph glyph-name="SF220000" unicode="&#x2555;" horiz-adv-x="1451" 
 />
    <glyph glyph-name="SF210000" unicode="&#x2556;" horiz-adv-x="1451" 
 />
    <glyph glyph-name="SF250000" unicode="&#x2557;" horiz-adv-x="1451" 
 />
    <glyph glyph-name="SF500000" unicode="&#x2558;" horiz-adv-x="1451" 
 />
    <glyph glyph-name="SF490000" unicode="&#x2559;" horiz-adv-x="1451" 
 />
    <glyph glyph-name="SF380000" unicode="&#x255a;" horiz-adv-x="1451" 
 />
    <glyph glyph-name="SF280000" unicode="&#x255b;" horiz-adv-x="1451" 
 />
    <glyph glyph-name="SF270000" unicode="&#x255c;" horiz-adv-x="1451" 
 />
    <glyph glyph-name="SF260000" unicode="&#x255d;" horiz-adv-x="1451" 
 />
    <glyph glyph-name="SF360000" unicode="&#x255e;" horiz-adv-x="1451" 
 />
    <glyph glyph-name="SF370000" unicode="&#x255f;" horiz-adv-x="1451" 
 />
    <glyph glyph-name="SF420000" unicode="&#x2560;" horiz-adv-x="1451" 
 />
    <glyph glyph-name="SF190000" unicode="&#x2561;" horiz-adv-x="1451" 
 />
    <glyph glyph-name="SF200000" unicode="&#x2562;" horiz-adv-x="1451" 
 />
    <glyph glyph-name="SF230000" unicode="&#x2563;" horiz-adv-x="1451" 
 />
    <glyph glyph-name="SF470000" unicode="&#x2564;" horiz-adv-x="1451" 
 />
    <glyph glyph-name="SF480000" unicode="&#x2565;" horiz-adv-x="1451" 
 />
    <glyph glyph-name="SF410000" unicode="&#x2566;" horiz-adv-x="1451" 
 />
    <glyph glyph-name="SF450000" unicode="&#x2567;" horiz-adv-x="1451" 
 />
    <glyph glyph-name="SF460000" unicode="&#x2568;" horiz-adv-x="1451" 
 />
    <glyph glyph-name="SF400000" unicode="&#x2569;" horiz-adv-x="1451" 
 />
    <glyph glyph-name="SF540000" unicode="&#x256a;" horiz-adv-x="1451" 
 />
    <glyph glyph-name="SF530000" unicode="&#x256b;" horiz-adv-x="1451" 
 />
    <glyph glyph-name="SF440000" unicode="&#x256c;" horiz-adv-x="1451" 
 />
    <glyph glyph-name="upblock" unicode="&#x2580;" horiz-adv-x="1451" 
 />
    <glyph glyph-name="dnblock" unicode="&#x2584;" horiz-adv-x="1451" 
 />
    <glyph glyph-name="block" unicode="&#x2588;" horiz-adv-x="1451" 
 />
    <glyph glyph-name="lfblock" unicode="&#x258c;" horiz-adv-x="1451" 
 />
    <glyph glyph-name="rtblock" unicode="&#x2590;" horiz-adv-x="1451" 
 />
    <glyph glyph-name="ltshade" unicode="&#x2591;" horiz-adv-x="1451" 
 />
    <glyph glyph-name="shade" unicode="&#x2592;" horiz-adv-x="1451" 
 />
    <glyph glyph-name="dkshade" unicode="&#x2593;" horiz-adv-x="1493" 
 />
    <glyph glyph-name="filledbox" unicode="&#x25a0;" horiz-adv-x="1237" 
 />
    <glyph glyph-name="H22073" unicode="&#x25a1;" horiz-adv-x="1237" 
 />
    <glyph glyph-name="H18543" unicode="&#x25aa;" horiz-adv-x="726" 
 />
    <glyph glyph-name="H18551" unicode="&#x25ab;" horiz-adv-x="726" 
 />
    <glyph glyph-name="filledrect" unicode="&#x25ac;" horiz-adv-x="2048" 
 />
    <glyph glyph-name="triagup" unicode="&#x25b2;" horiz-adv-x="2027" 
 />
    <glyph glyph-name="triagrt" unicode="&#x25ba;" horiz-adv-x="2027" 
 />
    <glyph glyph-name="triagdn" unicode="&#x25bc;" horiz-adv-x="2027" 
 />
    <glyph glyph-name="triaglf" unicode="&#x25c4;" horiz-adv-x="2027" 
 />
    <glyph glyph-name="circle" unicode="&#x25cb;" horiz-adv-x="1237" 
 />
    <glyph glyph-name="H18533" unicode="&#x25cf;" horiz-adv-x="1237" 
 />
    <glyph glyph-name="invbullet" unicode="&#x25d8;" horiz-adv-x="1237" 
 />
    <glyph glyph-name="invcircle" unicode="&#x25d9;" horiz-adv-x="1237" 
 />
    <glyph glyph-name="openbullet" unicode="&#x25e6;" horiz-adv-x="726" 
 />
    <glyph glyph-name="smileface" unicode="&#x263a;" horiz-adv-x="2091" 
 />
    <glyph glyph-name="invsmileface" unicode="&#x263b;" horiz-adv-x="2155" 
 />
    <glyph glyph-name="sun" unicode="&#x263c;" horiz-adv-x="1877" 
 />
    <glyph glyph-name="female" unicode="&#x2640;" horiz-adv-x="1536" 
 />
    <glyph glyph-name="male" unicode="&#x2642;" horiz-adv-x="1536" 
 />
    <glyph glyph-name="spade" unicode="&#x2660;" horiz-adv-x="1088" 
 />
    <glyph glyph-name="club" unicode="&#x2663;" horiz-adv-x="1344" 
 />
    <glyph glyph-name="heart" unicode="&#x2665;" horiz-adv-x="1216" 
 />
    <glyph glyph-name="diamond" unicode="&#x2666;" horiz-adv-x="1045" 
 />
    <glyph glyph-name="musicalnote" unicode="&#x266a;" horiz-adv-x="1024" 
 />
    <glyph glyph-name="musicalnotedbl" unicode="&#x266b;" horiz-adv-x="1536" 
 />
    <glyph glyph-name="uniF004" unicode="&#xf004;" horiz-adv-x="682" 
 />
    <glyph glyph-name="uniF005" unicode="&#xf005;" horiz-adv-x="682" 
 />
  </font>
</defs>
</svg>
